<svg width="286" height="161" fill="none" xmlns="http://www.w3.org/2000/svg"><path fill="#C4C4C4" d="M40.334 161h40.833v-40.833H40.334z"/><path fill="#717171" d="M122 161h40.833v-40.833H122z"/><path fill="#C4C4C4" d="M203.666 161h40.833v-40.833h-40.833z"/><path fill="#ECECEC" d="M40.334 120.167h40.833V79.334H40.334zm81.666 0h40.833V79.334H122z"/><path fill="#C4C4C4" d="M203.666 120.167h40.833V79.334h-40.833z"/><path transform="matrix(1 0 0 -1 203.666 120.167)" fill="url(#paint0_linear_96_8765)" d="M0 0h40.833v40.833H0z"/><path fill="#ECECEC" d="M-.5 120.167h40.833V79.334H-.5zm81.666 0h40.833V79.334H81.166z"/><path fill="#575757" d="M162.834 120.167h40.833V79.334h-40.833z"/><path fill="#ECECEC" d="M244.5 120.167h40.833V79.334H244.5zM-.5 161h40.833v-40.833H-.5z"/><path fill="#575757" d="M81.166 161h40.833v-40.833H81.166z"/><path fill="#ECECEC" d="M162.834 161h40.833v-40.833h-40.833zm81.666 0h40.833v-40.833H244.5z"/><path fill="#C4C4C4" d="M-.5 79.333h40.833V38.5H-.5z"/><path fill="#ECECEC" d="M81.166 38.5h40.833V-2.333H81.166z"/><path fill="#B7B7B7" d="M162.834 38.5h40.833V-2.333h-40.833z"/><path fill="#ECECEC" d="M244.5 38.5h40.833V-2.333H244.5zm-245 0h40.833V-2.333H-.5zm81.666 40.833h40.833V38.5H81.166zm81.668 0h40.833V38.5h-40.833z"/><path fill="#B0B0B0" d="M244.5 79.333h40.833V38.5H244.5z"/><path fill="#B7B7B7" d="M40.334 79.333h40.833V38.5H40.334zm81.666 0h40.833V38.5H122z"/><path fill="#717171" d="M203.666 79.333h40.833V38.5h-40.833z"/><path fill="#ECECEC" d="M40.334 38.5h40.833V-2.333H40.334z"/><path fill="#575757" d="M122 38.5h40.833V-2.333H122z"/><path fill="#B7B7B7" d="M203.666 38.5h40.833V-2.333h-40.833z"/><defs><linearGradient id="paint0_linear_96_8765" x1="39.026" y1="0" x2="-3.945" y2="2.033" gradientUnits="userSpaceOnUse"><stop stop-color="#E11F26"/><stop offset="1" stop-color="#DD408B"/></linearGradient></defs></svg>