<svg width="286" height="163" fill="none" xmlns="http://www.w3.org/2000/svg"><path fill="#B7B7B7" d="M-.5-.833h40.833V40H-.5z"/><path fill="#ECECEC" d="M81.167-.833H122V40H81.167z"/><path fill="#B7B7B7" d="M162.833-.833h40.833V40h-40.833z"/><path fill="#ECECEC" d="M244.5-.833h40.833V40H244.5z"/><path fill="#717171" d="M-.5 80.833h40.833v40.833H-.5z"/><path fill="#C4C4C4" d="M81.167 80.833H122v40.833H81.167z"/><path fill="url(#paint0_linear_96_8611)" d="M81.167 80.833H122v40.833H81.167z"/><path fill="#B7B7B7" d="M244.5 80.833h40.833v40.833H244.5z"/><path fill="#ECECEC" d="M162.833 80.833h40.833v40.833h-40.833z"/><path fill="#D8D8D8" d="M-.5 40h40.833v40.833H-.5z"/><path fill="#ECECEC" d="M81.167 40H122v40.833H81.167z"/><path fill="#C4C4C4" d="M162.833 40h40.833v40.833h-40.833z"/><path fill="url(#paint1_linear_96_8611)" d="M162.833 40h40.833v40.833h-40.833z"/><path fill="#ECECEC" d="M244.5 40h40.833v40.833H244.5zm-245 81.667h40.833V162.5H-.5zm81.667 0H122V162.5H81.167zm81.666 0h40.833V162.5h-40.833zm81.667 0h40.833V162.5H244.5z"/><path fill="#D8D8D8" d="M40.333-.833h40.833V40H40.333z"/><path fill="#ECECEC" d="M122-.833h40.833V40H122zm81.667 0H244.5V40h-40.833zM40.333 80.833h40.833v40.833H40.333zm81.667 0h40.833v40.833H122zm81.667 0H244.5v40.833h-40.833zM40.333 40h40.833v40.833H40.333z"/><path fill="#C4C4C4" d="M122 40h40.833v40.833H122z"/><path fill="#B0B0B0" d="M203.667 40H244.5v40.833h-40.833z"/><path fill="#C4C4C4" d="M40.333 121.667h40.833V162.5H40.333zm81.667 0h40.833V162.5H122zm81.667 0H244.5V162.5h-40.833z"/><defs><linearGradient id="paint0_linear_96_8611" x1="120.193" y1="80.833" x2="77.222" y2="82.867" gradientUnits="userSpaceOnUse"><stop stop-color="#E11F26"/><stop offset="1" stop-color="#DD408B"/></linearGradient><linearGradient id="paint1_linear_96_8611" x1="201.859" y1="40" x2="158.888" y2="42.033" gradientUnits="userSpaceOnUse"><stop stop-color="#E11F26"/><stop offset="1" stop-color="#DD408B"/></linearGradient></defs></svg>