<svg width="286" height="163" fill="none" xmlns="http://www.w3.org/2000/svg"><path fill="#C4C4C4" d="M244.307-.833h-40.833V40h40.833z"/><path fill="#B7B7B7" d="M244.307 80.833h-40.833v40.833h40.833z"/><path fill="#B0B0B0" d="M244.307 40h-40.833v40.833h40.833z"/><path fill="#ECECEC" d="M244.307 121.667h-40.833V162.5h40.833zm40.834-122.5h-40.833V40h40.833zm0 81.666h-40.833v40.833h40.833z"/><path fill="#C4C4C4" d="M285.141 40h-40.833v40.833h40.833z"/><path fill="#ECECEC" d="M285.141 121.667h-40.833V162.5h40.833z"/><path fill="#B7B7B7" d="M162.641-.833h-40.833V40h40.833z"/><path fill="#ECECEC" d="M80.975-.833H40.142V40h40.833z"/><path fill="#717171" d="M80.975 80.833H40.142v40.833h40.833z"/><path fill="#C4C4C4" d="M162.807 80.833h-40.833v40.833h40.833z"/><path transform="matrix(-1 0 0 1 162.807 80.833)" fill="url(#paint0_linear_96_8919)" d="M0 0h40.833v40.833H0z"/><path fill="#D8D8D8" d="M162.641 40h-40.833v40.833h40.833z"/><path fill="#ECECEC" d="M80.975 40H40.142v40.833h40.833zm81.666 81.667h-40.833V162.5h40.833zm-81.666 0H40.142V162.5h40.833z"/><path fill="#575757" d="M203.475-.833h-40.833V40h40.833z"/><path fill="#D8D8D8" d="M121.807-.833H80.974V40h40.833z"/><path fill="#ECECEC" d="M40.14-.833H-.691V40H40.14zm163.335 81.666h-40.833v40.833h40.833zm-81.668 0H80.974v40.833h40.833zm-81.667 0H-.691v40.833H40.14z"/><path fill="#717171" d="M203.475 40h-40.833v40.833h40.833z"/><path fill="#ECECEC" d="M121.807 40H80.974v40.833h40.833z"/><path fill="#C4C4C4" d="M40.14 40H-.691v40.833H40.14z"/><path fill="#B0B0B0" d="M203.475 121.667h-40.833V162.5h40.833z"/><path fill="#C4C4C4" d="M121.807 121.667H80.974V162.5h40.833zm-81.667 0H-.691V162.5H40.14z"/><defs><linearGradient id="paint0_linear_96_8919" x1="39.026" y1="0" x2="-3.945" y2="2.033" gradientUnits="userSpaceOnUse"><stop stop-color="#E11F26"/><stop offset="1" stop-color="#DD408B"/></linearGradient></defs></svg>