<svg width="286" height="163" viewBox="0 0 286 163" fill="none" xmlns="http://www.w3.org/2000/svg">
<rect x="-0.5" y="-0.833344" width="40.8333" height="40.8333" fill="#B7B7B7"/>
<rect x="81.167" y="-0.833344" width="40.8333" height="40.8333" fill="#ECECEC"/>
<rect x="162.833" y="-0.833344" width="40.8333" height="40.8333" fill="#B7B7B7"/>
<rect x="244.5" y="-0.833344" width="40.8333" height="40.8333" fill="#ECECEC"/>
<rect x="-0.5" y="80.8334" width="40.8333" height="40.8333" fill="#717171"/>
<rect x="81.167" y="80.8334" width="40.8333" height="40.8333" fill="#C4C4C4"/>
<rect x="81.167" y="80.8334" width="40.8333" height="40.8333" fill="url(#paint0_linear_96_8611)"/>
<rect x="244.5" y="80.8334" width="40.8333" height="40.8333" fill="#B7B7B7"/>
<rect x="162.833" y="80.8334" width="40.8333" height="40.8333" fill="#ECECEC"/>
<rect x="-0.5" y="39.9999" width="40.8333" height="40.8333" fill="#D8D8D8"/>
<rect x="81.167" y="39.9999" width="40.8333" height="40.8333" fill="#ECECEC"/>
<rect x="162.833" y="39.9999" width="40.8333" height="40.8333" fill="#C4C4C4"/>
<rect x="162.833" y="39.9999" width="40.8333" height="40.8333" fill="url(#paint1_linear_96_8611)"/>
<rect x="244.5" y="39.9999" width="40.8333" height="40.8333" fill="#ECECEC"/>
<rect x="-0.5" y="121.667" width="40.8333" height="40.8333" fill="#ECECEC"/>
<rect x="81.167" y="121.667" width="40.8333" height="40.8333" fill="#ECECEC"/>
<rect x="162.833" y="121.667" width="40.8333" height="40.8333" fill="#ECECEC"/>
<rect x="244.5" y="121.667" width="40.8333" height="40.8333" fill="#ECECEC"/>
<rect x="40.333" y="-0.833344" width="40.8333" height="40.8333" fill="#D8D8D8"/>
<rect x="122" y="-0.833344" width="40.8333" height="40.8333" fill="#ECECEC"/>
<rect x="203.667" y="-0.833344" width="40.8333" height="40.8333" fill="#ECECEC"/>
<rect x="40.333" y="80.8334" width="40.8333" height="40.8333" fill="#ECECEC"/>
<rect x="122" y="80.8334" width="40.8333" height="40.8333" fill="#ECECEC"/>
<rect x="203.667" y="80.8334" width="40.8333" height="40.8333" fill="#ECECEC"/>
<rect x="40.333" y="39.9999" width="40.8333" height="40.8333" fill="#ECECEC"/>
<rect x="122" y="39.9999" width="40.8333" height="40.8333" fill="#C4C4C4"/>
<rect x="203.667" y="39.9999" width="40.8333" height="40.8333" fill="#B0B0B0"/>
<rect x="40.333" y="121.667" width="40.8333" height="40.8333" fill="#C4C4C4"/>
<rect x="122" y="121.667" width="40.8333" height="40.8333" fill="#C4C4C4"/>
<rect x="203.667" y="121.667" width="40.8333" height="40.8333" fill="#C4C4C4"/>
<defs>
<linearGradient id="paint0_linear_96_8611" x1="120.193" y1="80.8334" x2="77.2218" y2="82.8665" gradientUnits="userSpaceOnUse">
<stop stop-color="#E11F26"/>
<stop offset="1" stop-color="#DD408B"/>
</linearGradient>
<linearGradient id="paint1_linear_96_8611" x1="201.859" y1="39.9999" x2="158.888" y2="42.0331" gradientUnits="userSpaceOnUse">
<stop stop-color="#E11F26"/>
<stop offset="1" stop-color="#DD408B"/>
</linearGradient>
</defs>
</svg>
