<svg width="286" height="161" viewBox="0 0 286 161" fill="none" xmlns="http://www.w3.org/2000/svg">
<rect width="40.8333" height="40.8333" transform="matrix(1 0 0 -1 40.334 161)" fill="#C4C4C4"/>
<rect width="40.8333" height="40.8333" transform="matrix(1 0 0 -1 122 161)" fill="#717171"/>
<rect width="40.8333" height="40.8333" transform="matrix(1 0 0 -1 203.666 161)" fill="#C4C4C4"/>
<rect width="40.8333" height="40.8333" transform="matrix(1 0 0 -1 40.334 120.167)" fill="#ECECEC"/>
<rect width="40.8333" height="40.8333" transform="matrix(1 0 0 -1 122 120.167)" fill="#ECECEC"/>
<rect width="40.8333" height="40.8333" transform="matrix(1 0 0 -1 203.666 120.167)" fill="#C4C4C4"/>
<rect width="40.8333" height="40.8333" transform="matrix(1 0 0 -1 203.666 120.167)" fill="url(#paint0_linear_96_8765)"/>
<rect width="40.8333" height="40.8333" transform="matrix(1 0 0 -1 -0.5 120.167)" fill="#ECECEC"/>
<rect width="40.8333" height="40.8333" transform="matrix(1 0 0 -1 81.166 120.167)" fill="#ECECEC"/>
<rect width="40.8333" height="40.8333" transform="matrix(1 0 0 -1 162.834 120.167)" fill="#575757"/>
<rect width="40.8333" height="40.8333" transform="matrix(1 0 0 -1 244.5 120.167)" fill="#ECECEC"/>
<rect width="40.8333" height="40.8333" transform="matrix(1 0 0 -1 -0.5 161)" fill="#ECECEC"/>
<rect width="40.8333" height="40.8333" transform="matrix(1 0 0 -1 81.166 161)" fill="#575757"/>
<rect width="40.8333" height="40.8333" transform="matrix(1 0 0 -1 162.834 161)" fill="#ECECEC"/>
<rect width="40.8333" height="40.8333" transform="matrix(1 0 0 -1 244.5 161)" fill="#ECECEC"/>
<rect width="40.8333" height="40.8333" transform="matrix(1 0 0 -1 -0.5 79.3334)" fill="#C4C4C4"/>
<rect width="40.8333" height="40.8333" transform="matrix(1 0 0 -1 81.166 38.4999)" fill="#ECECEC"/>
<rect width="40.8333" height="40.8333" transform="matrix(1 0 0 -1 162.834 38.4999)" fill="#B7B7B7"/>
<rect width="40.8333" height="40.8333" transform="matrix(1 0 0 -1 244.5 38.4999)" fill="#ECECEC"/>
<rect width="40.8333" height="40.8333" transform="matrix(1 0 0 -1 -0.5 38.4999)" fill="#ECECEC"/>
<rect width="40.8333" height="40.8333" transform="matrix(1 0 0 -1 81.166 79.3334)" fill="#ECECEC"/>
<rect width="40.8333" height="40.8333" transform="matrix(1 0 0 -1 162.834 79.3334)" fill="#ECECEC"/>
<rect width="40.8333" height="40.8333" transform="matrix(1 0 0 -1 244.5 79.3334)" fill="#B0B0B0"/>
<rect width="40.8333" height="40.8333" transform="matrix(1 0 0 -1 40.334 79.3334)" fill="#B7B7B7"/>
<rect width="40.8333" height="40.8333" transform="matrix(1 0 0 -1 122 79.3334)" fill="#B7B7B7"/>
<rect width="40.8333" height="40.8333" transform="matrix(1 0 0 -1 203.666 79.3334)" fill="#717171"/>
<rect width="40.8333" height="40.8333" transform="matrix(1 0 0 -1 40.334 38.4999)" fill="#ECECEC"/>
<rect width="40.8333" height="40.8333" transform="matrix(1 0 0 -1 122 38.4999)" fill="#575757"/>
<rect width="40.8333" height="40.8333" transform="matrix(1 0 0 -1 203.666 38.4999)" fill="#B7B7B7"/>
<defs>
<linearGradient id="paint0_linear_96_8765" x1="39.0256" y1="-1.87308e-05" x2="-3.94515" y2="2.03313" gradientUnits="userSpaceOnUse">
<stop stop-color="#E11F26"/>
<stop offset="1" stop-color="#DD408B"/>
</linearGradient>
</defs>
</svg>
