<svg width="179" height="40" viewBox="0 0 179 40" fill="none" xmlns="http://www.w3.org/2000/svg">
<path d="M15.5166 20.0643H6.58118L5.24354 23.4714H0L8.7214 1.89307H13.3764L22.0978 23.4714H16.8542L15.5166 20.0643ZM8.29334 15.7919H13.8044L11.2361 9.30217L11.0756 8.59911H11.0221L10.8616 9.30217L8.29334 15.7919Z" fill="#DEE2E6"/>
<path d="M21.9375 1.18994H26.8065V23.5254H21.9375V1.18994Z" fill="#DEE2E6"/>
<path d="M27.7148 15.3051C27.7148 14.1153 27.9289 12.9796 28.3569 11.898C28.7849 10.8163 29.427 9.89696 30.2296 9.13983C31.0322 8.38269 31.9953 7.73372 33.0654 7.24699C34.189 6.81434 35.3661 6.54395 36.7038 6.54395C38.0414 6.54395 39.272 6.76026 40.3956 7.24699C41.5193 7.73372 42.4824 8.32861 43.2849 9.13983C44.0875 9.95104 44.7296 10.8704 45.1576 11.898C45.5857 12.9796 45.7997 14.1153 45.7997 15.3051C45.7997 15.6295 45.7997 15.9 45.7462 16.1163C45.7462 16.3326 45.6927 16.4948 45.6392 16.7112H32.6373C32.7444 17.252 32.9584 17.6846 33.2259 18.1173C33.4934 18.5499 33.8145 18.8744 34.189 19.1448C34.5635 19.4152 34.9381 19.6856 35.3661 19.7938C35.7942 19.956 36.2222 20.0101 36.7038 20.0101C37.4528 20.0101 38.1484 19.8479 38.6835 19.5234C39.272 19.1989 39.7001 18.7662 39.9676 18.2795H45.2111C44.9971 18.9826 44.6226 19.6856 44.0875 20.3887C43.606 21.0917 42.9639 21.6866 42.2683 22.2274C41.5728 22.7682 40.7167 23.2009 39.7536 23.5254C38.7905 23.8499 37.7739 24.0121 36.6503 24.0121C35.3126 24.0121 34.082 23.7958 33.0119 23.3091C31.8883 22.8764 30.9787 22.2274 30.1761 21.4162C29.3735 20.605 28.785 19.6856 28.3034 18.6581C27.9289 17.6306 27.7148 16.4948 27.7148 15.3051ZM36.7573 10.6541C35.9012 10.6541 35.1521 10.8704 34.4565 11.3572C33.761 11.8439 33.2794 12.4388 32.9584 13.25H40.6097C40.4492 12.8714 40.2351 12.4929 39.9676 12.1684C39.7001 11.8439 39.4325 11.5735 39.058 11.3572C38.737 11.1408 38.3624 10.9786 37.9879 10.8163C37.5598 10.7082 37.1853 10.6541 36.7573 10.6541Z" fill="#DEE2E6"/>
<path d="M50.2413 18.3334C50.2948 18.8201 50.5623 19.2528 50.9903 19.5232C51.4719 19.8476 52.0605 19.9558 52.756 19.9558C53.6656 19.9558 54.3612 19.8477 54.7357 19.5772C55.1638 19.3609 55.3243 18.9823 55.3243 18.5497C55.3243 18.2793 55.2173 18.063 55.0568 17.9007C54.8427 17.7385 54.5752 17.5762 54.2007 17.4681C53.8261 17.3599 53.3981 17.2518 52.863 17.1436C52.328 17.0354 51.7394 16.9273 50.9903 16.765C50.6693 16.7109 50.3483 16.6028 49.9737 16.5487C49.5992 16.4405 49.2247 16.3324 48.8501 16.1701C48.4756 16.0079 48.1011 15.8456 47.78 15.5752C47.459 15.3589 47.1379 15.0885 46.8704 14.71C46.6029 14.3855 46.3889 13.9528 46.2284 13.5202C46.0678 13.0334 46.0143 12.4926 46.0143 11.8436C46.0143 11.0324 46.1749 10.2753 46.4424 9.57226C46.7634 8.92328 47.1915 8.32839 47.78 7.89574C48.3686 7.46309 49.1712 7.08453 50.0807 6.81412C50.9903 6.54372 52.0605 6.43555 53.3446 6.43555C54.3612 6.43555 55.2708 6.54372 56.0734 6.81412C56.876 7.08453 57.5715 7.4631 58.1601 7.94983C58.7486 8.43655 59.1767 9.03144 59.4442 9.68041C59.7652 10.3294 59.8723 11.0865 59.8723 11.8977H55.0033C54.9498 11.5192 54.7892 11.1406 54.4147 10.8702C54.0937 10.5998 53.5586 10.4375 52.97 10.4375C52.221 10.4375 51.6859 10.5998 51.3114 10.8702C50.9368 11.1406 50.7763 11.4651 50.7763 11.8436C50.7763 12.06 50.8298 12.2222 50.9368 12.3845C51.0439 12.5467 51.2579 12.6549 51.5254 12.763C51.7929 12.8712 52.114 12.9253 52.4885 13.0334C52.863 13.0875 53.3446 13.1957 53.9332 13.2498C54.7892 13.412 55.5918 13.5742 56.3944 13.7906C57.1435 14.0069 57.8391 14.2773 58.4276 14.6559C59.0162 15.0344 59.4977 15.5212 59.8188 16.062C60.1398 16.6028 60.3538 17.414 60.3538 18.2793C60.3538 19.2527 60.1398 20.118 59.7652 20.8211C59.3907 21.5242 58.8557 22.119 58.1601 22.6058C57.4645 23.0925 56.6619 23.417 55.6988 23.6333C54.7357 23.8496 53.6656 23.9578 52.542 23.9578C51.3114 23.9578 50.1878 23.7956 49.3317 23.4711C48.4756 23.1466 47.7265 22.7139 47.1379 22.1731C46.5494 21.6323 46.1213 21.0374 45.8538 20.3344C45.5863 19.6313 45.4258 18.9823 45.4258 18.2793L50.2413 18.3334Z" fill="#DEE2E6"/>
<path d="M61.2109 1.18994H66.0799V14.0612L71.484 7.08477H77.1556L71.698 13.953L77.6906 23.5254H71.912L68.2201 17.1438L66.0799 19.6856V23.5254H61.2109V1.18994Z" fill="#DEE2E6"/>
<path d="M75.4961 15.3051C75.4961 14.1153 75.7101 12.9796 76.1382 11.898C76.5662 10.8163 77.2083 9.89696 78.0109 9.13983C78.8134 8.38269 79.7765 7.73372 80.8466 7.24699C81.9703 6.81434 83.1474 6.54395 84.485 6.54395C85.8227 6.54395 87.0533 6.76026 88.1769 7.24699C89.3005 7.73372 90.2636 8.32861 91.0662 9.13983C91.8688 9.95104 92.5108 10.8704 92.9389 11.898C93.3669 12.9796 93.581 14.1153 93.581 15.3051C93.581 15.6295 93.581 15.9 93.5275 16.1163C93.5275 16.3326 93.4739 16.4948 93.4204 16.7112H80.4186C80.5256 17.252 80.7396 17.6846 81.0072 18.1173C81.2747 18.5499 81.5957 18.8744 81.9703 19.1448C82.3448 19.4152 82.7193 19.6856 83.1474 19.7938C83.5754 19.956 84.0035 20.0101 84.485 20.0101C85.2341 20.0101 85.9297 19.8479 86.4647 19.5234C87.0533 19.1989 87.4813 18.7662 87.7488 18.2795H92.9924C92.7784 18.9826 92.4038 19.6856 91.8688 20.3887C91.3872 21.0917 90.7452 21.6866 90.0496 22.2274C89.354 22.7682 88.4979 23.2009 87.5348 23.5254C86.5717 23.8499 85.5551 24.0121 84.4315 24.0121C83.0939 24.0121 81.8632 23.7958 80.7931 23.3091C79.6695 22.8764 78.7599 22.2274 77.9573 21.4162C77.1548 20.605 76.5662 19.6856 76.0847 18.6581C75.7101 17.6306 75.4961 16.4948 75.4961 15.3051ZM84.5385 10.6541C83.6824 10.6541 82.9334 10.8704 82.2378 11.3572C81.5422 11.8439 81.0607 12.4388 80.7396 13.25H88.3909C88.2304 12.8714 88.0164 12.4929 87.7488 12.1684C87.4813 11.8439 87.2138 11.5735 86.8393 11.3572C86.5182 11.1408 86.1437 10.9786 85.7692 10.8163C85.3946 10.7082 84.9666 10.6541 84.5385 10.6541Z" fill="#DEE2E6"/>
<path d="M105.566 11.3032H103.533C102.195 11.3032 101.178 11.6817 100.429 12.4389C99.6803 13.196 99.3057 14.3317 99.3057 15.846V23.4714H94.4902V7.03076H98.3961L98.7707 8.59911C99.3057 8.16646 99.9478 7.78789 100.697 7.4634C101.446 7.193 102.302 7.03076 103.319 7.03076H105.619V11.3032H105.566Z" fill="#DEE2E6"/>
<path d="M104.924 15.3051C104.924 14.1153 105.138 12.9796 105.566 11.898C105.994 10.8163 106.636 9.89696 107.439 9.13983C108.241 8.38269 109.204 7.73372 110.274 7.24699C111.344 6.76026 112.629 6.54395 113.966 6.54395C115.304 6.54395 116.535 6.76026 117.658 7.24699C118.782 7.73372 119.745 8.32861 120.547 9.13983C121.35 9.95104 121.992 10.8704 122.42 11.898C122.848 12.9255 123.062 14.1153 123.062 15.3051C123.062 16.4948 122.848 17.6306 122.42 18.7122C121.992 19.7938 121.35 20.7132 120.547 21.4703C119.745 22.2274 118.782 22.8764 117.658 23.3631C116.535 23.8499 115.304 24.0662 113.966 24.0662C112.629 24.0662 111.452 23.8499 110.328 23.3631C109.204 22.8764 108.295 22.2815 107.492 21.4703C106.69 20.6591 106.101 19.7397 105.619 18.7122C105.138 17.6846 104.924 16.4948 104.924 15.3051ZM109.739 15.251C109.739 15.954 109.846 16.5489 110.06 17.0897C110.274 17.6306 110.595 18.1173 110.97 18.5499C111.344 18.9285 111.826 19.253 112.308 19.4693C112.843 19.6856 113.378 19.7938 113.966 19.7938C114.555 19.7938 115.09 19.6856 115.625 19.4693C116.16 19.253 116.588 18.9285 116.963 18.5499C117.337 18.1714 117.658 17.6846 117.872 17.0897C118.086 16.5489 118.193 15.9 118.193 15.1969C118.193 14.5479 118.086 13.899 117.872 13.3582C117.658 12.8173 117.337 12.3306 116.963 11.952C116.588 11.5735 116.16 11.249 115.625 11.0327C115.09 10.8163 114.555 10.7082 113.966 10.7082C113.378 10.7082 112.843 10.8163 112.308 11.0327C111.773 11.249 111.344 11.5735 110.97 11.952C110.595 12.3306 110.274 12.8173 110.06 13.3582C109.846 13.899 109.739 14.602 109.739 15.251Z" fill="#DEE2E6"/>
<path d="M125.203 11.2488H122.207V7.03053H125.203V6.43564C125.203 5.6785 125.31 4.92138 125.471 4.16425C125.685 3.40711 126.006 2.70405 126.434 2.10916C126.916 1.51427 127.504 0.973462 128.253 0.594895C129.002 0.216327 129.965 0 131.142 0H134.406V4.00199H132.32C131.892 4.00199 131.517 4.05607 131.249 4.21831C130.982 4.32648 130.714 4.5428 130.554 4.75912C130.393 4.97545 130.233 5.24585 130.179 5.57034C130.126 5.89482 130.072 6.21932 130.072 6.54381V7.08462H134.406V11.3029H130.072V23.5252H125.203V11.2488Z" fill="#DEE2E6"/>
<path d="M136.117 11.2488H133.121V7.03053H136.117V6.43564C136.117 5.6785 136.224 4.92138 136.385 4.16425C136.599 3.40711 136.92 2.70405 137.348 2.10916C137.83 1.51427 138.418 0.973462 139.167 0.594895C139.916 0.216327 140.879 0 142.057 0H145.32V4.00199H143.234C142.806 4.00199 142.431 4.05607 142.164 4.21831C141.896 4.32648 141.628 4.5428 141.468 4.75912C141.307 4.97545 141.147 5.24585 141.093 5.57034C141.04 5.89482 140.986 6.21932 140.986 6.54381V7.08462H145.32V11.3029H140.986V23.5252H136.117V11.2488Z" fill="#DEE2E6"/>
<path d="M161.48 11.3036H159.447C158.109 11.3036 157.092 11.6822 156.343 12.4394C155.594 13.1965 155.22 14.3322 155.22 15.8464V23.4719H150.404V7.03125H154.31L154.685 8.5996C155.22 8.16695 155.862 7.78838 156.611 7.46389C157.36 7.19349 158.216 7.03125 159.233 7.03125H161.533V11.3036H161.48Z" fill="#DEE2E6"/>
<path d="M169.612 19.7938C170.148 19.7938 170.629 19.7397 171.057 19.5775C171.485 19.4152 171.86 19.1989 172.127 18.8744C172.448 18.5499 172.662 18.1173 172.823 17.5765C172.983 17.0356 173.09 16.3867 173.09 15.5754V6.97656H177.959V15.7377C177.959 17.252 177.745 18.4958 177.317 19.5234C176.889 20.5509 176.301 21.4162 175.552 22.0652C174.803 22.7141 173.946 23.2009 172.93 23.4713C171.913 23.7417 170.79 23.9039 169.612 23.9039C168.435 23.9039 167.312 23.7417 166.295 23.4713C165.279 23.2009 164.422 22.7141 163.673 22.0652C162.924 21.4162 162.336 20.5509 161.908 19.5234C161.48 18.4958 161.266 17.1979 161.266 15.7377V6.97656H166.135V15.5754C166.135 16.3326 166.188 17.0356 166.349 17.5224C166.509 18.0632 166.723 18.4958 167.044 18.8203C167.365 19.1448 167.686 19.3611 168.114 19.5234C168.596 19.7397 169.077 19.7938 169.612 19.7938Z" fill="#DEE2E6"/>
<path d="M148.103 18.6045H143.287V23.4718H148.103V18.6045Z" fill="#DEE2E6"/>
<path d="M94.5859 34.6466C94.5859 34.2139 94.6395 33.8354 94.8 33.4568C94.9605 33.0782 95.121 32.7538 95.3885 32.4833C95.656 32.2129 95.9771 31.9966 96.2981 31.8344C96.6727 31.6721 97.1007 31.618 97.5287 31.618C97.8498 31.618 98.1708 31.6721 98.4383 31.7803C98.7059 31.8885 98.9199 31.9966 99.1339 32.1589V29.7793H100.793V37.4588H99.3479L99.2409 36.9721C99.0269 37.1343 98.7594 37.2966 98.4918 37.4588C98.2243 37.6211 97.8498 37.6751 97.5287 37.6751C97.0472 37.6751 96.6727 37.6211 96.2981 37.4588C95.9236 37.2966 95.6026 37.0802 95.335 36.8098C95.0675 36.5394 94.8535 36.2149 94.7465 35.8364C94.6395 35.4578 94.5859 35.0792 94.5859 34.6466ZM96.2446 34.6466C96.2446 34.8629 96.2981 35.0792 96.3516 35.2956C96.4051 35.5119 96.5121 35.6741 96.6727 35.7823C96.8332 35.9445 96.9402 36.0527 97.1542 36.1068C97.3682 36.1609 97.5288 36.2149 97.7428 36.2149C97.9568 36.2149 98.1173 36.1609 98.3313 36.1068C98.4918 36.0527 98.6524 35.9445 98.8129 35.7823C98.9734 35.6201 99.0804 35.4578 99.1339 35.2956C99.1874 35.0792 99.2409 34.8629 99.2409 34.6466C99.2409 34.4303 99.1874 34.214 99.1339 33.9976C99.0804 33.7813 98.9734 33.619 98.8129 33.5109C98.6524 33.3486 98.5453 33.2946 98.3313 33.1864C98.1708 33.1323 97.9568 33.0782 97.7428 33.0782C97.5288 33.0782 97.3147 33.1323 97.1542 33.1864C96.9937 33.2405 96.8332 33.3486 96.6727 33.5109C96.5657 33.6731 96.4586 33.8354 96.3516 33.9976C96.2981 34.214 96.2446 34.4303 96.2446 34.6466Z" fill="#DEE2E6"/>
<path d="M103.254 31.834H101.596V37.5125H103.254V31.834Z" fill="#DEE2E6"/>
<path d="M103.789 34.6462C103.789 34.2136 103.843 33.835 104.003 33.4564C104.164 33.0779 104.324 32.7534 104.592 32.483C104.859 32.2126 105.18 31.9963 105.555 31.834C105.929 31.6718 106.357 31.6177 106.785 31.6177C106.999 31.6177 107.16 31.6177 107.32 31.6718C107.481 31.7258 107.641 31.7799 107.802 31.834C107.962 31.8881 108.069 31.9422 108.23 32.0503C108.337 32.1044 108.498 32.2126 108.551 32.3207L108.658 31.834H109.996V37.0799C109.996 37.5125 109.942 37.8911 109.782 38.2697C109.621 38.6482 109.461 38.9186 109.193 39.189C108.926 39.4594 108.605 39.6217 108.23 39.7839C107.855 39.9462 107.427 40.0002 106.946 40.0002C106.625 40.0002 106.304 39.9462 106.036 39.8921C105.769 39.838 105.501 39.7298 105.341 39.6217C105.18 39.5135 104.966 39.4053 104.806 39.2431C104.645 39.0809 104.538 38.9186 104.431 38.7564C104.324 38.5941 104.271 38.4319 104.217 38.2156C104.164 37.9992 104.11 37.837 104.11 37.6748H105.715C105.769 37.7829 105.822 37.8911 105.876 37.9992C105.929 38.1074 106.036 38.1615 106.143 38.2697C106.25 38.3778 106.357 38.3778 106.518 38.4319C106.678 38.486 106.839 38.486 106.999 38.486C107.267 38.486 107.534 38.4319 107.695 38.3237C107.855 38.2156 108.016 38.1074 108.123 37.9452C108.23 37.7829 108.284 37.6748 108.337 37.5125C108.391 37.3503 108.391 37.188 108.391 37.0799V36.9176C108.177 37.0799 107.909 37.2421 107.641 37.3503C107.374 37.4584 106.999 37.5125 106.625 37.5125C106.197 37.5125 105.822 37.4584 105.448 37.2962C105.073 37.1339 104.806 36.9717 104.538 36.7013C104.271 36.4309 104.11 36.1064 103.95 35.7819C103.843 35.4574 103.789 35.0789 103.789 34.6462ZM105.448 34.6462C105.448 34.8625 105.501 35.0789 105.555 35.2952C105.608 35.5115 105.715 35.6738 105.876 35.7819C106.036 35.9442 106.143 35.9982 106.357 36.1064C106.518 36.1605 106.732 36.2146 106.946 36.2146C107.16 36.2146 107.32 36.1605 107.534 36.1064C107.695 36.0523 107.855 35.9442 108.016 35.7819C108.123 35.6197 108.23 35.4574 108.337 35.2952C108.391 35.0789 108.444 34.8625 108.444 34.6462C108.444 34.4299 108.391 34.2136 108.337 33.9973C108.284 33.7809 108.177 33.6187 108.016 33.5105C107.855 33.3483 107.748 33.2942 107.534 33.186C107.374 33.132 107.16 33.0779 106.946 33.0779C106.732 33.0779 106.518 33.132 106.357 33.186C106.197 33.2401 106.036 33.3483 105.876 33.5105C105.769 33.6728 105.662 33.835 105.555 33.9973C105.501 34.2136 105.448 34.4299 105.448 34.6462Z" fill="#DEE2E6"/>
<path d="M112.458 31.834H110.799V37.5125H112.458V31.834Z" fill="#DEE2E6"/>
<path d="M114.063 30.2656H115.24V31.834H116.845V33.2942H115.24V35.2952C115.24 35.4574 115.24 35.6196 115.294 35.7278C115.347 35.836 115.401 35.9441 115.454 35.9982C115.508 36.0523 115.615 36.1064 115.722 36.1605C115.829 36.1605 115.936 36.2145 116.043 36.2145H116.952V37.6206H115.882C115.561 37.6206 115.294 37.5666 114.973 37.5125C114.652 37.4584 114.438 37.3502 114.224 37.188C114.01 37.0258 113.849 36.8094 113.742 36.4849C113.635 36.1605 113.581 35.7819 113.581 35.3493V33.3482H112.672V32.0503L113.528 31.7258L114.063 30.2656Z" fill="#DEE2E6"/>
<path d="M117.059 34.6462C117.059 34.2136 117.112 33.835 117.273 33.4564C117.433 33.0779 117.594 32.7534 117.861 32.483C118.129 32.2126 118.45 31.9963 118.824 31.834C119.199 31.6718 119.627 31.6177 120.055 31.6177C120.429 31.6177 120.751 31.6718 121.072 31.7799C121.393 31.8881 121.607 32.0503 121.821 32.2126L121.874 31.7799H123.319V37.4584H121.874L121.821 37.0258C121.607 37.188 121.339 37.3503 121.072 37.4584C120.804 37.5666 120.429 37.6207 120.055 37.6207C119.573 37.6207 119.199 37.5666 118.824 37.4043C118.45 37.2421 118.129 37.0258 117.861 36.7554C117.594 36.485 117.38 36.1605 117.273 35.7819C117.112 35.4574 117.059 35.0789 117.059 34.6462ZM118.717 34.6462C118.717 34.8625 118.771 35.0789 118.824 35.2952C118.878 35.5115 118.985 35.6738 119.145 35.7819C119.306 35.9442 119.413 35.9982 119.627 36.1064C119.787 36.1605 120.001 36.2146 120.215 36.2146C120.43 36.2146 120.59 36.1605 120.804 36.1064C120.965 36.0523 121.125 35.9442 121.286 35.7819C121.446 35.6197 121.553 35.4574 121.607 35.2952C121.66 35.0789 121.714 34.8625 121.714 34.6462C121.714 34.4299 121.66 34.2136 121.607 33.9973C121.553 33.7809 121.446 33.6187 121.286 33.5105C121.125 33.3483 121.018 33.2942 120.804 33.186C120.644 33.132 120.43 33.0779 120.215 33.0779C120.001 33.0779 119.787 33.132 119.627 33.186C119.466 33.2401 119.306 33.3483 119.145 33.5105C119.038 33.6728 118.931 33.835 118.824 33.9973C118.771 34.2136 118.717 34.4299 118.717 34.6462Z" fill="#DEE2E6"/>
<path d="M124.066 29.7793H125.725V37.4588H124.066V29.7793Z" fill="#DEE2E6"/>
<path d="M128.348 28.5889H129.953V39.5673H128.348V28.5889Z" fill="#DEE2E6"/>
<path d="M138.834 34.6466C138.834 35.0792 138.781 35.4578 138.62 35.8364C138.46 36.2149 138.299 36.5394 138.032 36.8098C137.764 37.0802 137.443 37.2966 137.069 37.4588C136.694 37.6211 136.266 37.6751 135.838 37.6751C135.678 37.6751 135.464 37.6751 135.303 37.621C135.142 37.567 134.982 37.567 134.821 37.4588C134.661 37.4047 134.554 37.3506 134.393 37.2425C134.286 37.1884 134.126 37.0802 134.072 37.0262L134.019 37.4588H132.574V29.7793H134.233V32.1589C134.447 31.9966 134.661 31.8885 134.928 31.7803C135.196 31.6721 135.517 31.618 135.838 31.618C136.32 31.618 136.694 31.6721 137.069 31.8344C137.443 31.9966 137.764 32.2129 137.978 32.4833C138.192 32.7538 138.406 33.0782 138.567 33.4568C138.727 33.8354 138.834 34.2139 138.834 34.6466ZM137.176 34.6466C137.176 34.4303 137.122 34.214 137.069 33.9976C137.015 33.7813 136.908 33.619 136.748 33.5109C136.641 33.3486 136.48 33.2946 136.266 33.1864C136.106 33.1323 135.892 33.0782 135.678 33.0782C135.464 33.0782 135.303 33.1323 135.089 33.1864C134.928 33.2405 134.768 33.3486 134.607 33.5109C134.447 33.6731 134.34 33.8354 134.286 33.9976C134.233 34.214 134.179 34.3762 134.179 34.6466C134.179 34.8629 134.233 35.0792 134.286 35.2956C134.34 35.5119 134.447 35.6741 134.607 35.7823C134.768 35.9445 134.875 35.9986 135.089 36.1068C135.303 36.2149 135.464 36.2149 135.678 36.2149C135.892 36.2149 136.052 36.1609 136.266 36.1068C136.48 36.0527 136.587 35.9445 136.748 35.7823C136.908 35.6201 137.015 35.4578 137.069 35.2956C137.122 35.0792 137.176 34.8629 137.176 34.6466Z" fill="#DEE2E6"/>
<path d="M143.115 33.2942H142.42C141.938 33.2942 141.617 33.4023 141.35 33.6727C141.082 33.9431 140.975 34.3217 140.975 34.8625V37.5125H139.316V31.834H140.654L140.761 32.3748C140.922 32.2126 141.136 32.1044 141.403 31.9962C141.671 31.8881 141.938 31.834 142.313 31.834H143.115V33.2942Z" fill="#DEE2E6"/>
<path d="M143.008 34.6462C143.008 34.2136 143.061 33.835 143.222 33.4564C143.382 33.0779 143.543 32.7534 143.81 32.483C144.078 32.2126 144.399 31.9963 144.773 31.834C145.148 31.6718 145.576 31.6177 146.004 31.6177C146.379 31.6177 146.7 31.6718 147.021 31.7799C147.342 31.8881 147.556 32.0503 147.77 32.2126L147.823 31.7799H149.268V37.4584H147.823L147.77 37.0258C147.556 37.188 147.288 37.3503 147.021 37.4584C146.753 37.5666 146.379 37.6207 146.004 37.6207C145.523 37.6207 145.148 37.5666 144.773 37.4044C144.399 37.2421 144.078 37.0258 143.81 36.7554C143.543 36.485 143.329 36.1605 143.222 35.7819C143.061 35.4574 143.008 35.0789 143.008 34.6462ZM144.667 34.6462C144.667 34.8625 144.72 35.0789 144.773 35.2952C144.827 35.5115 144.934 35.6738 145.095 35.7819C145.255 35.9442 145.362 35.9982 145.576 36.1064C145.737 36.1605 145.951 36.2146 146.165 36.2146C146.379 36.2146 146.539 36.1605 146.753 36.1064C146.914 36.0523 147.074 35.9442 147.235 35.7819C147.395 35.6197 147.502 35.4574 147.556 35.2952C147.609 35.0789 147.663 34.8625 147.663 34.6462C147.663 34.4299 147.609 34.2136 147.556 33.9973C147.502 33.7809 147.395 33.6187 147.235 33.5105C147.074 33.3483 146.967 33.2942 146.753 33.186C146.593 33.132 146.379 33.0779 146.165 33.0779C145.951 33.0779 145.737 33.132 145.576 33.186C145.416 33.2401 145.255 33.3483 145.095 33.5105C144.988 33.6728 144.88 33.835 144.773 33.9973C144.72 34.2136 144.667 34.4299 144.667 34.6462Z" fill="#DEE2E6"/>
<path d="M155.796 37.4581H154.137V34.4836C154.137 34.2132 154.084 33.9969 154.03 33.8346C153.977 33.6724 153.923 33.5101 153.816 33.402C153.709 33.2938 153.602 33.2397 153.442 33.1857C153.281 33.1316 153.174 33.1316 153.014 33.1316C152.8 33.1316 152.639 33.1857 152.479 33.2397C152.318 33.2938 152.158 33.402 152.051 33.5642C151.944 33.7265 151.837 33.8887 151.783 34.0509C151.73 34.2673 151.676 34.4295 151.676 34.6458V37.5121H150.018V31.8336H151.355L151.462 32.2663C151.569 32.2122 151.73 32.104 151.837 32.05C151.944 31.9959 152.104 31.8877 152.265 31.8336C152.425 31.7796 152.586 31.7255 152.746 31.7255C152.907 31.6714 153.067 31.6714 153.228 31.6714C153.656 31.6714 154.084 31.7255 154.405 31.8877C154.726 32.05 154.994 32.2122 155.208 32.4285C155.422 32.6448 155.582 32.9693 155.636 33.2938C155.743 33.6183 155.796 34.051 155.796 34.4836V37.4581Z" fill="#DEE2E6"/>
<path d="M156.117 34.6466C156.117 34.2139 156.171 33.8354 156.331 33.4568C156.492 33.0782 156.652 32.7538 156.92 32.4833C157.187 32.2129 157.508 31.9966 157.829 31.8344C158.204 31.6721 158.632 31.618 159.06 31.618C159.381 31.618 159.702 31.6721 159.97 31.7803C160.237 31.8885 160.451 31.9966 160.665 32.1589V29.7793H162.324V37.4588H160.879L160.772 36.9721C160.558 37.1343 160.291 37.2966 160.023 37.4588C159.756 37.567 159.381 37.6751 159.06 37.6751C158.578 37.6751 158.204 37.6211 157.829 37.4588C157.455 37.2966 157.134 37.0802 156.866 36.8098C156.599 36.5394 156.385 36.2149 156.278 35.8364C156.224 35.4578 156.117 35.0792 156.117 34.6466ZM157.829 34.6466C157.829 34.8629 157.883 35.0792 157.936 35.2956C157.99 35.5119 158.097 35.6741 158.257 35.7823C158.418 35.9445 158.525 36.0527 158.739 36.1068C158.899 36.1609 159.113 36.2149 159.328 36.2149C159.542 36.2149 159.702 36.1609 159.916 36.1068C160.13 36.0527 160.237 35.9445 160.398 35.7823C160.558 35.6201 160.665 35.4578 160.719 35.2956C160.772 35.0792 160.826 34.8629 160.826 34.6466C160.826 34.4303 160.772 34.214 160.719 33.9976C160.665 33.7813 160.558 33.619 160.398 33.5109C160.237 33.3486 160.13 33.2946 159.916 33.1864C159.702 33.0782 159.542 33.0782 159.328 33.0782C159.113 33.0782 158.899 33.1323 158.739 33.1864C158.578 33.2405 158.418 33.3486 158.257 33.5109C158.15 33.6731 158.043 33.8354 157.936 33.9976C157.829 34.214 157.829 34.4303 157.829 34.6466Z" fill="#DEE2E6"/>
<path d="M164.838 31.834H163.18V37.5125H164.838V31.834Z" fill="#DEE2E6"/>
<path d="M171.474 37.4581H169.815V34.4836C169.815 34.2132 169.762 33.9969 169.708 33.8346C169.655 33.6724 169.601 33.5102 169.494 33.402C169.387 33.2938 169.28 33.2397 169.12 33.1857C168.959 33.1316 168.852 33.1316 168.692 33.1316C168.478 33.1316 168.317 33.1857 168.157 33.2397C167.996 33.2938 167.836 33.402 167.729 33.5642C167.622 33.7265 167.515 33.8887 167.461 34.051C167.408 34.2673 167.354 34.4295 167.354 34.6458V37.5122H165.695V31.8336H167.033L167.14 32.2663C167.247 32.2122 167.407 32.104 167.515 32.05C167.622 31.9959 167.782 31.8877 167.943 31.8336C168.103 31.7796 168.264 31.7255 168.424 31.7255C168.585 31.6714 168.745 31.6714 168.906 31.6714C169.334 31.6714 169.762 31.7255 170.083 31.8877C170.404 32.05 170.671 32.2122 170.885 32.4285C171.099 32.6448 171.26 32.9693 171.313 33.2938C171.42 33.6183 171.474 34.051 171.474 34.4836V37.4581Z" fill="#DEE2E6"/>
<path d="M171.795 34.6462C171.795 34.2136 171.848 33.835 172.009 33.4564C172.169 33.0779 172.33 32.7534 172.598 32.483C172.865 32.2126 173.186 31.9963 173.561 31.834C173.935 31.6718 174.363 31.6177 174.791 31.6177C175.005 31.6177 175.166 31.6177 175.326 31.6718C175.487 31.7258 175.647 31.7799 175.808 31.834C175.968 31.8881 176.075 31.9422 176.236 32.0503C176.343 32.1044 176.503 32.2126 176.557 32.3207L176.664 31.834H178.002V37.0799C178.002 37.5125 177.948 37.8911 177.788 38.2697C177.627 38.6482 177.467 38.9186 177.199 39.189C176.931 39.4594 176.61 39.6217 176.236 39.7839C175.861 39.9462 175.433 40.0002 174.952 40.0002C174.631 40.0002 174.31 39.9462 174.042 39.8921C173.775 39.838 173.507 39.7298 173.347 39.6217C173.186 39.5135 172.972 39.4053 172.812 39.2431C172.651 39.0809 172.544 38.9186 172.437 38.7564C172.33 38.5941 172.276 38.4319 172.223 38.2156C172.169 37.9992 172.116 37.837 172.116 37.6748H173.721C173.775 37.7829 173.828 37.8911 173.882 37.9992C173.935 38.1074 174.042 38.1615 174.149 38.2697C174.256 38.3778 174.363 38.3778 174.524 38.4319C174.684 38.486 174.845 38.486 175.005 38.486C175.273 38.486 175.54 38.4319 175.701 38.3237C175.861 38.2156 176.022 38.1074 176.129 37.9452C176.236 37.7829 176.289 37.6748 176.343 37.5125C176.396 37.3503 176.396 37.188 176.396 37.0799V36.9176C176.182 37.0799 175.915 37.2421 175.647 37.3503C175.38 37.4584 175.005 37.5125 174.631 37.5125C174.203 37.5125 173.828 37.4584 173.454 37.2962C173.079 37.1339 172.812 36.9717 172.544 36.7013C172.276 36.4309 172.116 36.1064 171.955 35.7819C171.848 35.4574 171.795 35.0789 171.795 34.6462ZM173.454 34.6462C173.454 34.8625 173.507 35.0789 173.561 35.2952C173.614 35.5115 173.721 35.6738 173.882 35.7819C174.042 35.9442 174.149 35.9982 174.363 36.1064C174.524 36.1605 174.738 36.2146 174.952 36.2146C175.166 36.2146 175.326 36.1605 175.54 36.1064C175.701 36.0523 175.861 35.9442 176.022 35.7819C176.129 35.6197 176.236 35.4574 176.343 35.2952C176.396 35.0789 176.45 34.8625 176.45 34.6462C176.45 34.4299 176.396 34.2136 176.343 33.9973C176.289 33.7809 176.182 33.6187 176.022 33.5105C175.861 33.3483 175.754 33.2942 175.54 33.186C175.38 33.132 175.166 33.0779 174.952 33.0779C174.738 33.0779 174.524 33.132 174.363 33.186C174.203 33.2401 174.042 33.3483 173.882 33.5105C173.775 33.6728 173.668 33.835 173.561 33.9973C173.507 34.2136 173.454 34.4299 173.454 34.6462Z" fill="#DEE2E6"/>
<path d="M103.307 29.7793H101.648V31.4558H103.307V29.7793Z" fill="#DEE2E6"/>
<path d="M112.458 29.7793H110.799V31.4558H112.458V29.7793Z" fill="#DEE2E6"/>
<path d="M164.838 29.7793H163.18V31.4558H164.838V29.7793Z" fill="#DEE2E6"/>
</svg>
