<svg width="196" height="28" viewBox="0 0 196 28" fill="none" xmlns="http://www.w3.org/2000/svg">
<g clip-path="url(#clip0_66_5677)">
<path d="M12.8726 7.09814C12.7699 6.34031 12.5578 5.60948 12.2459 4.9382C11.9765 4.36122 11.6133 3.8543 11.1776 3.4472C10.7533 3.04851 10.2702 2.74851 9.75316 2.56282C9.18893 2.36459 8.60356 2.26528 8.01542 2.26801C7.43204 2.26589 6.85096 2.35548 6.28717 2.53447C5.7548 2.70916 5.25525 3.00356 4.8153 3.40185C4.39206 3.78679 4.04513 4.27846 3.79924 4.84182C3.53594 5.50136 3.4074 6.22606 3.42415 6.95641C3.40785 7.62279 3.56186 8.27928 3.86571 8.83857C4.18409 9.3829 4.58901 9.84713 5.05744 10.2048C5.59468 10.6172 6.16581 10.963 6.76196 11.2366C7.40768 11.5428 8.07239 11.8432 8.7656 12.1494C9.53951 12.5009 10.3087 12.875 11.0826 13.2832C11.8225 13.6693 12.5182 14.1665 13.1527 14.7628C13.7585 15.3351 14.2622 16.0464 14.634 16.8548C15.0358 17.7936 15.2288 18.84 15.1943 19.8935C15.2085 20.8428 15.0798 21.7875 14.8144 22.6827C14.5766 23.4574 14.2226 24.1738 13.77 24.7973C13.3243 25.3964 12.8018 25.9073 12.2221 26.3109C11.6215 26.7253 10.9846 27.0599 10.3229 27.3087C9.6291 27.5639 8.91708 27.7423 8.19584 27.8416C7.4696 27.9474 6.73866 28.0005 6.00703 28.0004C5.14685 28.0005 4.28746 27.9381 3.43365 27.8133C2.5752 27.6923 1.72258 27.5182 0.879254 27.2916C0.769868 27.2685 0.670741 27.2003 0.599125 27.0989C0.535449 27.0122 0.492772 26.9064 0.475679 26.7928C0.475679 26.4697 0.428199 26.0048 0.404459 25.3868C0.38072 24.769 0.352232 24.1397 0.33324 23.5046C0.314248 22.8697 0.300004 22.2858 0.285761 21.7699C0.271516 21.254 0.285761 20.9479 0.285761 20.8515L1.23535 20.7438C1.30458 21.5747 1.51286 22.3806 1.84783 23.1136C2.14209 23.76 2.54642 24.3259 3.03482 24.7746C3.53163 25.2145 4.09396 25.5378 4.69185 25.727C5.34973 25.9385 6.02844 26.0434 6.70973 26.0388C7.33974 26.0405 7.96769 25.953 8.58043 25.778C9.15347 25.6195 9.69737 25.3371 10.1852 24.9447C10.6549 24.5585 11.042 24.0457 11.3153 23.4481C11.6112 22.7679 11.7566 22.0087 11.7378 21.2427C11.7552 20.5921 11.6007 19.9514 11.2962 19.4115C10.9734 18.8831 10.5709 18.4313 10.1093 18.0793C9.57289 17.6577 9.00366 17.2988 8.40949 17.0078C7.77802 16.7017 7.11806 16.3898 6.43435 16.0724C5.66518 15.6945 4.89443 15.3033 4.1221 14.899C3.38135 14.496 2.68588 13.9836 2.052 13.3739C1.44001 12.7829 0.9345 12.0501 0.56589 11.2196C0.166527 10.2593 -0.0275785 9.19591 0.00088377 8.12426C-0.0403621 6.81999 0.21563 5.52681 0.741563 4.38262C1.21592 3.40054 1.88216 2.57001 2.68347 1.96188C3.52429 1.337 4.45218 0.897283 5.42304 0.663641C6.44999 0.402376 7.49718 0.271259 8.54718 0.272469C9.32211 0.279803 10.0959 0.344175 10.8642 0.46522C11.655 0.584793 12.4397 0.757026 13.2144 0.981114C13.3229 1.00723 13.4213 1.0749 13.4946 1.17386C13.5609 1.25844 13.604 1.36529 13.618 1.48C13.6465 1.79747 13.6702 2.25101 13.6987 2.81792C13.7272 3.38484 13.77 3.96877 13.77 4.53568C13.77 5.1026 13.8174 5.66951 13.8269 6.12305C13.8364 6.57658 13.8506 6.87704 13.8506 6.96208L12.8726 7.09814Z" fill="#EE3524"/>
<path d="M22.7922 1.21057C23.4902 1.06317 24.1454 0.927108 24.7721 0.825063C25.3988 0.723018 25.9686 0.637981 26.4481 0.56995L27.6494 0.433891C27.9722 0.405545 28.1812 0.388537 28.2666 0.388537C28.3514 0.373918 28.4377 0.383295 28.5189 0.415917C28.6 0.448537 28.6736 0.503484 28.7337 0.576322C28.7938 0.649159 28.8386 0.737845 28.8648 0.835218C28.8909 0.932591 28.8973 1.03592 28.8838 1.13687V13.3255L38.3797 1.56772C38.6138 1.24996 38.9209 1.02128 39.2628 0.9101C39.4667 0.838171 39.6746 0.783236 39.8848 0.745695C40.127 0.706011 40.3596 0.677665 40.6255 0.666326L41.3092 0.626642H41.7841C41.8402 0.621069 41.8969 0.62981 41.9501 0.652287C42.0033 0.674764 42.0519 0.710466 42.0927 0.757034C42.1538 0.833296 42.1878 0.934897 42.1876 1.04049C42.1886 1.10003 42.1789 1.15914 42.1593 1.21388C42.1396 1.26862 42.1104 1.31774 42.0736 1.35797L32.5445 12.0046L42.7811 26.648C42.8275 26.7221 42.8598 26.8072 42.8761 26.8976C42.8754 26.9518 42.8649 27.0053 42.8452 27.0543C42.8255 27.1032 42.7972 27.1464 42.7621 27.181C42.6806 27.2686 42.5803 27.3274 42.4725 27.3511C42.2541 27.4021 41.9977 27.4417 41.6321 27.4815C41.2665 27.5212 40.9531 27.5495 40.6113 27.5722C40.2695 27.5949 39.9656 27.6062 39.6902 27.6118H39.1394C39.0018 27.6205 38.8646 27.5888 38.7397 27.5197C38.6147 27.4505 38.5059 27.3459 38.4225 27.215L28.8838 13.3312V26.7218C28.8926 26.8022 28.887 26.8839 28.8671 26.9614C28.8472 27.039 28.8137 27.1105 28.7687 27.1712C28.7236 27.232 28.6682 27.2804 28.6062 27.3134C28.5442 27.3464 28.4769 27.3631 28.409 27.3624C28.1907 27.4135 27.9342 27.4532 27.6873 27.4928C27.4405 27.5325 27.1651 27.5608 26.9134 27.5835C26.6618 27.6062 26.4386 27.6175 26.2203 27.6231H25.7455C25.6809 27.6347 25.6149 27.6279 25.553 27.6035C25.491 27.579 25.4346 27.5376 25.3885 27.4826C25.3423 27.4274 25.3076 27.3602 25.2871 27.2861C25.2666 27.2121 25.2611 27.1334 25.2707 27.0563V4.476C25.2806 4.12546 25.2437 3.77525 25.1615 3.43855C25.1076 3.1992 25.0029 2.9805 24.8576 2.80361C24.7242 2.65287 24.5607 2.54552 24.3828 2.4918C24.1783 2.42713 23.9675 2.39661 23.7561 2.40109C23.4735 2.4021 23.1914 2.42292 22.9109 2.46345L22.7922 1.21057Z" fill="#EE3524"/>
<path d="M49.5737 1.21057C50.2669 1.06317 50.9269 0.927108 51.5488 0.825063C52.1708 0.723018 52.7264 0.637981 53.2106 0.56995L54.4119 0.433891C54.7347 0.405545 54.9389 0.388537 55.0291 0.388537C55.1139 0.373918 55.2003 0.383295 55.2814 0.415917C55.3626 0.448537 55.4362 0.503484 55.4963 0.576322C55.5563 0.649159 55.6012 0.737845 55.6273 0.835218C55.6534 0.932591 55.6599 1.03592 55.6463 1.13687V26.7218C55.6552 26.8022 55.6494 26.8839 55.6295 26.9614C55.6097 27.039 55.5761 27.1105 55.5312 27.1712C55.4862 27.232 55.4308 27.2804 55.3688 27.3134C55.3067 27.3464 55.2394 27.3631 55.1716 27.3624C54.9531 27.4135 54.6968 27.4532 54.4451 27.4928C54.1935 27.5325 53.9276 27.5608 53.6759 27.5835C53.4243 27.6062 53.2011 27.6175 52.9875 27.6231H52.5127C52.4484 27.6335 52.3828 27.6258 52.3213 27.601C52.2598 27.5761 52.2039 27.5347 52.158 27.4799C52.112 27.425 52.0773 27.3583 52.0565 27.2848C52.0357 27.2113 52.0293 27.1331 52.0379 27.0563V4.476C52.0443 4.12602 52.0091 3.77673 51.9335 3.43855C51.8759 3.19977 51.7699 2.98166 51.6249 2.80361C51.4914 2.65308 51.3279 2.54576 51.1501 2.4918C50.9439 2.42788 50.7315 2.39737 50.5185 2.40109C50.2361 2.4021 49.9539 2.42292 49.6734 2.46345L49.5737 1.21057Z" fill="#EE3524"/>
<path d="M69.1554 0.000704095C69.2156 -0.00303259 69.2758 0.00813325 69.3321 0.0334996C69.3886 0.0588661 69.4399 0.0978846 69.4831 0.148103C69.559 0.250148 69.654 0.3692 69.7537 0.522267L83.0479 21.4528L82.5731 0.981469C82.5731 0.794387 82.6776 0.698011 82.877 0.686673C83.0764 0.675335 83.4183 0.590297 83.8266 0.544943C84.2349 0.49959 84.5768 0.476914 84.9376 0.476914C85.1465 0.476914 85.2462 0.590297 85.2462 0.822732L84.7714 23.0685V27.2467C84.7714 27.4281 84.667 27.5302 84.4628 27.5415C84.2587 27.5528 83.988 27.5925 83.6794 27.6152C83.3708 27.6378 83.1002 27.6152 82.8058 27.6152C82.711 27.6216 82.6167 27.594 82.5352 27.5359C82.4578 27.4613 82.3918 27.3711 82.3405 27.2694L68.9418 6.20277L69.4166 27.1786C69.4166 27.3658 69.3169 27.4622 69.1127 27.4735C68.9086 27.4848 68.562 27.5585 68.1631 27.5925C67.7643 27.6265 67.3987 27.6378 67.0759 27.6378C66.8718 27.6378 66.772 27.5189 66.772 27.292L67.2468 3.50991L65.6658 0.958793C65.6392 0.9258 65.6188 0.886579 65.6057 0.84363C65.5927 0.800681 65.5872 0.754948 65.5897 0.70935C65.5897 0.510929 65.7037 0.3692 65.9363 0.295501C66.169 0.221801 66.4112 0.210463 66.7246 0.170779C67.0379 0.131095 67.3703 0.0970799 67.6979 0.068734L68.5952 0.000704095C68.8659 0.000704095 69.07 0.000704095 69.1554 0.000704095Z" fill="#EE3524"/>
<path d="M121.648 1.57161C121.695 1.4031 121.779 1.25203 121.889 1.13289C122 1.01376 122.134 0.930571 122.279 0.891308C122.464 0.826624 122.651 0.777371 122.84 0.743909C123.049 0.704226 123.249 0.681549 123.433 0.664542L123.97 0.624858H124.34C124.564 0.624858 124.673 0.698556 124.673 0.834617C124.671 0.990601 124.643 1.14462 124.592 1.28815L116.696 27.1565C116.664 27.2716 116.61 27.3763 116.54 27.4627C116.49 27.5153 116.429 27.5506 116.363 27.5648L115.917 27.6157L115.362 27.6611C115.168 27.6611 114.986 27.6895 114.806 27.6895H114.379C114.299 27.6883 114.222 27.6651 114.151 27.6215C114.106 27.5882 114.068 27.5443 114.038 27.4928C114.007 27.4411 113.986 27.3826 113.976 27.3209L109.427 10.6593L104.555 27.1565C104.522 27.2705 104.468 27.3748 104.398 27.4627C104.348 27.5144 104.289 27.5496 104.223 27.5648L103.777 27.6157L103.221 27.6611C103.026 27.6611 102.841 27.6895 102.666 27.6895H102.238C102.159 27.6877 102.082 27.6645 102.011 27.6215C101.92 27.5534 101.855 27.4455 101.83 27.3209L95.5534 4.17376C95.4321 3.59511 95.147 3.08438 94.7463 2.72812C94.4133 2.49182 94.0321 2.37017 93.6448 2.37662C93.5135 2.36519 93.3818 2.36519 93.2507 2.37662C93.113 2.37662 92.9705 2.41064 92.8139 2.43899L92.7 1.1861C93.2649 1.04438 93.8347 0.930992 94.4092 0.828948C94.9836 0.726903 95.4965 0.647535 95.9713 0.585174L97.1868 0.420767C97.5238 0.386753 97.7327 0.364077 97.823 0.364077C97.9064 0.359234 97.9897 0.376552 98.0666 0.414783C98.144 0.453016 98.2136 0.51121 98.2695 0.585174C98.3881 0.761181 98.4723 0.966435 98.5164 1.1861L104.214 22.2243H104.29L108.492 7.14439L106.92 1.39587C106.893 1.32482 106.883 1.24699 106.889 1.16965C106.894 1.09232 106.917 1.01801 106.953 0.953669C107.014 0.843563 107.107 0.764674 107.214 0.732572C107.693 0.616453 108.176 0.531293 108.662 0.477459C109.19 0.415098 109.612 0.386753 109.968 0.386753C110.105 0.3728 110.242 0.419169 110.353 0.517143C110.444 0.627872 110.512 0.764327 110.548 0.913985L116.397 22.4569H116.483L121.648 1.57161Z" fill="#EE3524"/>
<path d="M137.639 23.8116C137.635 24.0976 137.646 24.3835 137.672 24.6677C137.677 24.8428 137.729 25.0116 137.819 25.1495C137.934 25.2774 138.081 25.3537 138.238 25.365C138.505 25.3989 138.775 25.414 139.044 25.4104H141.532C142.557 25.4104 143.393 25.4104 144.039 25.331C144.609 25.3025 145.167 25.1243 145.673 24.8095C146.163 24.466 146.571 23.9781 146.86 23.3921C147.299 22.5108 147.683 21.5917 148.008 20.6426L148.958 20.892C148.958 20.9997 148.924 21.2719 148.868 21.7141C148.811 22.1562 148.754 22.6778 148.664 23.2447C148.574 23.8116 148.469 24.4296 148.355 25.0419C148.241 25.6541 148.123 26.1757 148.008 26.6405C147.943 26.8763 147.815 27.0799 147.644 27.2203C147.472 27.3606 147.266 27.4298 147.058 27.4172H145.359H143.175H140.592H137.71H134.51C134.44 27.4282 134.369 27.416 134.305 27.3821C134.24 27.348 134.184 27.2935 134.144 27.2245C134.086 27.1116 134.054 26.9827 134.049 26.8503V4.84261C134.049 4.06027 133.897 3.55005 133.608 3.30061C133.283 3.04153 132.898 2.90886 132.506 2.92078C132.23 2.92124 131.954 2.94397 131.68 2.9888L131.562 1.73592C131.832 1.67355 132.226 1.59418 132.739 1.50349L134.367 1.23136C134.928 1.14065 135.464 1.06695 135.986 1.00459C136.509 0.942233 136.913 0.913887 137.207 0.913887H144.224H145.591L147.173 0.879873C147.214 0.873582 147.257 0.877481 147.298 0.891334C147.339 0.905187 147.376 0.928708 147.409 0.960484C147.442 0.992258 147.469 1.03163 147.489 1.07623C147.508 1.12083 147.521 1.16975 147.524 1.22002C147.524 1.42979 147.552 1.71324 147.567 2.06472C147.581 2.41622 147.604 2.79605 147.609 3.19856C147.614 3.60107 147.647 4.03193 147.662 4.45144C147.676 4.87096 147.695 5.27348 147.714 5.64197C147.733 6.01047 147.738 6.3166 147.743 6.57739C147.747 6.83816 147.743 6.9969 147.743 7.05926L146.793 7.17265C146.635 6.31511 146.413 5.47642 146.128 4.66688C145.953 4.14215 145.655 3.68922 145.269 3.36297C144.871 3.06601 144.417 2.89616 143.949 2.86975C143.412 2.81873 142.729 2.79038 141.879 2.79038H138.488C138.271 2.79038 138.104 2.79038 138.014 2.79038C137.925 2.79992 137.841 2.84143 137.772 2.90944C137.716 2.97954 137.685 3.07325 137.687 3.17022C137.687 3.28927 137.687 3.44233 137.687 3.64076V12.8815L140.583 12.7115L142.881 12.5697C143.527 12.5414 144.054 12.5073 144.453 12.4847L145.179 12.445C145.544 12.445 145.72 12.6717 145.72 13.1309C145.721 13.4301 145.708 13.7292 145.682 14.0267C145.682 14.3272 145.625 14.656 145.583 15.0075L137.687 14.6786L137.639 23.8116Z" fill="#EE3524"/>
<path d="M161.954 23.8127C161.949 24.0986 161.961 24.3846 161.987 24.6688C161.991 24.8462 162.046 25.0165 162.143 25.1506C162.253 25.2835 162.401 25.3607 162.557 25.3661C162.825 25.4003 163.094 25.4154 163.364 25.4115H165.263C166.289 25.4115 167.129 25.4115 167.779 25.3207C168.359 25.2867 168.922 25.0927 169.427 24.7538C169.919 24.3879 170.328 23.8863 170.623 23.2912C171.067 22.4099 171.453 21.4887 171.778 20.536L172.726 20.7854C172.71 21.0669 172.68 21.347 172.636 21.6245C172.566 22.0837 172.484 22.6109 172.389 23.2061C172.295 23.8013 172.19 24.408 172.072 25.0316C171.953 25.6552 171.843 26.1937 171.725 26.6529C171.66 26.8887 171.532 27.0924 171.36 27.2326C171.189 27.373 170.983 27.4422 170.775 27.4297C169.826 27.4297 168.61 27.3956 167.177 27.3786C165.743 27.3617 164.024 27.3786 162.001 27.3786H158.81C158.74 27.3907 158.668 27.379 158.603 27.345C158.537 27.3109 158.481 27.2558 158.44 27.1858C158.378 27.0745 158.344 26.945 158.341 26.8117V4.47519C158.349 4.12549 158.315 3.77625 158.241 3.43773C158.182 3.19703 158.072 2.97839 157.923 2.80279C157.789 2.65247 157.626 2.54518 157.448 2.49098C157.243 2.42758 157.033 2.39707 156.821 2.40027C156.537 2.40129 156.254 2.4221 155.971 2.46264L155.853 1.20975C156.546 1.06236 157.206 0.926297 157.832 0.824252C158.46 0.722207 159.057 0.63717 159.533 0.569139L160.719 0.43308C161.042 0.404734 161.252 0.387726 161.342 0.387726C161.426 0.374091 161.511 0.384206 161.592 0.417265C161.673 0.450322 161.746 0.505408 161.805 0.578118C161.864 0.650828 161.909 0.739149 161.935 0.836026C161.961 0.932902 161.967 1.03565 161.954 1.13606V23.8127Z" fill="#EE3524"/>
<path d="M185.209 23.8101C185.207 24.0959 185.217 24.3818 185.242 24.6662C185.246 24.8425 185.3 25.012 185.394 25.148C185.506 25.2789 185.655 25.3557 185.811 25.3635C186.08 25.3977 186.349 25.4129 186.619 25.4089H188.518C189.543 25.4089 190.384 25.4089 191.029 25.3181C191.608 25.285 192.173 25.0909 192.677 24.7512C193.168 24.3854 193.579 23.8837 193.874 23.2886C194.317 22.4073 194.703 21.4861 195.027 20.5334L195.977 20.7828C195.96 21.0643 195.93 21.3445 195.887 21.6218C195.82 22.0811 195.74 22.6083 195.64 23.2035C195.54 23.7988 195.44 24.4054 195.321 25.029C195.203 25.6526 195.094 26.1911 194.979 26.6503C194.915 26.8861 194.786 27.0898 194.615 27.2301C194.443 27.3704 194.237 27.4396 194.03 27.4271C193.08 27.4271 191.87 27.393 190.431 27.376C188.992 27.359 187.278 27.376 185.261 27.376H182.061C181.99 27.387 181.92 27.3748 181.855 27.3408C181.79 27.3068 181.736 27.2523 181.694 27.1833C181.634 27.072 181.598 26.9425 181.595 26.8091V4.47262C181.603 4.12292 181.569 3.77367 181.495 3.43516C181.437 3.19591 181.329 2.9778 181.182 2.80021C181.048 2.65069 180.885 2.54351 180.708 2.48841C180.503 2.42445 180.292 2.39393 180.08 2.3977C179.796 2.3987 179.513 2.41953 179.231 2.46006L179.112 1.20717C179.815 1.05978 180.465 0.923718 181.092 0.821673C181.719 0.719628 182.288 0.63459 182.796 0.56656L184.002 0.4305C184.321 0.402155 184.529 0.385147 184.62 0.385147C184.702 0.375108 184.786 0.38797 184.864 0.422739C184.942 0.457507 185.012 0.513245 185.069 0.585625C185.125 0.658006 185.167 0.745081 185.192 0.840093C185.216 0.935106 185.222 1.0355 185.209 1.13348V23.8101Z" fill="#EE3524"/>
</g>
<defs>
<clipPath id="clip0_66_5677">
<rect width="196" height="28" fill="white"/>
</clipPath>
</defs>
</svg>
