<svg width="530" height="490" viewBox="0 0 530 490" fill="none" xmlns="http://www.w3.org/2000/svg">
<g style="mix-blend-mode:multiply">
<g style="mix-blend-mode:darken" opacity="0.5">
<rect x="163.333" y="122.5" width="40.8333" height="40.8333" transform="rotate(90 163.333 122.5)" fill="#E7E7E7"/>
<rect x="163.333" y="204.167" width="40.8333" height="40.8333" transform="rotate(90 163.333 204.167)" fill="white"/>
<rect x="81.667" y="40.8334" width="40.8333" height="40.8333" transform="rotate(90 81.667 40.8334)" fill="white"/>
<rect x="204.167" y="122.5" width="40.8333" height="40.8333" transform="rotate(90 204.167 122.5)" fill="#B0B0B0"/>
<rect x="81.667" y="122.5" width="40.8333" height="40.8333" transform="rotate(90 81.667 122.5)" fill="white"/>
<rect x="204.167" y="204.167" width="40.8333" height="40.8333" transform="rotate(90 204.167 204.167)" fill="white"/>
<rect x="122.5" y="122.5" width="40.8333" height="40.8333" transform="rotate(90 122.5 122.5)" fill="white"/>
<rect x="122.5" y="204.167" width="40.8333" height="40.8333" transform="rotate(90 122.5 204.167)" fill="white"/>
<rect x="40.833" y="204.167" width="40.8333" height="40.8333" transform="rotate(90 40.833 204.167)" fill="white"/>
<rect x="245" y="122.5" width="40.8333" height="40.8333" transform="rotate(90 245 122.5)" fill="white"/>
<rect x="245" y="81.6666" width="40.8333" height="40.8333" transform="rotate(90 245 81.6666)" fill="#B0B0B0"/>
<rect x="163.333" y="81.6666" width="40.8333" height="40.8333" transform="rotate(90 163.333 81.6666)" fill="white"/>
<rect x="163.333" y="163.333" width="40.8333" height="40.8333" transform="rotate(90 163.333 163.333)" fill="white"/>
<rect x="81.667" y="163.333" width="40.8333" height="40.8333" transform="rotate(90 81.667 163.333)" fill="white"/>
<rect x="204.167" y="163.333" width="40.8333" height="40.8333" transform="rotate(90 204.167 163.333)" fill="white"/>
</g>
<g style="mix-blend-mode:darken" opacity="0.5">
<rect x="245" y="245" width="40.8333" height="40.8333" transform="rotate(90 245 245)" fill="#E7E7E7"/>
<rect x="245" y="285.833" width="40.8333" height="40.8333" transform="rotate(90 245 285.833)" fill="white"/>
<rect x="163.333" y="285.833" width="40.8333" height="40.8333" transform="rotate(90 163.333 285.833)" fill="white"/>
<rect x="163.333" y="367.5" width="40.8333" height="40.8333" transform="rotate(90 163.333 367.5)" fill="#E7E7E7"/>
<rect x="163.333" y="449.167" width="40.8333" height="40.8333" transform="rotate(90 163.333 449.167)" fill="white"/>
<rect x="81.667" y="285.833" width="40.8333" height="40.8333" transform="rotate(90 81.667 285.833)" fill="white"/>
<rect x="81.667" y="449.167" width="40.8333" height="40.8333" transform="rotate(90 81.667 449.167)" fill="#E7E7E7"/>
<rect x="81.667" y="367.5" width="40.8333" height="40.8333" transform="rotate(90 81.667 367.5)" fill="white"/>
<rect x="204.167" y="449.167" width="40.8333" height="40.8333" transform="rotate(90 204.167 449.167)" fill="white"/>
<rect x="122.5" y="367.5" width="40.8333" height="40.8333" transform="rotate(90 122.5 367.5)" fill="white"/>
<rect x="122.5" y="449.167" width="40.8333" height="40.8333" transform="rotate(90 122.5 449.167)" fill="white"/>
<rect x="40.833" y="285.833" width="40.8333" height="40.8333" transform="rotate(90 40.833 285.833)" fill="white"/>
<rect x="40.833" y="449.167" width="40.8333" height="40.8333" transform="rotate(90 40.833 449.167)" fill="white"/>
<rect x="245" y="367.5" width="40.8333" height="40.8333" transform="rotate(90 245 367.5)" fill="white"/>
<rect x="245" y="408.333" width="40.8333" height="40.8333" transform="rotate(90 245 408.333)" fill="#B0B0B0"/>
<rect x="163.333" y="245" width="40.8333" height="40.8333" transform="rotate(90 163.333 245)" fill="#575757"/>
<rect x="163.333" y="326.667" width="40.8333" height="40.8333" transform="rotate(90 163.333 326.667)" fill="white"/>
<rect x="163.333" y="408.333" width="40.8333" height="40.8333" transform="rotate(90 163.333 408.333)" fill="white"/>
<rect x="81.667" y="245" width="40.8333" height="40.8333" transform="rotate(90 81.667 245)" fill="white"/>
<rect x="81.667" y="408.333" width="40.8333" height="40.8333" transform="rotate(90 81.667 408.333)" fill="white"/>
<rect x="204.167" y="245" width="40.8333" height="40.8333" transform="rotate(90 204.167 245)" fill="white"/>
<rect x="204.167" y="408.333" width="40.8333" height="40.8333" transform="rotate(90 204.167 408.333)" fill="white"/>
<rect x="122.5" y="245" width="40.8333" height="40.8333" transform="rotate(90 122.5 245)" fill="white"/>
<rect x="122.5" y="326.667" width="40.8333" height="40.8333" transform="rotate(90 122.5 326.667)" fill="#C4C4C4"/>
</g>
<g style="mix-blend-mode:darken" opacity="0.5">
<rect x="530" y="80.8334" width="40.8333" height="40.8333" transform="rotate(90 530 80.8334)" fill="white"/>
<rect x="448.334" y="80.8334" width="40.8333" height="40.8333" transform="rotate(90 448.334 80.8334)" fill="white"/>
<rect x="366.667" y="80.8334" width="40.8333" height="40.8333" transform="rotate(90 366.667 80.8334)" fill="#ABABAB"/>
<rect x="366.667" y="244.167" width="40.8333" height="40.8333" transform="rotate(90 366.667 244.167)" fill="#E7E7E7"/>
<rect x="366.667" y="162.5" width="40.8333" height="40.8333" transform="rotate(90 366.667 162.5)" fill="white"/>
<rect x="407.5" y="244.167" width="40.8333" height="40.8333" transform="rotate(90 407.5 244.167)" fill="white"/>
<rect x="325.833" y="80.8334" width="40.8333" height="40.8333" transform="rotate(90 325.833 80.8334)" fill="white"/>
<rect x="325.833" y="244.167" width="40.8333" height="40.8333" transform="rotate(90 325.833 244.167)" fill="white"/>
<rect x="530" y="162.5" width="40.8333" height="40.8333" transform="rotate(90 530 162.5)" fill="white"/>
<rect x="448.334" y="121.667" width="40.8333" height="40.8333" transform="rotate(90 448.334 121.667)" fill="white"/>
<rect x="448.334" y="203.333" width="40.8333" height="40.8333" transform="rotate(90 448.334 203.333)" fill="white"/>
<rect x="366.667" y="203.333" width="40.8333" height="40.8333" transform="rotate(90 366.667 203.333)" fill="white"/>
<rect x="489.166" y="203.333" width="40.8333" height="40.8333" transform="rotate(90 489.166 203.333)" fill="white"/>
</g>
</g>
</svg>
