<svg width="149" height="428" viewBox="0 0 149 428" fill="none" xmlns="http://www.w3.org/2000/svg">
<g style="mix-blend-mode:multiply">
<g style="mix-blend-mode:darken" opacity="0.5">
<rect width="13.3579" height="13.3579" transform="matrix(-1 0 0 1 160.293 94.1504)" fill="#E7E7E7"/>
<rect width="13.3579" height="13.3579" transform="matrix(-1 0 0 1 146.936 94.1504)" fill="white"/>
<rect width="13.3579" height="13.3579" transform="matrix(-1 0 0 1 93.5039 94.1504)" fill="#575757"/>
<rect width="13.3579" height="13.3579" transform="matrix(-1 0 0 1 146.936 120.866)" fill="white"/>
<rect width="13.3579" height="13.3579" transform="matrix(-1 0 0 1 120.22 120.866)" fill="#E7E7E7"/>
<rect width="13.3579" height="13.3579" transform="matrix(-1 0 0 1 93.5039 120.866)" fill="white"/>
<rect width="13.3579" height="13.3579" transform="matrix(-1 0 0 1 146.936 147.582)" fill="white"/>
<rect width="13.3579" height="13.3579" transform="matrix(-1 0 0 1 120.22 107.508)" fill="#B0B0B0"/>
<rect width="13.3579" height="13.3579" transform="matrix(-1 0 0 1 146.936 107.508)" fill="#B0B0B0"/>
<rect width="13.3579" height="13.3579" transform="matrix(-1 0 0 1 120.22 147.582)" fill="white"/>
<rect width="13.3579" height="13.3579" transform="matrix(-1 0 0 1 93.5039 107.508)" fill="white"/>
<rect width="13.3579" height="13.3579" transform="matrix(-1 0 0 1 146.936 134.224)" fill="#B0B0B0"/>
<rect width="13.3579" height="13.3579" transform="matrix(-1 0 0 1 120.22 134.224)" fill="white"/>
<rect width="13.3579" height="13.3579" transform="matrix(-1 0 0 1 93.5039 134.224)" fill="white"/>
<rect width="13.3579" height="13.3579" transform="matrix(-1 0 0 1 146.936 160.939)" fill="white"/>
<rect width="13.3579" height="13.3579" transform="matrix(-1 0 0 1 93.5039 160.939)" fill="white"/>
<rect width="13.3579" height="13.3579" transform="matrix(-1 0 0 1 120.22 94.1504)" fill="white"/>
<rect width="13.3579" height="13.3579" transform="matrix(-1 0 0 1 133.577 94.1504)" fill="#B0B0B0"/>
<rect width="13.3579" height="13.3579" transform="matrix(-1 0 0 1 106.861 94.1504)" fill="#B0B0B0"/>
<rect width="13.3579" height="13.3579" transform="matrix(-1 0 0 1 160.293 120.866)" fill="#575757"/>
<rect width="13.3579" height="13.3579" transform="matrix(-1 0 0 1 133.577 120.866)" fill="white"/>
<rect width="13.3579" height="13.3579" transform="matrix(-1 0 0 1 106.861 120.866)" fill="white"/>
<rect width="13.3579" height="13.3579" transform="matrix(-1 0 0 1 160.293 147.582)" fill="white"/>
<rect width="13.3579" height="13.3579" transform="matrix(-1 0 0 1 106.861 147.582)" fill="white"/>
<rect width="13.3579" height="13.3579" transform="matrix(-1 0 0 1 160.293 107.508)" fill="white"/>
<rect width="13.3579" height="13.3579" transform="matrix(-1 0 0 1 133.577 107.508)" fill="#575757"/>
<rect width="13.3579" height="13.3579" transform="matrix(-1 0 0 1 106.861 107.508)" fill="white"/>
<rect width="13.3579" height="13.3579" transform="matrix(-1 0 0 1 160.293 134.224)" fill="white"/>
<rect width="13.3579" height="13.3579" transform="matrix(-1 0 0 1 133.577 134.224)" fill="#C4C4C4"/>
<rect width="13.3579" height="13.3579" transform="matrix(-1 0 0 1 160.293 160.939)" fill="#C4C4C4"/>
</g>
<g style="mix-blend-mode:darken" opacity="0.5">
<rect width="13.3579" height="13.3579" transform="matrix(-1 0 0 1 80.1465 94.1504)" fill="#E7E7E7"/>
<rect width="13.3579" height="13.3579" transform="matrix(-1 0 0 1 66.6787 94.1504)" fill="white"/>
<rect width="13.3579" height="13.3579" transform="matrix(-1 0 0 1 66.7891 120.866)" fill="white"/>
<rect width="13.3579" height="13.3579" transform="matrix(-1 0 0 1 40.0732 120.866)" fill="#E7E7E7"/>
<rect width="13.3579" height="13.3579" transform="matrix(-1 0 0 1 13.3574 120.866)" fill="white"/>
<rect width="13.3579" height="13.3579" transform="matrix(-1 0 0 1 66.7891 147.582)" fill="white"/>
<rect width="13.3579" height="13.3579" transform="matrix(-1 0 0 1 13.3574 147.582)" fill="#E7E7E7"/>
<rect width="13.3579" height="13.3579" transform="matrix(-1 0 0 1 40.0732 147.582)" fill="white"/>
<rect width="13.3579" height="13.3579" transform="matrix(-1 0 0 1 13.3574 107.508)" fill="white"/>
<rect width="13.3579" height="13.3579" transform="matrix(-1 0 0 1 40.0732 134.224)" fill="white"/>
<rect width="13.3579" height="13.3579" transform="matrix(-1 0 0 1 13.3574 134.224)" fill="white"/>
<rect width="13.3579" height="13.3579" transform="matrix(-1 0 0 1 66.7891 160.939)" fill="white"/>
<rect width="13.3579" height="13.3579" transform="matrix(-1 0 0 1 13.3574 160.939)" fill="white"/>
<rect width="13.3579" height="13.3579" transform="matrix(-1 0 0 1 40.0732 94.1504)" fill="white"/>
<rect width="13.3579" height="13.3579" transform="matrix(-1 0 0 1 26.7148 94.1504)" fill="#B0B0B0"/>
<rect width="13.3579" height="13.3579" transform="matrix(-1 0 0 1 80.1465 120.866)" fill="#575757"/>
<rect width="13.3579" height="13.3579" transform="matrix(-1 0 0 1 53.4307 120.866)" fill="white"/>
<rect width="13.3579" height="13.3579" transform="matrix(-1 0 0 1 26.7148 120.866)" fill="white"/>
<rect width="13.3579" height="13.3579" transform="matrix(-1 0 0 1 80.1465 147.582)" fill="white"/>
<rect width="13.3579" height="13.3579" transform="matrix(-1 0 0 1 26.7148 147.582)" fill="white"/>
<rect width="13.3579" height="13.3579" transform="matrix(-1 0 0 1 80.1465 107.508)" fill="white"/>
<rect width="13.3579" height="13.3579" transform="matrix(-1 0 0 1 13.3574 95)" fill="white"/>
<rect width="13.3579" height="13.3579" transform="matrix(-1 0 0 1 80.1465 134.224)" fill="white"/>
<rect width="13.3579" height="13.3579" transform="matrix(-1 0 0 1 53.4307 134.224)" fill="#C4C4C4"/>
</g>
<g style="mix-blend-mode:darken" opacity="0.5">
<rect width="13.3579" height="13.3579" transform="matrix(-1 0 0 1 147.209 0.917969)" fill="#E7E7E7"/>
<rect width="13.3579" height="13.3579" transform="matrix(-1 0 0 1 133.852 0.917969)" fill="white"/>
<rect width="13.3579" height="13.3579" transform="matrix(-1 0 0 1 80.4199 0.917969)" fill="#575757"/>
<rect width="13.3579" height="13.3579" transform="matrix(-1 0 0 1 133.852 27.6335)" fill="white"/>
<rect width="13.3579" height="13.3579" transform="matrix(-1 0 0 1 80.4199 27.6335)" fill="white"/>
<rect width="13.3579" height="13.3579" transform="matrix(-1 0 0 1 133.852 54.3494)" fill="#ABABAB"/>
<rect width="13.3579" height="13.3579" transform="matrix(-1 0 0 1 107.136 14.2759)" fill="#B0B0B0"/>
<rect width="13.3579" height="13.3579" transform="matrix(-1 0 0 1 80.4199 54.3494)" fill="#E7E7E7"/>
<rect width="13.3579" height="13.3579" transform="matrix(-1 0 0 1 133.852 14.2759)" fill="#B0B0B0"/>
<rect width="13.3579" height="13.3579" transform="matrix(-1 0 0 1 107.136 54.3494)" fill="white"/>
<rect width="13.3579" height="13.3579" transform="matrix(-1 0 0 1 80.4199 14.2759)" fill="white"/>
<rect width="13.3579" height="13.3579" transform="matrix(-1 0 0 1 80.4199 40.9915)" fill="white"/>
<rect width="13.3579" height="13.3579" transform="matrix(-1 0 0 1 133.852 67.707)" fill="white"/>
<rect width="13.3579" height="13.3579" transform="matrix(-1 0 0 1 80.4199 67.707)" fill="white"/>
<rect width="13.3579" height="13.3579" transform="matrix(-1 0 0 1 107.136 0.917969)" fill="white"/>
<rect width="13.3579" height="13.3579" transform="matrix(-1 0 0 1 120.493 0.917969)" fill="#B0B0B0"/>
<rect width="13.3579" height="13.3579" transform="matrix(-1 0 0 1 93.7773 0.917969)" fill="#B0B0B0"/>
<rect width="13.3579" height="13.3579" transform="matrix(-1 0 0 1 120.493 27.6335)" fill="white"/>
<rect width="13.3579" height="13.3579" transform="matrix(-1 0 0 1 93.7773 27.6335)" fill="white"/>
<rect width="13.3579" height="13.3579" transform="matrix(-1 0 0 1 147.209 54.3494)" fill="white"/>
<rect width="13.3579" height="13.3579" transform="matrix(-1 0 0 1 93.7773 54.3494)" fill="white"/>
<rect width="13.3579" height="13.3579" transform="matrix(-1 0 0 1 147.209 14.2759)" fill="white"/>
<rect width="13.3579" height="13.3579" transform="matrix(-1 0 0 1 120.493 14.2759)" fill="#575757"/>
<rect width="13.3579" height="13.3579" transform="matrix(-1 0 0 1 93.7773 14.2759)" fill="white"/>
<rect width="13.3579" height="13.3579" transform="matrix(-1 0 0 1 147.209 40.9915)" fill="white"/>
<rect width="13.3579" height="13.3579" transform="matrix(-1 0 0 1 147.209 67.707)" fill="#C4C4C4"/>
<rect width="13.3579" height="13.3579" transform="matrix(-1 0 0 1 93.7773 67.707)" fill="#C4C4C4"/>
</g>
</g>
</svg>
