<svg width="32" height="32" viewBox="0 0 32 32" fill="none" xmlns="http://www.w3.org/2000/svg">
<path fill-rule="evenodd" clip-rule="evenodd" d="M16 0C7.16344 0 0 7.16344 0 16C0 24.8366 7.16344 32 16 32C24.8366 32 32 24.8366 32 16C32 7.16344 24.8366 0 16 0ZM12.4822 7.51822C13.3924 7.4768 13.6833 7.46667 16.0008 7.46667H15.9981C18.3164 7.46667 18.6062 7.4768 19.5164 7.51822C20.4248 7.55982 21.0453 7.70365 21.5893 7.91467C22.1511 8.13245 22.6258 8.42401 23.1004 8.89868C23.5751 9.373 23.8667 9.84909 24.0853 10.4103C24.2951 10.9529 24.4391 11.573 24.4818 12.4815C24.5227 13.3917 24.5333 13.6826 24.5333 16.0001C24.5333 18.3176 24.5227 18.6078 24.4818 19.518C24.4391 20.4261 24.2951 21.0464 24.0853 21.5891C23.8667 22.1502 23.5751 22.6263 23.1004 23.1006C22.6263 23.5753 22.1509 23.8675 21.5898 24.0855C21.0469 24.2965 20.4261 24.4404 19.5176 24.482C18.6074 24.5234 18.3174 24.5335 15.9997 24.5335C13.6824 24.5335 13.3917 24.5234 12.4815 24.482C11.5732 24.4404 10.9529 24.2965 10.41 24.0855C9.84909 23.8675 9.373 23.5753 8.89886 23.1006C8.42437 22.6263 8.13281 22.1502 7.91467 21.5889C7.70382 21.0464 7.56 20.4263 7.51822 19.5178C7.47698 18.6076 7.46667 18.3176 7.46667 16.0001C7.46667 13.6826 7.47733 13.3915 7.51804 12.4813C7.55893 11.5732 7.70294 10.9529 7.91449 10.4102C8.13316 9.84909 8.42472 9.373 8.89939 8.89868C9.37371 8.42419 9.8498 8.13263 10.4111 7.91467C10.9536 7.70365 11.5737 7.55982 12.4822 7.51822Z" fill="white"/>
<path fill-rule="evenodd" clip-rule="evenodd" d="M15.236 9.00445C15.3846 9.00422 15.5445 9.00429 15.7171 9.00437L16.0015 9.00445C18.2799 9.00445 18.55 9.01263 19.4497 9.05352C20.2817 9.09156 20.7333 9.23059 21.0341 9.34739C21.4323 9.50206 21.7162 9.68695 22.0147 9.98562C22.3134 10.2843 22.4983 10.5687 22.6533 10.967C22.7701 11.2674 22.9093 11.719 22.9472 12.551C22.988 13.4505 22.9969 13.7208 22.9969 15.9981C22.9969 18.2755 22.988 18.5457 22.9472 19.4453C22.9091 20.2773 22.7701 20.7288 22.6533 21.0293C22.4986 21.4275 22.3134 21.7111 22.0147 22.0096C21.716 22.3082 21.4325 22.4931 21.0341 22.6478C20.7336 22.7651 20.2817 22.9038 19.4497 22.9418C18.5501 22.9827 18.2799 22.9916 16.0015 22.9916C13.7229 22.9916 13.4528 22.9827 12.5533 22.9418C11.7213 22.9034 11.2697 22.7644 10.9687 22.6476C10.5705 22.4929 10.2861 22.3081 9.98738 22.0094C9.68871 21.7107 9.50382 21.427 9.3488 21.0286C9.232 20.7281 9.09279 20.2766 9.05493 19.4446C9.01404 18.545 9.00586 18.2748 9.00586 15.996C9.00586 13.7172 9.01404 13.4484 9.05493 12.5488C9.09297 11.7168 9.232 11.2653 9.3488 10.9645C9.50346 10.5662 9.68871 10.2818 9.98738 9.98313C10.2861 9.68446 10.5705 9.49957 10.9687 9.34455C11.2695 9.22721 11.7213 9.08854 12.5533 9.05032C13.3405 9.01476 13.6456 9.0041 15.236 9.00232V9.00445ZM20.5566 10.4214C19.9912 10.4214 19.5325 10.8795 19.5325 11.445C19.5325 12.0103 19.9912 12.469 20.5566 12.469C21.1219 12.469 21.5806 12.0103 21.5806 11.445C21.5806 10.8797 21.1219 10.421 20.5566 10.421V10.4214ZM11.6192 16.0001C11.6192 13.58 13.5813 11.6179 16.0013 11.6178C18.4214 11.6178 20.383 13.58 20.383 16.0001C20.383 18.4202 18.4216 20.3815 16.0015 20.3815C13.5814 20.3815 11.6192 18.4202 11.6192 16.0001Z" fill="white"/>
<path fill-rule="evenodd" clip-rule="evenodd" d="M16.0007 13.1556C17.5716 13.1556 18.8452 14.429 18.8452 16.0001C18.8452 17.5709 17.5716 18.8446 16.0007 18.8446C14.4297 18.8446 13.1562 17.5709 13.1562 16.0001C13.1562 14.429 14.4297 13.1556 16.0007 13.1556V13.1556Z" fill="white"/>
</svg>
