<svg width="490" height="530" viewBox="0 0 490 530" fill="none" xmlns="http://www.w3.org/2000/svg">
<g style="mix-blend-mode:multiply">
<g style="mix-blend-mode:darken" opacity="0.5">
<rect width="40.8333" height="40.8333" transform="matrix(-1 0 0 1 490 285)" fill="#E7E7E7"/>
<rect width="40.8333" height="40.8333" transform="matrix(-1 0 0 1 449.166 285)" fill="white"/>
<rect width="40.8333" height="40.8333" transform="matrix(-1 0 0 1 285.834 285)" fill="#575757"/>
<rect width="40.8333" height="40.8333" transform="matrix(-1 0 0 1 449.166 366.667)" fill="white"/>
<rect width="40.8333" height="40.8333" transform="matrix(-1 0 0 1 367.5 366.667)" fill="#E7E7E7"/>
<rect width="40.8333" height="40.8333" transform="matrix(-1 0 0 1 285.834 366.667)" fill="white"/>
<rect width="40.8333" height="40.8333" transform="matrix(-1 0 0 1 449.166 448.333)" fill="white"/>
<rect width="40.8333" height="40.8333" transform="matrix(-1 0 0 1 367.5 325.833)" fill="#B0B0B0"/>
<rect width="40.8333" height="40.8333" transform="matrix(-1 0 0 1 449.166 325.833)" fill="#B0B0B0"/>
<rect width="40.8333" height="40.8333" transform="matrix(-1 0 0 1 367.5 448.333)" fill="white"/>
<rect width="40.8333" height="40.8333" transform="matrix(-1 0 0 1 285.834 325.833)" fill="white"/>
<rect width="40.8333" height="40.8333" transform="matrix(-1 0 0 1 449.166 407.5)" fill="#B0B0B0"/>
<rect width="40.8333" height="40.8333" transform="matrix(-1 0 0 1 367.5 407.5)" fill="white"/>
<rect width="40.8333" height="40.8333" transform="matrix(-1 0 0 1 285.834 407.5)" fill="white"/>
<rect width="40.8333" height="40.8333" transform="matrix(-1 0 0 1 449.166 489.167)" fill="white"/>
<rect width="40.8333" height="40.8333" transform="matrix(-1 0 0 1 285.834 489.167)" fill="white"/>
<rect width="40.8333" height="40.8333" transform="matrix(-1 0 0 1 367.5 285)" fill="white"/>
<rect width="40.8333" height="40.8333" transform="matrix(-1 0 0 1 408.334 285)" fill="#B0B0B0"/>
<rect width="40.8333" height="40.8333" transform="matrix(-1 0 0 1 326.666 285)" fill="#B0B0B0"/>
<rect width="40.8333" height="40.8333" transform="matrix(-1 0 0 1 490 366.667)" fill="#575757"/>
<rect width="40.8333" height="40.8333" transform="matrix(-1 0 0 1 408.334 366.667)" fill="white"/>
<rect width="40.8333" height="40.8333" transform="matrix(-1 0 0 1 326.666 366.667)" fill="white"/>
<rect width="40.8333" height="40.8333" transform="matrix(-1 0 0 1 490 448.333)" fill="white"/>
<rect width="40.8333" height="40.8333" transform="matrix(-1 0 0 1 326.666 448.333)" fill="white"/>
<rect width="40.8333" height="40.8333" transform="matrix(-1 0 0 1 490 325.833)" fill="white"/>
<rect width="40.8333" height="40.8333" transform="matrix(-1 0 0 1 408.334 325.833)" fill="#575757"/>
<rect width="40.8333" height="40.8333" transform="matrix(-1 0 0 1 326.666 325.833)" fill="white"/>
<rect width="40.8333" height="40.8333" transform="matrix(-1 0 0 1 490 407.5)" fill="white"/>
<rect width="40.8333" height="40.8333" transform="matrix(-1 0 0 1 408.334 407.5)" fill="#C4C4C4"/>
<rect width="40.8333" height="40.8333" transform="matrix(-1 0 0 1 490 489.167)" fill="#C4C4C4"/>
</g>
<g style="mix-blend-mode:darken" opacity="0.5">
<rect width="40.8333" height="40.8333" transform="matrix(-1 0 0 1 245 285)" fill="#E7E7E7"/>
<rect width="40.8333" height="40.8333" transform="matrix(-1 0 0 1 204.166 285)" fill="white"/>
<rect width="40.8333" height="40.8333" transform="matrix(-1 0 0 1 204.166 366.667)" fill="white"/>
<rect width="40.8333" height="40.8333" transform="matrix(-1 0 0 1 122.5 366.667)" fill="#E7E7E7"/>
<rect width="40.8333" height="40.8333" transform="matrix(-1 0 0 1 40.834 366.667)" fill="white"/>
<rect width="40.8333" height="40.8333" transform="matrix(-1 0 0 1 204.166 448.333)" fill="white"/>
<rect width="40.8333" height="40.8333" transform="matrix(-1 0 0 1 40.834 448.333)" fill="#E7E7E7"/>
<rect width="40.8333" height="40.8333" transform="matrix(-1 0 0 1 122.5 448.333)" fill="white"/>
<rect width="40.8333" height="40.8333" transform="matrix(-1 0 0 1 40.834 325.833)" fill="white"/>
<rect width="40.8333" height="40.8333" transform="matrix(-1 0 0 1 122.5 407.5)" fill="white"/>
<rect width="40.8333" height="40.8333" transform="matrix(-1 0 0 1 40.834 407.5)" fill="white"/>
<rect width="40.8333" height="40.8333" transform="matrix(-1 0 0 1 204.166 489.167)" fill="white"/>
<rect width="40.8333" height="40.8333" transform="matrix(-1 0 0 1 40.834 489.167)" fill="white"/>
<rect width="40.8333" height="40.8333" transform="matrix(-1 0 0 1 122.5 285)" fill="white"/>
<rect width="40.8333" height="40.8333" transform="matrix(-1 0 0 1 81.666 285)" fill="#B0B0B0"/>
<rect width="40.8333" height="40.8333" transform="matrix(-1 0 0 1 245 366.667)" fill="#575757"/>
<rect width="40.8333" height="40.8333" transform="matrix(-1 0 0 1 163.334 366.667)" fill="white"/>
<rect width="40.8333" height="40.8333" transform="matrix(-1 0 0 1 81.666 366.667)" fill="white"/>
<rect width="40.8333" height="40.8333" transform="matrix(-1 0 0 1 245 448.333)" fill="white"/>
<rect width="40.8333" height="40.8333" transform="matrix(-1 0 0 1 81.666 448.333)" fill="white"/>
<rect width="40.8333" height="40.8333" transform="matrix(-1 0 0 1 245 325.833)" fill="white"/>
<rect width="40.8333" height="40.8333" transform="matrix(-1 0 0 1 81.666 325.833)" fill="white"/>
<rect width="40.8333" height="40.8333" transform="matrix(-1 0 0 1 245 407.5)" fill="white"/>
<rect width="40.8333" height="40.8333" transform="matrix(-1 0 0 1 163.334 407.5)" fill="#C4C4C4"/>
</g>
<g style="mix-blend-mode:darken" opacity="0.5">
<rect width="40.8333" height="40.8333" transform="matrix(-1 0 0 1 450 0)" fill="#E7E7E7"/>
<rect width="40.8333" height="40.8333" transform="matrix(-1 0 0 1 409.166 0)" fill="white"/>
<rect width="40.8333" height="40.8333" transform="matrix(-1 0 0 1 245.834 0)" fill="#575757"/>
<rect width="40.8333" height="40.8333" transform="matrix(-1 0 0 1 409.166 81.6667)" fill="white"/>
<rect width="40.8333" height="40.8333" transform="matrix(-1 0 0 1 245.834 81.6667)" fill="white"/>
<rect width="40.8333" height="40.8333" transform="matrix(-1 0 0 1 409.166 163.333)" fill="#ABABAB"/>
<rect width="40.8333" height="40.8333" transform="matrix(-1 0 0 1 327.5 40.8333)" fill="#B0B0B0"/>
<rect width="40.8333" height="40.8333" transform="matrix(-1 0 0 1 245.834 163.333)" fill="#E7E7E7"/>
<rect width="40.8333" height="40.8333" transform="matrix(-1 0 0 1 409.166 40.8333)" fill="#B0B0B0"/>
<rect width="40.8333" height="40.8333" transform="matrix(-1 0 0 1 327.5 163.333)" fill="white"/>
<rect width="40.8333" height="40.8333" transform="matrix(-1 0 0 1 245.834 40.8333)" fill="white"/>
<rect width="40.8333" height="40.8333" transform="matrix(-1 0 0 1 245.834 122.5)" fill="white"/>
<rect width="40.8333" height="40.8333" transform="matrix(-1 0 0 1 409.166 204.167)" fill="white"/>
<rect width="40.8333" height="40.8333" transform="matrix(-1 0 0 1 245.834 204.167)" fill="white"/>
<rect width="40.8333" height="40.8333" transform="matrix(-1 0 0 1 327.5 0)" fill="white"/>
<rect width="40.8333" height="40.8333" transform="matrix(-1 0 0 1 368.334 0)" fill="#B0B0B0"/>
<rect width="40.8333" height="40.8333" transform="matrix(-1 0 0 1 286.666 0)" fill="#B0B0B0"/>
<rect width="40.8333" height="40.8333" transform="matrix(-1 0 0 1 368.334 81.6667)" fill="white"/>
<rect width="40.8333" height="40.8333" transform="matrix(-1 0 0 1 286.666 81.6667)" fill="white"/>
<rect width="40.8333" height="40.8333" transform="matrix(-1 0 0 1 450 163.333)" fill="white"/>
<rect width="40.8333" height="40.8333" transform="matrix(-1 0 0 1 286.666 163.333)" fill="white"/>
<rect width="40.8333" height="40.8333" transform="matrix(-1 0 0 1 450 40.8333)" fill="white"/>
<rect width="40.8333" height="40.8333" transform="matrix(-1 0 0 1 368.334 40.8333)" fill="#575757"/>
<rect width="40.8333" height="40.8333" transform="matrix(-1 0 0 1 286.666 40.8333)" fill="white"/>
<rect width="40.8333" height="40.8333" transform="matrix(-1 0 0 1 450 122.5)" fill="white"/>
<rect width="40.8333" height="40.8333" transform="matrix(-1 0 0 1 450 204.167)" fill="#C4C4C4"/>
<rect width="40.8333" height="40.8333" transform="matrix(-1 0 0 1 286.666 204.167)" fill="#C4C4C4"/>
</g>
</g>
</svg>
