<svg width="81" height="81" viewBox="0 0 81 81" fill="none" xmlns="http://www.w3.org/2000/svg">
<path d="M33.5953 0.0342917C43.246 0.0342917 52.8967 0.0924673 62.5452 -0.0001827C65.4195 -0.0281932 67.1604 1.87221 67.1389 4.5569C67.057 14.9876 67.1001 25.4204 67.1238 35.851C67.1372 36.3747 67.2857 36.8861 67.5547 37.3356C71.4331 43.7478 72.0386 50.438 69.2785 57.404C69.0328 58.0202 69.1147 58.3542 69.5693 58.7765C70.457 59.5974 71.2931 60.4765 72.1549 61.3341C72.8961 62.0774 73.2128 62.9695 72.8896 63.98C72.7474 64.4303 72.8896 64.6587 73.1741 64.9431C74.8978 66.6453 76.6215 68.3345 78.3021 70.0798C81.4113 73.3226 80.0711 78.5648 75.8178 79.8059C73.5834 80.4523 71.6141 79.8856 69.9636 78.2761C68.3132 76.6666 66.6433 74.9795 65.0079 73.3204C64.6632 72.9714 64.3788 72.7861 63.8423 72.9627C62.8856 73.2795 62.0453 72.9347 61.3472 72.2474C60.4444 71.3618 59.533 70.4849 58.6733 69.5605C58.2811 69.1296 57.9622 69.0994 57.4322 69.3192C52.5264 71.3822 47.0353 71.5789 41.9945 69.8721C36.9537 68.1654 32.7115 64.6732 30.0681 60.0542C29.5976 59.241 29.1878 58.3941 28.8421 57.5204C28.6267 56.9839 28.3552 56.8201 27.7864 56.8223C20.0167 56.8409 12.2477 56.8452 4.47952 56.8352C1.50826 56.8266 0 55.3355 0 52.3815V4.47072C0 1.55332 1.50825 0.0364464 4.40195 0.0364464L33.5953 0.0342917ZM64.493 10.4176H2.58558V52.5733C2.58558 53.8273 3.01651 54.2518 4.29206 54.2518H26.9461C27.196 54.2518 27.4459 54.2238 27.6355 54.2108C27.4567 52.7801 27.2046 51.427 27.1464 50.0653C27.0731 48.6978 27.1359 47.3265 27.3339 45.9714C28.5663 38.3957 32.5999 32.8281 39.4883 29.3806C39.6601 29.317 39.8054 29.1974 39.9008 29.041C39.9962 28.8846 40.0361 28.7006 40.014 28.5188C39.9925 26.4201 39.9989 24.3237 40.014 22.2272C40.014 21.1714 40.488 20.7039 41.5416 20.6952C42.9917 20.6952 44.444 20.6952 45.8962 20.6952C47.3484 20.6952 47.7535 21.068 47.7535 22.5461C47.7535 24.0716 47.7535 25.5956 47.7535 27.1182H50.3089C50.3197 26.9329 50.3326 26.8015 50.3326 26.6701C50.3326 22.6394 50.3326 18.6074 50.3326 14.5739C50.3326 13.4082 50.7808 12.9579 51.9335 12.9536C53.3858 12.9536 54.8358 12.9536 56.2881 12.9536C57.667 12.9536 58.0721 13.3543 58.0743 14.7161C58.0743 19.2602 58.0743 23.8022 58.0743 28.3464C58.0743 28.8872 58.2186 29.1716 58.7207 29.4539C60.0544 30.1972 61.3386 31.0311 62.599 31.8865C63.2454 32.3174 63.8143 32.8927 64.493 33.4658V10.4176ZM2.58558 7.72208H64.5253V4.61077C64.5253 2.94953 64.1978 2.61772 62.5667 2.61772H4.52476C4.3093 2.61772 4.09383 2.60694 3.87837 2.61772C3.10701 2.67589 2.61574 3.13052 2.59635 3.89758C2.56188 5.17098 2.58558 6.41852 2.58558 7.72208ZM68.3951 49.1108C68.3951 38.4366 59.7571 29.7448 49.1109 29.7189C38.426 29.6974 29.7083 38.3375 29.6825 48.9642C29.6714 51.5159 30.164 54.0446 31.1321 56.4055C32.1002 58.7664 33.5247 60.913 35.324 62.7223C37.1233 64.5316 39.262 65.968 41.6175 66.9492C43.973 67.9304 46.4989 68.437 49.0506 68.4401C59.6838 68.4681 68.3843 59.7698 68.3951 49.1108ZM71.0905 66.5634L66.5442 71.1033C68.3584 72.9477 70.1899 74.9084 72.1463 76.7463C73.3723 77.9012 75.3416 77.69 76.5159 76.4684C77.1047 75.8828 77.4404 75.0897 77.4509 74.2594C77.4614 73.4291 77.1458 72.6278 76.5719 72.0276C74.7663 70.1466 72.8853 68.3432 71.0905 66.5548V66.5634ZM67.712 60.7868C66.6778 62.0171 65.6716 63.3853 64.48 64.5704C63.2885 65.7554 61.9333 66.7509 60.787 67.714L63.239 70.1574L70.1597 63.2474L67.712 60.7868ZM55.4413 28.0792V15.5822H52.9441V27.4802L55.4413 28.0792ZM42.6104 28.0792C43.3753 27.9069 44.0561 27.7776 44.7198 27.588C44.8964 27.5384 45.1507 27.3057 45.1507 27.157C45.1852 25.8836 45.1701 24.6102 45.1701 23.3304H42.6104V28.0792Z" fill="#DD408B"/>
<path d="M18.0665 28.441H19.0081C21.6152 28.441 24.2224 28.441 26.8273 28.441C27.9262 28.441 28.3916 28.9301 28.3852 30.0225C28.3485 35.4091 24.1082 40.3239 18.7625 41.175C11.3483 42.3557 4.8887 36.6502 5.17311 29.1822C5.38858 23.2203 10.4779 18.2172 16.4031 18.1202C17.5968 18.1008 18.0622 18.5512 18.0644 19.7556C18.0644 22.3412 18.0644 24.916 18.0644 27.4973L18.0665 28.441ZM9.53412 35.1441C11.4992 33.1791 13.3802 31.3024 15.2526 29.4149C15.3785 29.2841 15.4547 29.1134 15.468 28.9323C15.481 26.2497 15.468 23.565 15.468 20.7791C12.2813 21.363 9.94566 23.0005 8.6184 25.877C7.13384 29.0594 7.51737 32.1255 9.53412 35.1333V35.1441ZM25.7328 31.0244C22.9317 31.0244 20.288 31.0244 17.6335 31.0244C17.45 31.0264 17.2731 31.0927 17.1336 31.2119C15.2289 33.095 13.3349 34.9911 11.3634 36.9583C14.1257 38.8437 16.9978 39.3285 20.0445 38.1197C23.214 36.8678 25.0411 34.474 25.7328 31.0137V31.0244Z" fill="#DD408B"/>
<path d="M14.1927 51.6638C11.7191 51.6638 9.23696 51.6638 6.77204 51.6638C5.61714 51.6638 5.16898 51.2092 5.16467 50.0478C5.15605 48.5152 5.15605 46.9832 5.16467 45.452C5.16467 44.3962 5.64084 43.9265 6.69662 43.9243C11.6983 43.9243 16.6985 43.9243 21.6973 43.9243C22.7509 43.9243 23.2185 44.4005 23.2249 45.4563C23.2379 47.0162 23.2379 48.5755 23.2249 50.134C23.2249 51.1855 22.7466 51.6574 21.693 51.6617C19.1914 51.6703 16.692 51.6638 14.1927 51.6638ZM7.78041 49.0395H20.5963V46.5573H7.78041V49.0395Z" fill="#DD408B"/>
<path d="M27.1008 25.8555C25.4633 25.8555 23.8258 25.8555 22.1861 25.8555C21.1303 25.8555 20.6541 25.3815 20.652 24.3343C20.6434 21.0564 20.6434 17.7799 20.652 14.5048C20.652 13.4081 21.1368 12.9513 22.2378 12.9556C28.2385 12.9771 33.5066 18.2366 33.5497 24.2503C33.5497 25.3772 33.0886 25.8512 31.9359 25.8555C30.322 25.8555 28.7125 25.8555 27.1008 25.8555ZM23.2526 23.2699H30.2402C30.4233 23.2699 30.6086 23.2441 30.7918 23.229C30.4492 18.9434 26.1248 15.6877 23.2505 15.7653L23.2526 23.2699Z" fill="#DD408B"/>
<path d="M49.0484 32.3043C58.225 32.2806 65.8008 39.8283 65.8137 49.0093C65.8267 58.2527 58.35 65.8285 49.1906 65.8565C46.9677 65.8753 44.7631 65.4524 42.705 64.6122C40.6469 63.7719 38.7762 62.5312 37.2016 60.962C35.627 59.3928 34.3798 57.5264 33.5325 55.4712C32.6852 53.4159 32.2546 51.2129 32.2658 48.9899C32.2486 39.8391 39.8028 32.3193 49.0484 32.3043ZM58.0979 43.92H58.8908C60.259 43.92 60.6512 44.3251 60.6533 45.7062C60.6555 47.0873 60.6533 48.5072 60.6533 49.897C60.6533 51.2609 60.2461 51.6616 58.8693 51.6638H41.9424C40.8952 51.6638 39.8459 51.6789 38.7987 51.6638C37.9735 51.6466 37.4499 51.1768 37.437 50.3861C37.4068 48.6624 37.4068 46.9422 37.437 45.2257C37.4499 44.4263 37.9627 43.9695 38.7858 43.9329C39.1758 43.9157 39.5679 43.9329 39.9407 43.9329V38.2769C35.4159 41.5283 33.4918 49.1472 35.877 54.2214H62.2025C64.8291 48.128 62.0496 41.0004 58.0979 38.3437V43.92ZM60.9097 56.8824H37.1655C40.1282 61.0107 44.0001 63.2343 48.9558 63.2601C53.9782 63.2795 57.9083 61.0624 60.9097 56.8824ZM40.042 49.033H58.0074V46.54H40.042V49.033ZM50.283 43.8898V34.9609H47.7922V43.8833L50.283 43.8898ZM52.9526 35.4134V43.8683H55.4908C55.4908 41.4852 55.4908 39.1539 55.4757 36.8226C55.4608 36.7129 55.4213 36.6081 55.3601 36.5159C55.2989 36.4237 55.2176 36.3466 55.1224 36.2904C54.4501 35.9822 53.7477 35.7258 52.9526 35.407V35.4134ZM45.1312 43.8877V35.3962C44.3146 35.7301 43.5734 36.0167 42.8495 36.3442C42.7779 36.3924 42.7181 36.4562 42.6748 36.5309C42.6315 36.6055 42.6058 36.6891 42.5995 36.7752C42.5823 39.1302 42.5888 41.4852 42.5888 43.8855L45.1312 43.8877Z" fill="#DD408B"/>
</svg>
