<svg width="24" height="24" viewBox="0 0 24 24" fill="none" xmlns="http://www.w3.org/2000/svg">
<path d="M21 15V19C21 19.5304 20.7893 20.0391 20.4142 20.4142C20.0391 20.7893 19.5304 21 19 21H5C4.46957 21 3.96086 20.7893 3.58579 20.4142C3.21071 20.0391 3 19.5304 3 19V15" stroke="#C4C4C4" stroke-width="2" stroke-linecap="square" stroke-linejoin="round"/>
<path d="M21 15V19C21 19.5304 20.7893 20.0391 20.4142 20.4142C20.0391 20.7893 19.5304 21 19 21H5C4.46957 21 3.96086 20.7893 3.58579 20.4142C3.21071 20.0391 3 19.5304 3 19V15" stroke="url(#paint0_linear_474_2665)" stroke-width="2" stroke-linecap="square" stroke-linejoin="round"/>
<path d="M7 10L12 15L17 10" stroke="#C4C4C4" stroke-width="2" stroke-linecap="square" stroke-linejoin="round"/>
<path d="M7 10L12 15L17 10" stroke="url(#paint1_linear_474_2665)" stroke-width="2" stroke-linecap="square" stroke-linejoin="round"/>
<path d="M12 15V3" stroke="#C4C4C4" stroke-width="2" stroke-linecap="round" stroke-linejoin="round"/>
<path d="M12 15V3" stroke="url(#paint2_linear_474_2665)" stroke-width="2" stroke-linecap="round" stroke-linejoin="round"/>
<defs>
<linearGradient id="paint0_linear_474_2665" x1="20.2031" y1="15" x2="1.59346" y2="17.6415" gradientUnits="userSpaceOnUse">
<stop stop-color="#E11F26"/>
<stop offset="1" stop-color="#DD408B"/>
</linearGradient>
<linearGradient id="paint1_linear_474_2665" x1="16.5573" y1="10" x2="6.10389" y2="10.9892" gradientUnits="userSpaceOnUse">
<stop stop-color="#E11F26"/>
<stop offset="1" stop-color="#DD408B"/>
</linearGradient>
<linearGradient id="paint2_linear_474_2665" x1="12.9557" y1="2.99999" x2="11.901" y2="3.00415" gradientUnits="userSpaceOnUse">
<stop stop-color="#E11F26"/>
<stop offset="1" stop-color="#DD408B"/>
</linearGradient>
</defs>
</svg>
