<svg width="93" height="80" viewBox="0 0 93 80" fill="none" xmlns="http://www.w3.org/2000/svg">
<g clip-path="url(#clip0_96_9710)">
<path d="M0 6.65644C0.0415746 6.57876 0.0777705 6.49833 0.108333 6.4157C1.41073 1.89943 3.92645 0 8.61124 0H84.1142C88.0455 0 91.0595 2.16665 91.9912 5.71515C92.1776 6.44349 92.2706 7.19258 92.2681 7.94439C92.2825 26.2406 92.2825 44.5367 92.2681 62.8329C92.2681 67.4551 88.9627 70.758 84.3044 70.7893C79.6461 70.8206 75.0528 70.7893 70.4282 70.7893H69.2029V71.6801C69.2029 73.813 69.1884 75.946 69.2029 78.0789C69.2029 78.8998 69.0079 79.5643 68.1797 79.8917C67.3516 80.2191 66.8075 79.7978 66.2755 79.2537C64.7275 77.6648 63.1675 76.0856 61.5473 74.4389L57.214 78.7867C56.9733 79.0274 56.7518 79.2682 56.5111 79.4848C56.0152 79.9663 55.4518 80.1613 54.785 79.8724C54.489 79.7557 54.238 79.5475 54.0687 79.2782C53.8993 79.0088 53.8205 78.6923 53.8437 78.375C53.8437 76.2132 53.8437 74.0465 53.8437 71.8751V70.7773H52.6207C38.2053 70.7773 23.7874 70.6954 9.37197 70.8254C4.78108 70.8736 1.11703 69.0921 0 64.1594V6.65644ZM53.8437 67.7055V66.5018C53.8437 58.7981 53.8798 51.1209 53.8076 43.4317C53.8076 42.1871 53.3574 40.9353 53.0131 39.7147C52.9409 39.4571 52.4354 39.2164 52.0959 39.1562C49.52 38.6988 48.1526 36.7031 48.7737 34.1753C48.935 33.5133 48.7737 33.1281 48.1863 32.7718C45.9667 31.4429 45.4925 29.0139 47.0404 26.9122C47.4521 26.3513 47.4232 25.9493 47.0187 25.3932C45.4804 23.3011 45.9643 20.9178 48.2104 19.5432C48.8074 19.1773 48.9326 18.7752 48.7641 18.1228C48.1454 15.636 49.561 13.5488 52.1344 13.1756C52.7869 13.0818 53.0709 12.7857 53.1648 12.1597C53.5572 9.57178 55.5722 8.19235 58.0927 8.78938C58.7837 8.95549 59.1905 8.78938 59.5637 8.15624C60.8251 6.01848 63.3144 5.52015 65.2884 6.98143C65.8975 7.43884 66.3453 7.46291 66.9592 6.99588C68.9308 5.537 71.4225 6.01848 72.7032 8.1442C73.1028 8.81346 73.5386 8.95068 74.2584 8.77253C76.62 8.18513 78.777 9.62956 79.0996 12.049C79.1959 12.7712 79.4728 13.0794 80.207 13.1829C82.6963 13.5344 84.1022 15.6432 83.5003 18.0988C83.3318 18.7897 83.4883 19.2038 84.1166 19.5793C86.2833 20.8769 86.7648 23.3204 85.2505 25.3763C84.8124 25.9685 84.8437 26.3922 85.2722 26.97C86.7792 28.9898 86.2737 31.4598 84.0877 32.7598C83.4883 33.1161 83.3366 33.5133 83.4883 34.1633C84.0853 36.7272 82.7444 38.706 80.1781 39.149C79.8531 39.2044 79.3717 39.3897 79.2922 39.6305C78.9383 40.6921 78.4737 41.7971 78.4617 42.8829C78.3846 49.431 78.4183 55.9791 78.4304 62.5272C78.4304 63.3553 78.3678 64.1281 77.4939 64.4844C76.62 64.8407 76.0158 64.4073 75.4284 63.8031C73.9021 62.2335 72.3445 60.6903 70.7123 59.0461C70.1803 59.6937 69.328 60.2498 69.2679 60.8733C69.0993 63.1049 69.2029 65.3607 69.2029 67.7127H70.2453C74.8129 67.7127 79.3781 67.7127 83.9409 67.7127C87.3762 67.7127 89.1962 65.871 89.1962 62.4164V8.42587C89.1962 4.89663 87.3931 3.08146 83.9 3.08146H8.39698C4.88219 3.08146 3.07183 4.88941 3.06942 8.40179V62.3731C3.06942 65.8903 4.87737 67.7031 8.38976 67.7031H53.8437V67.7055ZM75.1443 40.6055C75.7558 40.6055 75.9893 40.2829 76.0808 39.7195C76.4298 37.5529 77.4674 36.496 79.6196 36.1085C80.4309 35.9688 80.6933 35.6005 80.5128 34.8085C80.0313 32.69 80.585 31.3563 82.4652 30.1598C83.1152 29.7457 83.2042 29.3172 82.7516 28.6792C81.4637 26.8641 81.4733 25.4293 82.73 23.6382C83.2355 22.916 83.1657 22.5934 82.4098 22.1143C80.6259 20.9876 80.0337 19.5649 80.4983 17.5138C80.7005 16.623 80.4983 16.3317 79.5643 16.1921C77.6769 15.9056 76.4082 14.6706 76.0904 12.8073C75.905 11.7144 75.7172 11.5844 74.6821 11.8227C72.8115 12.256 71.2371 11.5988 70.2115 9.95456C69.6747 9.09512 69.3882 9.03734 68.5697 9.61753C66.964 10.7586 65.3029 10.7683 63.7284 9.64641C62.8473 9.01809 62.6066 9.06864 62.0288 9.99067C61.0346 11.582 59.4481 12.2464 57.6233 11.8371C56.54 11.5964 56.3715 11.6999 56.1789 12.764C55.8178 14.7284 54.6333 15.8816 52.6544 16.1945C51.7974 16.3293 51.5856 16.6375 51.7661 17.4849C52.2139 19.5865 51.6385 21.0069 49.8932 22.0998C49.0891 22.6054 49.0313 22.9087 49.585 23.6815C50.7671 25.3306 50.7719 26.9435 49.6043 28.5878C49.0217 29.4063 49.0795 29.6928 49.9437 30.2296C51.6048 31.2672 52.2332 32.7838 51.7926 34.6977C51.5687 35.6607 51.7324 35.9231 52.717 36.106C54.7272 36.484 55.825 37.5866 56.1885 39.5944C56.3594 40.5405 56.6074 40.7114 57.5246 40.5116C59.5516 40.0734 61.0033 40.6656 62.0625 42.3677C62.5922 43.2151 62.8883 43.2729 63.7092 42.6782C65.286 41.5371 66.9784 41.5323 68.5456 42.6638C69.4051 43.2849 69.6651 43.2319 70.2308 42.3051C71.2227 40.7114 72.7947 40.059 74.6315 40.4827C74.8121 40.5356 74.9878 40.5718 75.1443 40.6055ZM56.9709 74.7543C58.124 73.5747 59.0846 72.5876 60.0572 71.603C61.1814 70.4691 61.8723 70.4691 63.0159 71.6247C63.9957 72.6165 64.9418 73.6325 66.0877 74.8193V63.832C65.3799 64.4747 64.6866 64.8647 63.8416 64.4001C62.9966 63.9355 63.0736 63.0736 63.0736 62.2575C63.0736 57.2132 63.0736 52.1706 63.0736 47.1295V46.205C61.1212 45.9643 60.452 45.5069 59.4361 44.0047C59.3294 43.8572 59.1932 43.7335 59.0361 43.6415C58.879 43.5495 58.7045 43.4912 58.5237 43.4703C58.0085 43.4703 57.4885 43.658 56.9781 43.7688L56.9709 74.7543ZM75.2839 59.3013V43.7134C75.0573 43.7084 74.832 43.6777 74.6123 43.6219C73.5867 43.2175 73.0282 43.6051 72.4456 44.5223C71.3189 46.3062 68.8827 46.6625 67.118 45.4612C66.8388 45.271 66.5547 45.0856 66.2081 44.8569V59.3326C67.3492 58.177 68.3506 57.149 69.3666 56.1331C70.3825 55.1172 71.1095 55.1365 72.1278 56.1331C73.1462 57.1298 74.1476 58.1698 75.2839 59.3013Z" fill="#DD408B"/>
<path d="M9.21465 35.3886C9.21465 30.431 9.21465 25.4742 9.21465 20.5182C9.21465 15.5903 12.4694 12.3162 17.3998 12.3114C26.2622 12.2985 35.123 12.2985 43.9822 12.3114C44.2819 12.3024 44.5819 12.3226 44.8777 12.3716C45.2366 12.4303 45.5621 12.6169 45.794 12.8971C46.0258 13.1772 46.1484 13.5318 46.139 13.8953C46.1296 14.2589 45.9889 14.6067 45.7428 14.8745C45.4968 15.1422 45.1621 15.3119 44.8007 15.3519C44.4425 15.3889 44.0821 15.4018 43.7222 15.3904H17.6718C14.0752 15.3904 12.2889 17.1695 12.2889 20.7469C12.2889 30.5369 12.2889 40.327 12.2889 50.1171C12.2889 53.5331 14.1017 55.3628 17.4961 55.3628C26.7758 55.3628 36.0571 55.3628 45.34 55.3628C45.7296 55.348 46.1196 55.3771 46.5027 55.4494C46.8462 55.5334 47.1493 55.7354 47.3589 56.0203C47.5684 56.3051 47.6712 56.6546 47.6491 57.0075C47.627 57.3605 47.4815 57.6944 47.238 57.9509C46.9946 58.2074 46.6687 58.3701 46.3173 58.4105C46.0774 58.4351 45.8362 58.4439 45.5951 58.437C36.163 58.437 26.7308 58.437 17.2987 58.437C13.377 58.437 10.3846 56.2198 9.48909 52.6593C9.30495 51.8702 9.21524 51.0621 9.22188 50.2519C9.20262 45.2999 9.21465 40.3431 9.21465 35.3886Z" fill="#DD408B"/>
<path d="M23.9929 48.5209C22.7893 50.3 21.068 51.4098 19.0939 52.1585C17.8902 52.6062 16.7274 51.7637 16.9802 50.5961C17.0837 50.1146 17.5508 49.65 17.9721 49.3418C18.5715 48.9037 19.2985 48.6509 19.9365 48.2633C21.2365 47.4689 21.8841 46.2796 21.9563 44.7557C22.0044 43.7759 22.4739 43.1837 23.278 43.1019C24.1542 43.0104 24.6911 43.4822 24.9872 44.2646C25.4578 45.5797 26.3631 46.6948 27.5535 47.4255C28.4177 47.9624 28.7572 47.8035 28.9257 46.7972C29.0485 46.075 29.4072 45.5622 30.1462 45.4202C30.8853 45.2781 31.4053 45.6609 31.8844 46.2604C32.3057 46.7876 32.8762 47.3581 33.4901 47.5411C36.0203 48.297 38.5841 48.9181 41.2636 48.8603C42.3686 48.8363 43.0787 49.5055 43.0547 50.43C43.033 51.3183 42.3325 51.9081 41.266 51.9153C37.679 51.9442 34.2557 51.145 30.8805 49.8714C28.8077 51.3664 26.865 51.1787 23.9929 48.5209Z" fill="#DD408B"/>
<path d="M29.1056 36.9342H19.1149C18.8452 36.9459 18.5749 36.9395 18.306 36.915C17.9135 36.8747 17.5518 36.684 17.2969 36.3828C17.0419 36.0816 16.9135 35.6934 16.9386 35.2996C16.9522 34.9204 17.1114 34.5609 17.3831 34.296C17.6548 34.031 18.0181 33.8809 18.3975 33.8768C19.0547 33.8407 19.7168 33.8648 20.3764 33.8648H39.1901C39.4309 33.8648 39.6716 33.8648 39.9124 33.8648C40.8753 33.9105 41.4772 34.4763 41.4988 35.3453C41.5205 36.2529 40.9018 36.9029 39.91 36.9222C38.3211 36.9535 36.7298 36.9222 35.1385 36.9222L29.1056 36.9342Z" fill="#DD408B"/>
<path d="M29.2657 27.7163C32.7444 27.7163 36.2255 27.7163 39.7066 27.7163C40.4288 27.7163 41.0162 27.8945 41.3532 28.5733C41.4532 28.7677 41.509 28.9818 41.5165 29.2002C41.5241 29.4186 41.4833 29.6361 41.397 29.8369C41.3108 30.0377 41.1812 30.217 41.0175 30.3619C40.8539 30.5068 40.6603 30.6137 40.4505 30.675C40.0737 30.7692 39.6853 30.8081 39.2973 30.7906C32.5759 30.7906 25.8553 30.7906 19.1354 30.7906C18.926 30.7906 18.7141 30.7906 18.5047 30.7906C17.5273 30.7159 16.899 30.0683 16.9351 29.1776C16.9712 28.2869 17.5803 27.7332 18.5552 27.7332C22.1254 27.7067 25.6956 27.7163 29.2657 27.7163Z" fill="#DD408B"/>
<path d="M29.1854 24.6372C25.8279 24.6372 22.468 24.6372 19.1056 24.6372C18.7472 24.6522 18.3884 24.6182 18.0392 24.5361C17.7075 24.4424 17.418 24.2378 17.2191 23.9563C17.0202 23.6748 16.924 23.3335 16.9466 22.9896C16.9691 22.6457 17.1091 22.32 17.343 22.0668C17.5769 21.8137 17.8907 21.6486 18.2318 21.5991C18.5289 21.5641 18.8283 21.5521 19.1273 21.563H39.2868C39.5865 21.5528 39.8865 21.5633 40.1848 21.5943C40.9696 21.7098 41.4246 22.1769 41.4872 22.9665C41.5408 23.3136 41.4605 23.6682 41.2624 23.9583C41.0644 24.2484 40.7635 24.4524 40.4207 24.5289C40.072 24.6145 39.713 24.651 39.3542 24.6372C35.9646 24.642 32.575 24.642 29.1854 24.6372Z" fill="#DD408B"/>
<path d="M66.1501 38.4557C63.7188 38.4595 61.341 37.7425 59.3171 36.3953C57.2932 35.0481 55.7141 33.1312 54.7793 30.8868C53.8445 28.6424 53.596 26.1713 54.0651 23.7857C54.5343 21.4001 55.7002 19.2072 57.4153 17.484C59.1304 15.7607 61.3179 14.5846 63.7012 14.1042C66.0846 13.6239 68.5569 13.8608 70.8056 14.785C73.0544 15.7093 74.9787 17.2794 76.3353 19.297C77.692 21.3145 78.4202 23.689 78.4278 26.1202C78.4354 27.7374 78.1235 29.3402 77.5098 30.8365C76.8962 32.3327 75.9931 33.693 74.8522 34.8393C73.7114 35.9855 72.3553 36.895 70.862 37.5156C69.3686 38.1363 67.7673 38.4557 66.1501 38.4557ZM66.1309 35.3694C67.9547 35.3718 69.7383 34.8331 71.2558 33.8215C72.7734 32.8098 73.9567 31.3707 74.6561 29.6863C75.3555 28.0019 75.5395 26.1479 75.1848 24.3588C74.8301 22.5698 73.9526 20.9262 72.6635 19.6361C71.3743 18.3459 69.7314 17.4672 67.9427 17.1111C66.154 16.755 64.2998 16.9375 62.6148 17.6355C60.9299 18.3336 59.4898 19.5158 58.477 21.0326C57.4642 22.5494 56.9241 24.3325 56.925 26.1564C56.9212 27.3667 57.1567 28.5659 57.6179 29.6849C58.0791 30.8039 58.7569 31.8208 59.6124 32.6769C60.4679 33.5331 61.4842 34.2117 62.6029 34.6738C63.7216 35.1359 64.9205 35.3723 66.1309 35.3694Z" fill="#DD408B"/>
</g>
<defs>
<clipPath id="clip0_96_9710">
<rect width="92.2801" height="80" fill="white"/>
</clipPath>
</defs>
</svg>
