<svg width="81" height="82" viewBox="0 0 81 82" fill="none" xmlns="http://www.w3.org/2000/svg">
<path d="M64.4161 70.9316C63.7677 70.8633 63.1171 70.8088 62.4733 70.7178C61.2563 70.5449 60.5238 71.0931 60.1438 72.2874C59.7867 73.4135 59.4159 74.5623 58.8244 75.5837C57.4276 77.9769 55.2256 78.8277 52.5708 78.0565C51.5471 77.7267 50.557 77.301 49.6134 76.7849C48.2485 76.0842 47.4728 76.2912 46.5696 77.4924C45.9543 78.3387 45.2256 79.0965 44.4039 79.7445C42.1131 81.4825 39.6017 81.4234 37.3768 79.6012C36.5872 78.9112 35.8629 78.1496 35.2134 77.3263C34.3148 76.2548 33.4686 76.1456 32.2356 76.794C31.1541 77.3965 29.9985 77.8554 28.7983 78.1589C26.4961 78.6708 24.542 77.8632 23.2748 75.884C22.5696 74.7853 22.1374 73.4863 21.7097 72.2442C21.2957 71.059 20.5723 70.6518 19.3484 70.6927C17.8675 70.7496 16.3296 70.7792 14.8987 70.4539C12.6034 69.9329 11.3909 68.2313 11.1429 65.9382C11.0512 64.8092 11.071 63.6738 11.202 62.5487C11.3181 61.2315 10.8472 60.5286 9.58006 60.2055C8.6408 59.9933 7.72599 59.6845 6.8502 59.2842C4.00887 57.8829 2.96698 55.4306 3.9156 52.4141C4.23397 51.476 4.63596 50.5685 5.11674 49.7024C5.84925 48.3147 5.71503 47.5686 4.4502 46.6541C2.85778 45.4962 1.49285 44.1403 1.08338 42.1225C0.582901 39.6679 1.90916 36.938 4.30916 35.4116C5.77191 34.4789 5.90157 33.7987 5.10082 32.2472C4.55064 31.2269 4.11281 30.1499 3.79503 29.0351C3.12394 26.4463 4.04755 24.2579 6.38385 22.9816C7.3848 22.4311 8.52451 22.1035 9.63465 21.7942C10.7448 21.4848 11.3226 20.7454 11.2271 19.5648C11.1 18.4686 11.0657 17.3636 11.1247 16.2616C11.3636 13.3998 13.2244 11.5208 16.0953 11.2319C17.1994 11.1476 18.3089 11.1651 19.4098 11.2842C20.6178 11.3888 21.3412 10.9407 21.7052 9.77823C22.0009 8.80686 22.283 7.81956 22.7448 6.90961C24.1598 4.15927 26.7281 3.08553 29.6786 4.00686C30.5883 4.31716 31.4617 4.72523 32.2834 5.22392C33.4208 5.87681 34.3308 5.71757 35.1907 4.69615C35.8585 3.85232 36.605 3.07385 37.4201 2.37122C39.6949 0.551312 42.2223 0.528563 44.5154 2.33709C45.3199 3.00938 46.0355 3.78148 46.6447 4.63472C47.4182 5.66297 48.2621 5.89046 49.4337 5.33311C50.6053 4.77577 51.7336 4.19567 52.9507 3.88856C55.312 3.27207 57.3321 4.0569 58.6106 6.11795C59.293 7.20762 59.723 8.46335 60.1302 9.68951C60.5374 10.9157 61.2039 11.407 62.5165 11.2819C63.6122 11.1547 64.7174 11.1318 65.8174 11.2137C68.4995 11.4753 70.3672 13.2793 70.6993 15.9659C70.8105 17.1158 70.7983 18.2742 70.6629 19.4215C70.5446 20.6886 70.9495 21.3779 72.178 21.7828C73.2096 22.0821 74.2159 22.4624 75.1876 22.9202C77.9448 24.3443 78.8889 26.6488 77.9402 29.6129C77.6028 30.5741 77.1811 31.5036 76.68 32.3906C76.0407 33.6031 76.2136 34.3765 77.251 35.2956C78.1814 36.1168 79.13 36.9608 79.8648 37.9504C81.3685 39.975 81.348 42.1544 79.8125 44.1653C79.0822 45.1208 78.1427 45.9329 77.2237 46.7223C76.2159 47.5822 76.0862 48.342 76.6504 49.5545C77.2714 50.9035 77.9016 52.2958 78.1973 53.738C78.6318 55.8446 77.6809 57.5462 75.8792 58.6359C74.7985 59.2471 73.6543 59.7383 72.4669 60.1009C70.8995 60.6264 70.5628 61.1473 70.6993 62.7716C70.7994 63.9477 70.8676 65.1716 70.6538 66.3181C70.0828 69.3733 67.8238 70.9589 64.4161 70.9316ZM64.9643 67.1803C66.7842 67.3032 67.3438 66.7117 67.1641 64.9305C67.13 64.5915 67.0754 64.248 67.0367 63.9159C66.5818 60.0759 68.0764 57.7236 71.7389 56.5134C72.3031 56.3269 72.8764 56.1858 73.436 55.9606C74.5984 55.4806 74.9988 54.3409 74.4278 53.2307C74.3095 53.0033 74.1685 52.7917 74.0434 52.5688C71.7207 48.408 72.3736 45.4984 76.2546 42.7458C77.6036 41.7881 77.6559 40.4709 76.3888 39.3585C75.7495 38.7989 75.0716 38.2734 74.4801 37.666C72.8263 35.9735 72.3213 33.967 73.0811 31.7149C73.4024 30.8087 73.7996 29.9313 74.2686 29.092C75.0784 27.5951 74.6576 26.4486 73.0424 25.9071C72.1552 25.6091 71.2498 25.3543 70.399 24.9744C68.5291 24.1418 67.3188 22.7132 67.1346 20.6522C67.0185 19.3669 67.1346 18.0565 67.2074 16.7576C67.2802 15.4586 66.7342 14.7875 65.3875 14.7807C64.7346 14.7807 64.0771 14.924 63.4333 14.8694C62.2299 14.7693 60.9605 14.7739 59.8527 14.3712C57.5414 13.5068 56.5518 11.473 56.1264 9.23226C55.7351 7.18487 54.3293 6.89596 52.8142 7.65577C51.8801 8.13101 50.9175 8.54811 49.9319 8.90468C48.0369 9.58714 46.2921 9.28458 44.7998 7.89463C44.0423 7.16903 43.3232 6.40439 42.6455 5.60382C41.6377 4.43681 40.3296 4.39359 39.2809 5.52193C38.5547 6.35609 37.7871 7.1533 36.981 7.91055C35.6388 9.09122 34.0237 9.50297 32.2993 9.01842C31.1886 8.69204 30.1133 8.25536 29.0894 7.71491C27.4584 6.86866 26.4165 7.22126 25.7795 8.957C25.4292 9.91472 25.1175 10.8906 24.7057 11.8211C23.9141 13.5978 22.5241 14.6556 20.5768 14.7784C19.2824 14.8671 17.9766 14.7579 16.6754 14.7306C15.3355 14.7034 14.6007 15.4381 14.6667 16.778C14.6894 17.2603 14.7531 17.738 14.8055 18.218C15.2104 21.9761 13.5952 24.4626 9.99864 25.6C9.6756 25.7024 9.34347 25.7843 9.01361 25.8594C7.24375 26.2711 6.70688 27.5132 7.61229 29.1124C10.1306 33.5598 9.59598 36.1782 5.52394 39.3153C4.21589 40.3231 4.20679 41.5765 5.4557 42.6525C6.29119 43.3386 7.07722 44.0829 7.80793 44.8797C9.2047 46.4925 9.51409 48.3671 8.78385 50.3598C8.45207 51.2328 8.05591 52.0798 7.59864 52.8941C6.73191 54.4865 7.25968 55.7149 9.04091 56.138C9.2684 56.1926 9.48224 56.245 9.69835 56.3064C13.5838 57.4211 15.2786 59.9743 14.7827 63.9659C14.421 66.8937 14.9966 67.4078 17.9675 67.1507C22.5173 66.7413 24.228 68.2609 25.3109 71.7005C25.4998 72.3254 25.7277 72.9377 25.9933 73.5341C26.5552 74.7579 27.6221 75.0764 28.8074 74.444C29.5248 74.0444 30.262 73.6814 31.0163 73.3566C33.6142 72.2988 35.9004 72.7856 37.8295 74.8421C38.3323 75.3813 38.8055 75.95 39.3014 76.496C40.3092 77.6038 41.6377 77.5834 42.6022 76.4596C43.1186 75.8567 43.635 75.2539 44.1787 74.6738C45.9986 72.7356 48.1279 72.2351 50.5871 73.327C51.4652 73.7183 52.3319 74.1437 53.2168 74.5191C54.6455 75.1265 55.6555 74.5987 56.0445 73.1064C56.2278 72.3357 56.4665 71.5792 56.7588 70.8429C57.6551 68.709 59.2384 67.4033 61.5793 67.2031C62.694 67.0984 63.8337 67.1803 64.9643 67.1803Z" fill="#DD408B"/>
<path d="M40.924 66.4387C35.8944 66.4396 30.9776 64.9483 26.7958 62.1537C22.614 59.3591 19.3552 55.3868 17.4319 50.7394C15.5086 46.092 15.0072 40.9785 15.9912 36.0461C16.9752 31.1136 19.4004 26.584 22.9597 23.0303C26.5191 19.4767 31.0526 17.0589 35.9867 16.0828C40.9207 15.1068 46.0334 15.6164 50.6776 17.5472C55.3219 19.478 59.289 22.7432 62.0769 26.9295C64.8647 31.1158 66.348 36.035 66.339 41.0646C66.3294 47.7984 63.6473 54.253 58.882 59.0106C54.1167 63.7682 47.6578 66.4399 40.924 66.4387ZM19.133 40.9782C19.1258 45.2865 20.3957 49.5003 22.7821 53.0873C25.1686 56.6744 28.5646 59.4736 32.5411 61.1316C36.5177 62.7895 40.8964 63.2317 45.1242 62.4024C49.3519 61.5731 53.2391 59.5093 56.2946 56.472C59.3501 53.4346 61.4368 49.5598 62.2913 45.337C63.1457 41.1142 62.7295 36.733 61.0952 32.7466C59.4609 28.7603 56.6819 25.3477 53.1091 22.94C49.5364 20.5323 45.3302 19.2374 41.0219 19.219C35.2349 19.2057 29.6793 21.4897 25.5752 25.5695C21.4711 29.6494 19.154 35.1913 19.133 40.9782Z" fill="#DD408B"/>
<path d="M37.2138 45.7669C37.5687 45.4302 37.7962 45.2232 38.0146 45.0048C42.0684 40.951 46.1238 36.8994 50.1807 32.8501C50.4997 32.4931 50.8967 32.2145 51.3408 32.0357C51.6934 31.9084 52.0788 31.9052 52.4334 32.0269C52.7879 32.1485 53.0903 32.3876 53.2904 32.7045C53.518 33.0004 53.6427 33.3625 53.6456 33.7358C53.6485 34.1091 53.5294 34.4731 53.3063 34.7724C53.122 35.0244 52.9132 35.2576 52.683 35.4685C48.1333 40.0183 43.5789 44.5741 39.0201 49.136C37.7029 50.4532 36.8908 50.4509 35.5645 49.1246C33.3564 46.915 31.149 44.7083 28.9424 42.5047C28.3554 41.9201 28.0324 41.2672 28.3236 40.4346C28.7786 39.1129 30.3414 38.7989 31.4265 39.8568C33.1554 41.5402 34.8389 43.2577 36.5496 44.9684C36.768 45.1891 36.9499 45.4484 37.2138 45.7669Z" fill="#DD408B"/>
</svg>
