<svg width="67" height="81" viewBox="0 0 67 81" fill="none" xmlns="http://www.w3.org/2000/svg">
<path d="M50.9093 51.9109C53.8952 51.9109 56.6185 52.52 59.0747 54.0251C63.8482 56.947 66.4457 61.2085 66.5892 66.825C66.6973 71.0622 66.6178 75.3038 66.6156 79.5432C66.6156 80.629 66.2515 80.9976 65.1922 80.9976H1.47512C0.393753 80.9976 0.0229969 80.64 0.0229969 79.5741C0.0229969 75.253 -0.0321751 70.9298 0.0450657 66.6087C0.170858 59.4187 5.81606 53.1048 12.9421 52.0984C13.7829 51.9793 14.6414 51.9638 15.5771 51.8932C15.5087 50.9663 16.1045 50.6419 16.9012 50.4168C19.0706 49.7923 21.2333 49.1412 23.3784 48.4461C23.7381 48.3291 24.1861 47.9804 24.2832 47.6494C24.6937 46.2568 25.0049 44.8356 25.3006 43.4144C25.2993 43.2856 25.2702 43.1586 25.2154 43.0421C25.1605 42.9255 25.0812 42.8222 24.9828 42.7391C22.3412 40.5013 20.8869 37.5882 20.1012 34.3022C20.0766 34.1025 19.9941 33.9144 19.8639 33.7611C19.7337 33.6078 19.5615 33.4959 19.3685 33.4393C17.7906 32.8456 16.8659 31.6738 16.5989 30.023C16.4684 29.2364 16.4336 28.4368 16.4952 27.6418C16.5258 26.9704 16.7175 26.3161 17.0539 25.7342C17.3904 25.1524 17.8618 24.6599 18.4284 24.2984C17.2524 22.3632 16.4374 20.2306 16.0229 18.0043C15.619 15.7268 15.5815 13.4736 16.3958 11.2535C17.8921 7.20386 20.8891 5.13822 25.0821 4.66374C25.6487 4.62462 26.1811 4.37881 26.5784 3.97299C29.1009 1.50128 32.2435 0.726666 35.6399 1.07756C38.8402 1.38911 41.8936 2.57308 44.4674 4.50043C48.3978 7.44662 49.7639 11.5139 49.4616 16.2631C49.2872 18.9511 48.5413 21.5022 47.5372 23.9872C50.3178 25.2738 50.512 28.6437 49.6028 31.1265C49.1614 32.3005 48.2478 33.0244 47.1046 33.5143C46.9563 33.5826 46.8234 33.6802 46.7138 33.8012C46.6042 33.9222 46.5202 34.064 46.4668 34.2183C45.6591 37.5661 44.1695 40.5057 41.5168 42.7942C41.418 42.8966 41.3431 43.0195 41.2973 43.1542C41.2516 43.2888 41.2361 43.4319 41.252 43.5733C41.5366 44.9393 41.839 46.3076 42.2384 47.6428C42.3377 47.9738 42.7835 48.3203 43.141 48.435C45.3148 49.139 47.5063 49.7878 49.6977 50.4212C50.4392 50.6397 50.9644 50.9884 50.9093 51.9109ZM25.3999 13.4449C25.1461 13.7583 24.7158 14.2946 24.281 14.8264C21.9373 17.6954 21.368 21.0344 21.5997 24.5985C21.6725 25.7019 21.379 26.0131 20.3131 26.1632C19.9096 26.2015 19.5302 26.3722 19.2339 26.6487C17.8965 28.2068 18.9007 31.1309 20.9023 31.5038C21.688 31.6517 21.9726 32.0622 22.1514 32.7971C22.4935 34.2051 22.8135 35.6461 23.4027 36.9592C26.9536 44.9173 37.4782 45.2152 41.9162 39.0779C43.2511 37.2149 44.1034 35.0502 44.3968 32.7772C44.4983 32.0556 44.8161 31.6274 45.573 31.5237C46.4315 31.4045 47.2988 31.0691 47.482 30.1819C47.6597 29.1943 47.6887 28.1856 47.568 27.1894C47.493 26.4368 46.8508 26.1477 46.1027 26.1455C44.9794 26.1455 44.6682 25.8123 44.5777 24.7C44.4188 22.7138 43.887 20.8512 42.6445 19.2623C41.6315 17.9668 40.3162 17.1061 38.6037 17.2761C35.9554 17.521 33.3491 17.2761 30.8995 16.2521C29.1119 15.5039 27.4347 14.4932 25.3999 13.4449ZM55.5856 54.9343C56.7332 57.3111 57.2232 59.646 57.4328 62.0405C57.4814 62.6076 57.6535 62.8702 58.2008 63.0975C58.7413 63.3247 59.2318 63.6562 59.6441 64.073C60.0564 64.4898 60.3826 64.9837 60.604 65.5266C60.8253 66.0696 60.9375 66.6508 60.9341 67.2371C60.9307 67.8234 60.8118 68.4033 60.5842 68.9436C60.3026 69.6258 59.8583 70.2287 59.2902 70.6998C58.722 71.1708 58.0472 71.4958 57.3247 71.6462C56.6021 71.7966 55.8538 71.768 55.1448 71.5629C54.4358 71.3577 53.7879 70.9822 53.2573 70.4691C52.7268 69.956 52.3299 69.3209 52.1012 68.6192C51.8724 67.9175 51.8188 67.1705 51.9451 66.4433C52.0713 65.7161 52.3735 65.0309 52.8254 64.4473C53.2772 63.8638 53.865 63.3996 54.5374 63.0953C54.7978 62.9695 55.1553 62.6297 55.1377 62.4134C54.9324 59.7298 54.4359 57.1169 52.827 54.8659C52.5474 54.5207 52.143 54.2995 51.7015 54.2502C49.797 54.1398 49.7948 54.1729 48.954 55.8634L48.6229 56.5255C47.632 58.5116 47.632 58.5116 49.0996 60.1668C49.9228 61.0981 49.9471 61.3629 49.2938 62.4178C46.1233 67.5422 42.9505 72.6688 39.7756 77.7976C39.61 78.0646 39.4578 78.3405 39.2702 78.6605H64.2697C64.2963 78.5405 64.3147 78.4188 64.3249 78.2963C64.3249 74.3615 64.3889 70.4244 64.2852 66.4917C64.1881 62.8062 62.5815 59.7674 59.8184 57.3464C58.5887 56.2595 57.1476 55.4383 55.5856 54.9343ZM7.54846 71.5676C7.70074 71.5256 7.80225 71.4925 7.90598 71.466C8.70708 71.2652 9.26542 71.4903 9.48169 72.0994C9.70238 72.7615 9.40666 73.322 8.62763 73.6442C8.27232 73.7899 7.90156 73.9002 7.54846 74.0547C6.90847 74.3328 6.41633 74.1143 6.03454 73.5979C3.62021 70.3229 4.33745 65.823 7.66763 63.5345C8.07591 63.2542 8.15094 62.9673 8.17522 62.5282C8.20799 61.3448 8.32154 60.1651 8.51508 58.9972C8.73576 57.8363 9.17714 56.7197 9.55452 55.5279C9.15728 55.7486 8.78652 55.9296 8.45108 56.1525C4.45883 58.7544 2.37333 62.4289 2.32257 67.1869C2.28505 70.7665 2.32257 74.3438 2.32257 77.9212C2.32257 78.1573 2.36008 78.3934 2.38215 78.6494H27.2537C26.7483 77.8219 26.2981 77.0781 25.8391 76.3388C22.9422 71.6602 20.0431 66.9831 17.1418 62.3075C16.5636 61.3762 16.5923 61.0915 17.3183 60.2617C17.7001 59.8203 18.0709 59.3789 18.4814 58.9751C18.8146 58.6463 18.8278 58.3572 18.6049 57.9555C18.1945 57.2118 17.7222 56.4703 17.4794 55.667C17.0756 54.3737 16.2502 53.9787 15.0121 54.2148C14.4097 54.3296 13.6439 54.312 13.2466 54.6761C10.9912 56.7483 10.5057 59.4849 10.4682 62.3627C10.5544 62.3953 10.6439 62.4182 10.7352 62.4311C14.4229 62.0294 18.574 65.631 17.9473 70.6517C17.8656 71.2961 17.5567 71.7331 16.9409 71.7551C16.3095 71.7845 15.6782 71.6938 15.0805 71.4881C14.9073 71.3967 14.7582 71.2654 14.6458 71.105C14.5334 70.9446 14.4607 70.7597 14.4339 70.5656C14.4339 70.2037 14.7473 69.8043 15.0055 69.4887C15.1335 69.3342 15.4469 69.3276 15.6676 69.268C15.6263 68.3073 15.2987 67.3809 14.7269 66.6077C14.1552 65.8346 13.3653 65.2501 12.4588 64.9293C11.6682 64.6705 10.8176 64.6586 10.02 64.8951C9.22252 65.1317 8.51592 65.6054 7.99425 66.2534C6.73633 67.7563 6.55978 69.7358 7.54846 71.5676ZM19.342 21.1315L19.4237 20.5687C19.9887 16.817 21.5842 13.6612 24.6871 11.3682C25.7905 10.5561 26.0752 10.5958 27.1389 11.4654C30.4758 14.1931 34.287 15.3848 38.5949 14.9655C38.9225 14.9312 39.2531 14.9379 39.5791 14.9853C42.5959 15.4554 44.4586 17.3423 45.7076 19.9773C45.8489 20.2752 45.9725 20.582 46.1049 20.8821L46.3476 20.86C46.6191 19.3505 46.9965 17.8521 47.1421 16.3315C47.5394 12.0877 46.3101 8.50151 42.6401 5.99891C40.5869 4.5899 38.2257 3.69386 35.7546 3.38596C32.6915 3.013 29.8578 3.62651 27.7348 6.10042C27.5331 6.3559 27.2732 6.55949 26.9768 6.69423C26.6805 6.82896 26.3562 6.89096 26.0311 6.87504C22.158 6.90593 19.2648 9.08192 18.3534 12.7696C18.0687 13.9194 18.0709 15.1707 18.1327 16.3624C18.2222 18.0156 18.633 19.6354 19.342 21.1315ZM30.3389 78.7046C32.0846 78.7046 33.711 78.6715 35.3353 78.7201C35.9974 78.7399 36.2181 78.5148 36.3085 77.8638C36.8669 73.9731 37.476 70.0867 38.074 66.1982C38.4095 63.9803 38.7361 61.7602 39.0605 59.5776H27.4435C28.4035 65.9201 29.3657 72.2804 30.3389 78.7046ZM27.7127 44.4362C27.1235 46.1575 26.5585 47.784 26.0179 49.4171C25.9703 49.6293 25.9703 49.8493 26.0179 50.0615C26.3312 52.1823 26.6799 54.3009 26.958 56.4239C27.0286 56.947 27.2471 57.15 27.7304 57.15C31.4188 57.15 35.1073 57.15 38.7957 57.15C39.3187 57.15 39.4909 56.8741 39.5549 56.3997C39.727 55.0932 39.8638 53.7735 40.1419 52.4869C40.5149 50.7633 40.6693 49.0927 39.716 47.4949C39.6571 47.3704 39.6162 47.2381 39.5946 47.1021C39.3871 46.2193 39.1841 45.3564 38.959 44.3986C35.1521 46.0406 31.3784 46.0406 27.7127 44.4362ZM27.2206 74.1739L27.3332 74.1253C26.1547 66.3439 24.974 58.5646 23.7845 50.7324L18.3688 52.3633C19.0706 53.7757 19.7481 55.1153 20.4035 56.4659C21.7431 59.2223 21.902 58.5889 19.8298 60.8796C19.4347 61.321 19.3884 61.6189 19.7106 62.1442C22.0852 65.9157 24.4179 69.7116 26.7726 73.4986C26.9094 73.7303 27.0683 73.951 27.2206 74.1739ZM42.7151 50.7214C41.5344 58.5403 40.3692 66.2446 39.204 73.9466C39.4247 73.9466 39.4754 73.9091 39.5041 73.8671C41.9714 69.8947 44.4431 65.9223 46.8839 61.9323C46.9391 61.7993 46.9625 61.6551 46.9522 61.5115C46.9418 61.3678 46.898 61.2285 46.8243 61.1047C46.4229 60.5799 45.9887 60.0809 45.5245 59.6107C45.312 59.4113 45.1753 59.1444 45.1375 58.8555C45.0996 58.5666 45.1631 58.2735 45.317 58.0261C45.8003 57.0992 46.2572 56.1591 46.7206 55.2234C47.1841 54.2877 47.6343 53.3674 48.1286 52.3544L42.7151 50.7214ZM56.3669 69.4247C56.662 69.4332 56.9559 69.3825 57.2311 69.2754C57.5063 69.1684 57.7572 69.0071 57.9689 68.8014C58.1807 68.5956 58.349 68.3494 58.4639 68.0774C58.5788 67.8054 58.6379 67.5131 58.6378 67.2178C58.6378 66.6261 58.4027 66.0586 57.9843 65.6401C57.5658 65.2217 56.9983 64.9866 56.4066 64.9866C55.8149 64.9866 55.2474 65.2217 54.8289 65.6401C54.4105 66.0586 54.1755 66.6261 54.1755 67.2178C54.1754 67.8004 54.4058 68.3594 54.8164 68.7729C55.2269 69.1863 55.7843 69.4206 56.3669 69.4247Z" fill="#DD408B"/>
</svg>
