<svg width="80" height="80" viewBox="0 0 80 80" fill="none" xmlns="http://www.w3.org/2000/svg">
<g clip-path="url(#clip0_22_6405)">
<path d="M41.0828 79.9628H38.9035C38.7876 79.9085 38.6672 79.8647 38.5435 79.8318C35.5738 79.2957 33.3162 77.7483 31.8744 75.0877C31.6064 74.5927 31.2425 74.6416 30.8376 74.6416C21.7367 74.6416 12.6437 74.6162 3.54095 74.6612C1.88394 74.671 0.661238 74.2034 0 72.6208V16.6992C0.618199 15.1341 1.78808 14.5081 3.43922 14.649C4.04764 14.6998 4.66583 14.649 5.32316 14.649C5.32316 13.0017 5.32316 11.468 5.32316 9.93617C5.32316 7.62184 6.28176 6.65346 8.5824 6.65346C14.4396 6.65346 20.2969 6.64172 26.1522 6.66715C26.4293 6.68399 26.7063 6.62997 26.9568 6.51017C27.2073 6.39038 27.4233 6.20876 27.5842 5.98244C29.0718 4.11381 30.9622 2.60518 33.1142 1.56907C35.2663 0.532954 37.6245 -0.00390144 40.013 -0.00145653C42.4015 0.000988375 44.7586 0.542671 46.9085 1.58319C49.0584 2.62371 50.9457 4.1362 52.4295 6.00787C52.5821 6.22649 52.7879 6.40252 53.0276 6.51927C53.2672 6.63602 53.5328 6.68962 53.7989 6.67498C59.7592 6.6515 65.7201 6.64759 71.6817 6.66324C73.6224 6.66324 74.6592 7.72553 74.6729 9.6662C74.6729 10.7324 74.6729 11.8006 74.6729 12.8667V14.6568C75.4261 14.6568 76.0521 14.6157 76.6703 14.6685C77.2885 14.7213 77.9948 14.739 78.5562 14.9972C79.7066 15.5274 80.0059 16.574 80.0039 17.7869C79.9922 35.6156 79.9922 53.4429 80.0039 71.2689C80.0039 73.7085 79.061 74.6397 76.5901 74.6397C67.4528 74.6397 58.3161 74.6358 49.1801 74.6279C48.6186 74.6279 48.3467 74.8236 48.0063 75.2716C47.2764 76.2752 46.4537 77.2079 45.5491 78.0574C44.3088 79.196 42.687 79.5814 41.0828 79.9628ZM38.5768 56.035C38.6118 55.8605 38.6373 55.6841 38.6531 55.5068C38.6531 47.8302 38.657 40.1536 38.6648 32.477C38.6648 31.9996 38.4692 31.9214 38.0407 31.8098C36.3407 31.3619 34.5487 31.0664 32.9934 30.3015C25.9233 26.8193 22.6092 19.3461 24.6184 11.7282C24.8258 10.9456 25.1251 10.1768 25.3853 9.39231H8.03658V53.2903H9.01475C16.2531 53.2903 23.4916 53.3275 30.73 53.2727C33.6371 53.2512 36.2918 53.8283 38.5768 56.035ZM41.3763 55.9274C41.4749 55.8956 41.5695 55.8522 41.658 55.7983C43.6887 53.932 46.1184 53.2688 48.8299 53.2805C56.2209 53.3138 63.6119 53.2805 71.0048 53.2805H71.9497V9.3571H54.5619C54.7321 9.82075 54.8886 10.2257 55.0314 10.6346C56.4635 14.7566 56.3382 18.8375 54.4445 22.7638C51.9659 27.9148 47.8165 30.9217 42.1608 31.7629C41.4115 31.8744 41.3195 32.1679 41.3195 32.7997C41.3352 40.2155 41.3391 47.632 41.3313 55.049C41.3352 55.3288 41.3606 55.6007 41.3763 55.9274ZM77.2748 71.9693V17.3585H74.669V65.9536C74.669 68.3462 73.7045 69.3087 71.3022 69.3106H8.73108C6.2798 69.3106 5.32316 68.356 5.32316 65.9164V17.3819H2.71734V71.9771H3.6955C13.0428 71.9771 22.3921 71.9947 31.7394 71.9556C32.9132 71.9556 33.5158 72.3703 33.997 73.4189C35.1708 75.9504 37.2504 77.2729 40.0108 77.267C42.7711 77.2612 44.8507 75.923 46.0069 73.3896C46.4745 72.3645 47.0848 71.9556 48.2097 71.9595C57.5825 71.9908 66.9572 71.9771 76.3319 71.9771L77.2748 71.9693ZM39.8953 29.3136C47.1083 29.4583 53.1416 23.5502 53.3059 16.1808C53.4683 8.88563 47.5974 2.81515 40.2181 2.65277C32.8995 2.4904 26.8369 8.39067 26.6862 15.8228C26.5356 23.1394 32.4359 29.1629 39.8953 29.3136ZM8.02093 66.5933H38.7352C38.6511 64.7544 38.79 62.9272 38.4418 61.1958C37.7727 57.8701 35.0886 55.9666 31.4616 55.9626C23.9376 55.9548 16.4129 55.9548 8.88758 55.9626C8.60783 55.9626 8.33003 55.9861 8.05028 55.9998V59.9692H31.3012C31.5871 59.9568 31.8735 59.9659 32.1581 59.9966C32.4775 60.0372 32.7708 60.1939 32.9823 60.4367C33.1937 60.6795 33.3086 60.9916 33.305 61.3135C33.3013 61.6355 33.1795 61.9449 32.9626 62.1829C32.7458 62.4209 32.449 62.5709 32.1287 62.6044C31.8439 62.6308 31.5577 62.6387 31.2719 62.6278H8.02093V66.5933ZM71.9576 56.0292C71.7704 55.9978 71.5816 55.9769 71.3922 55.9665C63.6842 55.9665 55.9763 55.9431 48.2684 55.9665C45.2107 55.9802 42.7907 57.602 41.8125 60.1629C41.0124 62.2503 41.4213 64.414 41.3235 66.5835H71.9478V62.6278H48.3858C47.2922 62.6278 46.7112 62.172 46.6936 61.3308C46.676 60.4896 47.2805 59.977 48.4014 59.9614H71.9654L71.9576 56.0292Z" fill="#DD408B"/>
<path d="M21.2905 39.9736C18.2992 39.9736 15.308 39.9736 12.3148 39.9736C11.2506 39.9736 10.605 39.3867 10.6931 38.526C10.7654 37.8217 11.2799 37.3522 12.086 37.3248C13.1522 37.2993 14.2183 37.3248 15.2865 37.3248H29.9589C30.1937 37.3248 30.4284 37.3248 30.6613 37.3248C31.4242 37.3874 31.9642 37.9117 31.9896 38.6081C31.9922 38.9648 31.8532 39.3078 31.603 39.562C31.3528 39.8162 31.012 39.9608 30.6554 39.9639C29.9824 40.001 29.3036 39.9776 28.6267 39.9776L21.2905 39.9736Z" fill="#DD408B"/>
<path d="M21.4101 43.9804C24.2703 43.9804 27.1317 43.9804 29.9945 43.9804C30.3065 43.9705 30.6188 43.9882 30.9277 44.0332C31.2091 44.0872 31.4645 44.2335 31.6535 44.4489C31.8425 44.6643 31.9544 44.9365 31.9714 45.2226C31.9885 45.5086 31.9098 45.7922 31.7477 46.0285C31.5856 46.2648 31.3494 46.4404 31.0763 46.5275C30.7495 46.6124 30.4123 46.6506 30.0747 46.641C24.2475 46.641 18.4202 46.641 12.593 46.641C12.411 46.6468 12.2288 46.6429 12.0472 46.6292C11.2177 46.5373 10.6777 46.011 10.6777 45.3009C10.6777 44.5477 11.2353 43.9921 12.1176 43.9862C15.2145 43.9667 18.3094 43.9862 21.4062 43.9862L21.4101 43.9804Z" fill="#DD408B"/>
<path d="M18.6165 33.2946H12.1293C11.5287 33.2946 10.9848 33.0834 10.8264 32.5121C10.7149 32.1208 10.7501 31.5124 10.9887 31.2229C11.2568 30.8962 11.8143 30.7084 12.2682 30.6595C13.0918 30.5734 13.9311 30.634 14.7645 30.634H24.6811C24.9427 30.626 25.2046 30.6411 25.4636 30.679C26.2051 30.8101 26.6589 31.3324 26.6374 32.0054C26.6364 32.1755 26.6015 32.3437 26.5349 32.5002C26.4682 32.6567 26.371 32.7984 26.249 32.917C26.127 33.0355 25.9826 33.1286 25.8242 33.1907C25.6659 33.2529 25.4967 33.2829 25.3267 33.279C24.235 33.3162 23.1395 33.2966 22.0459 33.2986C20.9015 33.2986 19.757 33.2986 18.6106 33.2986L18.6165 33.2946Z" fill="#DD408B"/>
<path d="M58.5863 39.9736C55.6205 39.9736 52.6528 39.999 49.6889 39.9462C49.1605 39.9288 48.6573 39.7162 48.2765 39.3495C47.6583 38.6609 48.1356 37.5634 49.059 37.3599C49.3417 37.3155 49.6282 37.3004 49.9139 37.3149C55.7399 37.3149 61.5671 37.3149 67.3957 37.3149C67.5522 37.3149 67.7087 37.3149 67.8652 37.3149C68.7299 37.358 69.3129 37.8901 69.3148 38.6374C69.3168 39.3847 68.7279 39.9579 67.8711 39.9638C65.4785 39.9853 63.0839 39.9638 60.6913 39.9736H58.5863Z" fill="#DD408B"/>
<path d="M58.6684 43.982C61.6029 43.982 64.5491 43.982 67.4875 43.982C67.8455 43.982 68.317 43.9449 68.5342 44.1444C68.8804 44.4613 69.2717 44.9778 69.2443 45.3828C69.2169 45.7877 68.7513 46.224 68.3757 46.5135C68.1488 46.6876 67.7262 46.6387 67.3975 46.6387C61.569 46.6387 55.7417 46.6387 49.9158 46.6387C49.7847 46.6387 49.6556 46.6387 49.5245 46.6387C48.5933 46.5781 48.0025 46.0518 48.0103 45.2889C48.0182 44.5259 48.5972 43.986 49.5441 43.9801C52.5823 43.9723 55.6244 43.982 58.6684 43.982Z" fill="#DD408B"/>
<path d="M61.2427 33.2968C59.2642 33.2968 57.2857 33.2968 55.3072 33.2968C55.0216 33.3057 54.7357 33.292 54.4523 33.2557C54.1494 33.2254 53.8689 33.0821 53.6667 32.8545C53.4645 32.6269 53.3552 32.3316 53.3607 32.0272C53.3287 31.7373 53.4048 31.4458 53.5745 31.2086C53.7442 30.9714 53.9955 30.8052 54.2801 30.7419C54.608 30.6633 54.9447 30.6278 55.2818 30.6362C59.3157 30.6284 63.3503 30.6284 67.3856 30.6362C67.5421 30.6362 67.6986 30.6362 67.8531 30.6362C68.7393 30.7047 69.3047 31.2231 69.3125 31.9607C69.3223 32.7432 68.7354 33.2831 67.8023 33.291C65.617 33.3066 63.4299 33.2949 61.2427 33.2968Z" fill="#DD408B"/>
<path d="M38.6592 18.6065C38.6592 17.0714 38.6592 15.537 38.6592 14.0033C38.6592 13.7939 38.6592 13.5846 38.6729 13.3792C38.755 12.5204 39.2383 12.0098 39.9777 12.0098C40.7172 12.0098 41.2259 12.4988 41.3178 13.344C41.3328 13.5255 41.3381 13.7077 41.3335 13.8898C41.3335 17.063 41.3335 20.2355 41.3335 23.4073C41.3335 24.6672 40.8659 25.303 39.9758 25.2913C39.0857 25.2795 38.667 24.6574 38.6592 23.4445C38.6592 22.662 38.6592 21.8794 38.6592 21.0969V18.6065Z" fill="#DD408B"/>
<path d="M41.3315 7.36382C41.3315 7.49293 41.3315 7.62401 41.3315 7.75508C41.2786 8.70585 40.7896 9.28297 40.0246 9.30253C39.2265 9.3221 38.7022 8.73129 38.6552 7.73747C38.6415 7.3228 38.6572 6.90766 38.7022 6.49521C38.7843 5.75963 39.2695 5.39966 39.9581 5.33706C40.6096 5.27837 41.1613 5.79484 41.2767 6.51086C41.3197 6.79257 41.3197 7.08015 41.3412 7.36382H41.3315Z" fill="#DD408B"/>
</g>
<defs>
<clipPath id="clip0_22_6405">
<rect width="80" height="79.9628" fill="white"/>
</clipPath>
</defs>
</svg>
