<svg width="81" height="81" viewBox="0 0 81 81" fill="none" xmlns="http://www.w3.org/2000/svg">
<path d="M80.9912 57.0271C80.6488 57.4791 80.3552 57.9781 79.958 58.3773C73.104 65.2483 66.2421 72.1206 59.3724 78.9942C59.0659 79.3261 58.6917 79.5884 58.2751 79.7633C57.8586 79.9382 57.4093 80.0216 56.9577 80.0078C41.2589 79.9883 25.5588 79.9837 9.85735 79.9941C4.53092 79.9941 0.993012 76.4621 0.993012 71.1396C0.993012 54.8146 0.993012 38.4896 0.993012 22.1646C0.961676 20.5194 1.33957 18.8922 2.09274 17.4291C3.63666 14.4939 6.20203 13.357 9.3701 13.3316C13.6907 13.2964 18.0133 13.3199 22.3359 13.3316C23.1402 13.3316 23.8427 13.5664 24.1753 14.3804C24.4317 15.0086 24.3886 15.7072 23.8466 16.0966C23.3446 16.4447 22.7527 16.6404 22.1422 16.6601C18.0544 16.7071 13.9666 16.6816 9.87887 16.6875C9.33239 16.6733 8.78561 16.6995 8.24298 16.7658C7.26748 16.9037 6.36532 17.3614 5.67795 18.0672C4.99058 18.773 4.55687 19.6869 4.44482 20.6657C4.36632 21.2331 4.32579 21.8051 4.3235 22.3779C4.32089 38.5933 4.31958 54.8113 4.31958 71.032C4.31958 73.2666 5.04165 75.1041 7.1413 76.0903C7.969 76.4611 8.86624 76.6513 9.77321 76.648C24.9267 76.6819 40.0802 76.6898 55.2338 76.6715C55.4627 76.6715 55.6897 76.646 55.9989 76.6284V75.7518C55.9989 71.7416 55.9989 67.7321 55.9989 63.7233C55.9989 58.5651 59.5798 55.0038 64.7517 54.9959C66.2349 54.9959 67.7201 54.9783 69.2034 55.0057C70.1622 55.0214 70.7689 55.5399 70.945 56.3755C71.0124 56.7366 70.954 57.11 70.7795 57.4333C70.605 57.7566 70.325 58.0104 69.9861 58.1523C69.6413 58.264 69.28 58.3163 68.9177 58.3069C67.4853 58.3245 66.0529 58.2951 64.6127 58.3186C61.5366 58.3695 59.4448 60.2578 59.347 63.3182C59.2335 66.8561 59.3196 70.3999 59.3235 73.9398C59.3235 73.9828 59.3665 74.0239 59.4252 74.1355C59.6053 73.9789 59.7794 73.8439 59.934 73.6893C65.674 67.9493 71.4205 62.2094 77.1735 56.4694C77.3472 56.3004 77.4819 56.0955 77.5684 55.8691C77.655 55.6427 77.6911 55.4002 77.6744 55.1584C77.6627 44.2994 77.6594 33.4417 77.6646 22.5853C77.6646 22.3251 77.6646 22.0648 77.6646 21.8026C77.7096 20.8516 78.1382 20.2783 78.9483 20.0747C79.7584 19.8712 80.3631 20.2098 80.8445 21.0688C80.8866 21.132 80.9324 21.1928 80.9814 21.2508L80.9912 57.0271Z" fill="#DD408B"/>
<path d="M51.6179 0C53.6549 0.659444 54.3985 2.09183 54.3378 4.1817C54.2517 7.09538 54.3222 10.013 54.3143 12.9286C54.3143 15.3296 52.9915 16.6681 50.5964 16.672C44.1911 16.685 37.7858 16.685 31.3806 16.672C28.9913 16.672 27.6763 15.3296 27.6626 12.9286C27.6626 10.013 27.7252 7.09538 27.6391 4.1817C27.5785 2.09183 28.3221 0.659444 30.3591 0L51.6179 0ZM50.9428 13.2867V3.38723H31.044V13.2867H50.9428Z" fill="#DD408B"/>
<path d="M41.0173 19.9984C44.2186 19.9984 47.42 19.9984 50.6213 19.9984C52.9695 19.9984 54.3021 21.3251 54.3119 23.6694C54.3262 26.7925 54.3262 29.9149 54.3119 33.0366C54.3001 35.2948 52.9832 36.6567 50.7309 36.6645C44.25 36.688 37.7703 36.688 31.292 36.6645C29.028 36.6645 27.6934 35.3085 27.6797 33.066C27.6601 29.9181 27.6601 26.769 27.6797 23.6185C27.6915 21.329 29.0397 20.0023 31.3389 19.9965C34.5638 19.9925 37.7905 19.9984 41.0173 19.9984ZM31.0376 23.3583V33.2656H50.9462V23.3583H31.0376Z" fill="#DD408B"/>
<path d="M41.0369 39.9971C44.2134 39.9971 47.3887 39.9971 50.5626 39.9971C53.0008 39.9971 54.3079 41.3081 54.3138 43.7659C54.3216 46.8107 54.3216 49.8555 54.3138 52.9003C54.3138 55.3443 52.9969 56.6652 50.5528 56.6691C44.1776 56.6795 37.8016 56.6795 31.425 56.6691C28.9849 56.6691 27.6797 55.3404 27.6738 52.8905C27.666 49.8457 27.666 46.8009 27.6738 43.7561C27.6738 41.3062 28.9908 39.999 31.4348 39.9971C34.6362 39.9945 37.8368 39.9945 41.0369 39.9971ZM50.9422 53.2838V43.3843H31.0435V53.2838H50.9422Z" fill="#DD408B"/>
<path d="M63.5737 26.6753H64.8554C66.3132 26.6753 67.771 26.6968 69.2289 26.6753C70.4264 26.6518 70.9763 26.1254 70.99 24.9494C71.0108 20.5231 71.0108 16.0974 70.99 11.6724C70.99 10.5316 70.3795 10.017 69.0958 10.013C66.0236 10.0013 62.9514 10.013 59.8792 10.013C59.5679 10.0223 59.2566 9.99469 58.9517 9.93086C58.5638 9.8529 58.2198 9.63096 57.9889 9.30967C57.758 8.98838 57.6574 8.59159 57.7072 8.19909C57.7341 7.81918 57.8964 7.46153 58.1647 7.19115C58.4329 6.92076 58.7892 6.75558 59.1689 6.72561C59.3234 6.70603 59.4789 6.69622 59.6346 6.69626C62.8379 6.69626 66.0393 6.66886 69.2406 6.69626C71.7551 6.72561 73.5456 8.04841 74.1326 10.2694C74.2639 10.8264 74.3251 11.3977 74.3146 11.9699C74.3283 16.2376 74.3361 20.5074 74.3146 24.7772C74.3029 27.321 73.0505 29.1487 70.8687 29.7651C70.2125 29.9264 69.5386 30.004 68.8629 29.996C67.1018 30.0253 65.3407 30.0057 63.5795 30.0057L63.4524 30.2014C64.0648 30.7885 64.7341 31.3129 65.2683 31.9626C65.6088 32.3754 65.9375 32.9507 65.9434 33.4576C65.961 34.6786 64.5521 35.3772 63.4954 34.749C63.2749 34.6117 63.0718 34.4481 62.8908 34.2618C61.3958 32.7746 59.8988 31.2875 58.4194 29.7866C57.4313 28.7847 57.4215 27.9237 58.3901 26.9394C59.889 25.419 61.4094 23.9201 62.9123 22.4036C63.4993 21.8165 64.1451 21.5112 64.9513 21.8302C66.0784 22.2724 66.3054 23.6305 65.417 24.6069C64.83 25.2585 64.194 25.8788 63.5815 26.5148C63.5639 26.5089 63.5737 26.5442 63.5737 26.6753Z" fill="#DD408B"/>
<path d="M18.3932 49.9965C16.6321 49.9965 14.8553 49.9965 13.0883 49.9965C9.61303 49.9867 7.68558 48.0612 7.67579 44.5664C7.66666 40.4023 7.66666 36.2369 7.67579 32.0702C7.68558 28.5812 9.60325 26.687 13.1079 26.6773C16.1801 26.6694 19.2523 26.6694 22.3245 26.6773C23.4751 26.6773 24.1462 27.1782 24.2813 28.0685C24.4417 29.1898 23.6805 29.9843 22.3871 29.9921C19.8432 30.0058 17.2857 29.9921 14.734 29.9921C14.0569 29.9921 13.3799 29.9745 12.7028 29.9921C11.564 30.0332 11.0122 30.5791 11.0082 31.6906C10.9965 36.0908 10.9965 40.491 11.0082 44.8912C11.0082 45.9733 11.4603 46.578 12.4191 46.6073C14.4111 46.6719 16.4071 46.6269 18.6143 46.6269C17.8962 45.9048 17.2563 45.3472 16.728 44.6994C16.4012 44.2983 16.0725 43.768 16.047 43.2788C15.9805 42.0323 17.4324 41.2672 18.5087 41.909C18.7075 42.0314 18.8914 42.1765 19.0566 42.3415C20.5888 43.8659 22.1229 45.3882 23.6375 46.9283C24.5454 47.8538 24.5572 48.7422 23.657 49.6678C22.1268 51.2332 20.6005 52.7987 19.0018 54.2917C18.5699 54.6857 18.0053 54.9023 17.4207 54.8983C16.0509 54.779 15.5696 53.1842 16.5362 52.1138C17.1565 51.427 17.8923 50.8458 18.5752 50.2176L18.3932 49.9965Z" fill="#DD408B"/>
<path d="M22.6591 71.6738C19.5087 71.6738 16.3589 71.6738 13.2097 71.6738C10.6287 71.6738 9.32741 70.3608 9.31958 67.7719C9.31958 66.8874 9.28827 66.001 9.31958 65.1185C9.41155 62.9895 10.7285 61.6999 12.8594 61.6823C15.644 61.6588 18.4285 61.6823 21.215 61.6823C24.8586 61.6823 28.5022 61.6823 32.1457 61.6823C34.7013 61.6823 35.983 62.9738 35.9869 65.5216C35.9869 66.3552 35.9869 67.1868 35.9869 68.0204C35.9811 70.2492 34.6504 71.619 32.4197 71.6679C31.2456 71.6933 30.0715 71.6679 28.8974 71.6679L22.6591 71.6738ZM32.6389 65.0382H12.7225V68.2513H32.6369L32.6389 65.0382Z" fill="#DD408B"/>
<path d="M45.1322 64.9916C43.7801 64.9916 42.4279 65.0151 41.0758 64.9916C40.1561 64.972 39.5534 64.4535 39.4008 63.657C39.3171 63.3004 39.3611 62.9257 39.5253 62.5982C39.6894 62.2707 39.9632 62.0111 40.2989 61.8646C40.6107 61.7438 40.943 61.6847 41.2773 61.6904C43.8525 61.6761 46.4277 61.6761 49.0028 61.6904C50.2102 61.6904 50.9596 62.344 50.9753 63.3303C50.9909 64.3165 50.2043 64.9994 48.95 65.0072C47.6957 65.0151 46.4061 65.0072 45.1264 65.0072L45.1322 64.9916Z" fill="#DD408B"/>
<path d="M41.7885 71.7054C41.4147 71.6663 41.0253 71.6526 40.6477 71.5762C40.2749 71.5085 39.9388 71.3093 39.7004 71.0149C39.462 70.7205 39.3371 70.3503 39.3484 69.9717C39.3601 69.2183 39.8591 68.5275 40.6203 68.4336C41.3866 68.3371 42.1615 68.3305 42.9293 68.414C43.806 68.5138 44.2991 69.1831 44.2991 70.0186C44.3074 70.3981 44.1757 70.7674 43.9293 71.0561C43.6828 71.3448 43.3387 71.5327 42.9626 71.5841C42.581 71.6584 42.1896 71.6663 41.7885 71.7054Z" fill="#DD408B"/>
<path d="M48.4108 71.6973C48.1095 71.6679 47.7455 71.6601 47.3913 71.5935C47.0056 71.5325 46.6543 71.3357 46.4006 71.0387C46.147 70.7417 46.0077 70.3639 46.0079 69.9733C46.0043 69.5926 46.1397 69.2236 46.3886 68.9354C46.6375 68.6473 46.9828 68.4597 47.36 68.4079C48.0509 68.3153 48.75 68.3009 49.444 68.3648C49.8629 68.3885 50.2566 68.5727 50.543 68.8792C50.8295 69.1858 50.9868 69.591 50.9821 70.0105C50.9664 70.8245 50.3755 71.4703 49.4773 71.6131C49.1466 71.6738 48.8081 71.6718 48.4108 71.6973Z" fill="#DD408B"/>
</svg>
