<svg width="80" height="79" viewBox="0 0 80 79" fill="none" xmlns="http://www.w3.org/2000/svg">
<g clip-path="url(#clip0_96_9720)">
<path d="M71.2408 58.8798C68.7811 58.4244 67.1469 57.1329 66.5448 54.7264C66.4337 54.1805 66.3887 53.6233 66.4107 53.0667C66.4022 48.4466 66.4022 43.8265 66.4107 39.2064C66.4107 35.802 67.6746 34.138 70.9322 33.2231C71.0054 33.1974 71.0766 33.1661 71.145 33.1295C70.5067 17.9223 57.5145 3.89388 40.1093 3.86196C22.5722 3.83004 9.57579 17.9031 8.86724 33.1486C9.08002 33.2082 9.30769 33.2763 9.53323 33.3316C11.8738 33.904 13.5569 35.8509 13.576 38.2255C13.6271 43.4024 13.6483 48.5814 13.576 53.7582C13.5271 57.1435 10.4929 59.3777 6.97991 58.7755C5.07463 58.4717 3.33694 57.5073 2.07112 56.0513C0.805288 54.5952 0.0919963 52.7403 0.0561362 50.8113C-0.00769702 47.6005 -0.0289747 44.3854 0.0561362 41.1746C0.145503 38.0723 1.6392 35.7211 4.33721 34.1827C4.53657 34.096 4.70537 33.9516 4.82181 33.768C4.93825 33.5844 4.99699 33.3702 4.99044 33.1529C5.41926 25.6767 8.22349 18.5325 12.9948 12.7608C17.7661 6.98914 24.2552 2.89127 31.5174 1.06394C50.961 -3.82994 70.6429 8.72392 74.4218 28.442C74.7218 29.9995 74.8601 31.5932 75.0154 33.1742C75.0622 33.6444 75.1857 33.9104 75.6197 34.1551C78.4454 35.7466 79.9114 38.1978 79.9668 41.4342C80.0178 44.4599 80.0072 47.4877 79.9668 50.5134C79.9263 53.7816 78.4773 56.2584 75.6197 57.8733C75.1665 58.1287 75.075 58.4138 75.0665 58.8776C75.041 60.7607 75.1622 62.6693 74.8899 64.5184C74.0664 70.0868 69.3215 74.1423 63.6744 74.2614C61.8977 74.2976 60.1168 74.2806 58.3401 74.2614C58.1609 74.2361 57.9784 74.2732 57.8234 74.3666C57.6684 74.46 57.5503 74.604 57.489 74.7742C56.3953 76.9658 54.6037 78.1042 52.1398 78.1212C50.2248 78.1361 48.3098 78.1425 46.3948 78.1212C43.1371 78.0829 40.6689 75.687 40.5625 72.4954C40.5329 71.7481 40.6513 71.0024 40.9109 70.301C41.1705 69.5997 41.5662 68.9566 42.0751 68.4087C42.5841 67.8607 43.1964 67.4188 43.8767 67.1083C44.557 66.7978 45.292 66.6248 46.0394 66.5993C48.2119 66.4887 50.395 66.5121 52.5674 66.5993C54.8612 66.6823 56.4953 67.876 57.5273 69.9144C57.6379 70.1272 57.9018 70.4208 58.0933 70.4208C60.2955 70.4208 62.5126 70.5166 64.6894 70.2868C68.2747 69.908 71.1174 66.6696 71.228 63.063C71.2812 61.6884 71.2408 60.3096 71.2408 58.8798ZM76.1517 46.0621C76.1517 44.496 76.1815 42.93 76.1517 41.3661C76.0963 38.9425 74.175 36.9978 71.8791 36.9914C70.8684 36.9914 70.2514 37.5233 70.2471 38.5276C70.2301 43.518 70.2301 48.5076 70.2471 53.4965C70.2471 54.5051 70.8684 55.0498 71.8663 55.0455C74.175 55.0455 76.0942 53.1029 76.1517 50.6815C76.1751 49.1516 76.1517 47.6026 76.1517 46.0621ZM9.78857 46.0514C9.78857 43.5811 9.79921 41.1129 9.78857 38.6447C9.78857 37.4999 9.17577 36.9595 8.0289 36.9935C6.92914 37.0496 5.89124 37.5193 5.12331 38.3086C4.35538 39.0978 3.91421 40.1482 3.88825 41.2491C3.83293 44.435 3.83293 47.6203 3.88825 50.8049C3.91587 51.8645 4.32857 52.8778 5.04916 53.6551C5.76975 54.4325 6.74887 54.9207 7.80336 55.0285C9.18641 55.1413 9.78431 54.603 9.7907 53.2199C9.78857 50.8283 9.78857 48.4388 9.78857 46.0514ZM49.2779 74.3019C50.2588 74.3019 51.2418 74.3189 52.2249 74.3019C53.4079 74.2763 54.2122 73.4848 54.2228 72.3762C54.2335 71.2677 53.4547 70.4357 52.2674 70.4166C50.3042 70.3825 48.3396 70.3825 46.3735 70.4166C45.1841 70.4378 44.3904 71.2677 44.4074 72.372C44.4244 73.4763 45.233 74.2742 46.4097 74.3019C47.365 74.3189 48.3204 74.3019 49.2779 74.3019Z" fill="#DD408B"/>
<path d="M27.7682 51.3304C25.9618 51.2645 24.3893 50.8325 23.0127 49.841C20.6338 48.1388 19.5231 45.7812 19.5231 42.8768C19.5231 37.5935 19.5019 32.3081 19.5231 27.0249C19.5487 22.0204 23.0127 18.5989 28.0342 18.5946C36.0261 18.5861 44.0166 18.5861 52.0057 18.5946C57.0145 18.5946 60.4636 22.0289 60.487 27.0462C60.5125 32.3046 60.5125 37.5623 60.487 42.8193C60.4657 47.8664 56.9953 51.3028 51.9504 51.3134C48.7906 51.3134 45.633 51.3283 42.4733 51.3028C42.2139 51.2877 41.9544 51.3303 41.7135 51.4274C41.4725 51.5245 41.256 51.6738 41.0796 51.8645C38.8965 54.0752 36.707 56.2796 34.4686 58.4329C34.0193 58.8793 33.4677 59.2091 32.8619 59.3937C32.2561 59.5783 31.6143 59.6121 30.9924 59.4921C30.3706 59.3722 29.7874 59.1021 29.2938 58.7053C28.8001 58.3086 28.4108 57.7973 28.1598 57.2158C27.9174 56.5728 27.7899 55.8922 27.7831 55.2051C27.7257 53.9412 27.7682 52.6709 27.7682 51.3304ZM31.5982 55.586L31.7919 55.6902C32.0046 55.4987 32.2174 55.3136 32.411 55.1157C34.6516 52.8901 36.907 50.6793 39.1199 48.426C39.4151 48.1073 39.7764 47.8571 40.1785 47.6928C40.5806 47.5285 41.0138 47.4541 41.4477 47.4749C44.9245 47.5111 48.4013 47.4919 51.8738 47.4877C54.925 47.4877 56.6677 45.7557 56.6698 42.7044C56.6783 37.5297 56.6783 32.3521 56.6698 27.1717C56.6698 24.1141 54.942 22.4076 51.8674 22.4076C43.9847 22.4076 36.1027 22.4076 28.2215 22.4076C25.0298 22.4076 23.351 24.0864 23.3489 27.2589C23.3489 32.3826 23.3489 37.5056 23.3489 42.6278C23.3464 42.9724 23.362 43.3169 23.3957 43.6598C23.4809 44.5789 23.8704 45.4432 24.5025 46.1158C25.1347 46.7884 25.9732 47.2308 26.8852 47.3728C27.6484 47.4637 28.4171 47.4992 29.1853 47.4791C30.9535 47.4962 31.5855 48.1175 31.5897 49.8686C31.5926 51.7794 31.5933 53.6873 31.5919 55.5923L31.5982 55.586Z" fill="#DD408B"/>
<path d="M40.0035 38.0872C39.4451 38.0871 38.8993 37.9218 38.4347 37.612C37.9701 37.3022 37.6077 36.8618 37.3931 36.3464C37.1784 35.8309 37.1212 35.2634 37.2286 34.7154C37.336 34.1675 37.6032 33.6636 37.9965 33.2673C38.3899 32.871 38.8918 32.6 39.4389 32.4885C39.986 32.377 40.5539 32.4299 41.071 32.6407C41.5881 32.8515 42.0312 33.2106 42.3444 33.6728C42.6577 34.1351 42.8271 34.6797 42.8313 35.2381C42.8258 35.9883 42.5268 36.7066 41.9983 37.2391C41.4697 37.7716 40.7537 38.076 40.0035 38.0872Z" fill="#DD408B"/>
<path d="M33.5262 35.2551C33.5237 35.8104 33.3569 36.3525 33.0468 36.8131C32.7368 37.2737 32.2973 37.6323 31.7838 37.8436C31.2704 38.0549 30.7059 38.1095 30.1614 38.0006C29.6169 37.8916 29.1169 37.624 28.7243 37.2314C28.3317 36.8387 28.064 36.3387 27.9551 35.7942C27.8461 35.2498 27.9008 34.6853 28.1121 34.1718C28.3234 33.6583 28.6819 33.2189 29.1426 32.9088C29.6032 32.5988 30.1453 32.432 30.7005 32.4294C31.4498 32.43 32.1681 32.7279 32.6979 33.2577C33.2277 33.7875 33.5256 34.5059 33.5262 35.2551Z" fill="#DD408B"/>
<path d="M46.4885 35.2424C46.4928 34.8732 46.5698 34.5086 46.7151 34.1692C46.8603 33.8299 47.071 33.5224 47.3351 33.2645C47.5991 33.0065 47.9114 32.8031 48.2541 32.6659C48.5968 32.5286 48.9631 32.4602 49.3322 32.4645C49.7014 32.4689 50.066 32.5459 50.4054 32.6911C50.7447 32.8364 51.0522 33.0471 51.3101 33.3111C51.5681 33.5752 51.7715 33.8875 51.9087 34.2302C52.046 34.5728 52.1144 34.9392 52.1101 35.3083C52.1013 36.0538 51.7968 36.7652 51.2635 37.2862C50.7302 37.8071 50.0118 38.0949 49.2663 38.0861C48.5208 38.0774 47.8094 37.7728 47.2884 37.2395C46.7675 36.7062 46.4797 35.9878 46.4885 35.2424Z" fill="#DD408B"/>
</g>
<defs>
<clipPath id="clip0_96_9720">
<rect width="80" height="78.1361" fill="white"/>
</clipPath>
</defs>
</svg>
