<svg width="80" height="81" viewBox="0 0 80 81" fill="none" xmlns="http://www.w3.org/2000/svg">
<g clip-path="url(#clip0_96_9686)">
<path d="M65.3838 0C66.1164 0.147942 66.8463 0.312792 67.5832 0.436781C68.1721 0.536818 68.623 0.801705 68.8019 1.38502C68.9907 1.99651 68.7526 2.49247 68.313 2.93489C65.7853 5.44849 63.2774 7.98464 60.7271 10.4827C60.3044 10.8928 60.2312 11.2267 60.4214 11.7607C61.047 13.5247 61.6049 15.3113 62.2375 17.0711C62.3654 17.387 62.6124 17.6401 62.9251 17.7756C64.7117 18.411 66.5265 18.9718 68.3173 19.5974C68.7963 19.7651 69.1006 19.7157 69.4712 19.3395C71.9383 16.8372 74.4378 14.3645 76.9204 11.872C77.3953 11.3986 77.8673 10.9618 78.6211 11.2112C79.3749 11.4606 79.5045 12.0636 79.6341 12.7315C81.222 20.9458 76.9303 27.7567 70.5589 30.6184C67.771 31.8967 64.6631 32.3076 61.6387 31.7977C61.1259 31.7131 60.775 31.7765 60.396 32.164C58.2628 34.3352 56.1001 36.4783 53.8964 38.6819L56.5115 41.2998C57.6048 42.3974 57.6133 42.944 56.5354 44.0487C56.0803 44.5151 55.7267 45.011 55.9155 45.7099C55.9706 45.9312 56.0768 46.1366 56.2255 46.3096C56.3743 46.4826 56.5614 46.6184 56.772 46.7061C56.9825 46.7939 57.2107 46.8312 57.4383 46.815C57.6658 46.7989 57.8864 46.7297 58.0825 46.613C58.1959 46.5487 58.3038 46.4752 58.4051 46.3932C60.1649 44.9842 60.1861 44.9842 61.7641 46.5567C66.7162 51.5087 71.6697 56.4608 76.6246 61.4128C78.2125 62.9951 79.3819 64.8127 79.7877 67.0375C81.1967 74.7798 75.3311 80.0211 69.4895 80.0254C66.332 80.0254 63.7127 78.9362 61.5049 76.7368C56.3452 71.5856 51.1888 66.4311 46.0358 61.2734C45.1087 60.3448 45.1143 59.7362 46.0076 58.8034C46.232 58.5874 46.4314 58.3468 46.6022 58.0863C46.7787 57.822 46.8564 57.5039 46.8216 57.1879C46.7868 56.872 46.6418 56.5784 46.412 56.3589C45.9118 55.8277 45.2763 55.7276 44.6352 56.0855C44.3239 56.2574 44.0717 56.5378 43.8025 56.783C42.9867 57.5311 42.3428 57.5509 41.5566 56.783C40.6112 55.8559 39.694 54.8978 38.5034 53.6832C38.2864 54.0496 38.1638 54.3877 37.9398 54.6272C36.0574 56.5378 34.168 58.4413 32.2476 60.3139C31.8249 60.7225 31.7122 61.1001 31.7854 61.6763C32.5956 68.0435 30.4145 73.1876 25.2929 77.0257C18.1282 82.3953 7.28761 80.2973 2.55206 72.679C-3.05565 63.6728 0.95569 52.3137 10.9904 48.842C13.3619 48.0131 15.9067 47.8079 18.3805 48.246C18.8778 48.3334 19.2413 48.2531 19.6274 47.867C29.0205 38.4457 38.4268 29.0347 47.8463 19.634C48.1873 19.2945 48.3155 18.9958 48.2394 18.4857C46.9319 9.61905 52.5847 1.80067 61.4316 0.197256C61.8106 0.129625 62.1896 0.0662217 62.5686 0H65.3838ZM64.7201 2.68832C62.2079 2.5756 59.9747 3.04761 57.8951 4.14238C52.4719 6.99695 49.7963 12.6441 51.0052 18.6886C51.1785 19.5579 51.0587 20.2117 50.4008 20.8669C40.538 30.6987 30.6878 40.5469 20.8504 50.4116C20.2234 51.04 19.5823 51.1316 18.7369 51.0372C17.2223 50.8681 15.6597 50.6525 14.1662 50.8399C6.49013 51.8008 1.29525 59.0373 2.72818 66.6204C3.75532 72.0492 7.92306 76.2127 13.4293 77.3131C18.6073 78.3473 24.1051 76.045 27.0682 71.5476C29.1295 68.4211 29.7804 65.0043 29.0126 61.3311C28.8562 60.5844 28.8562 59.9306 29.4648 59.3233C39.4216 49.3929 49.3652 39.4536 59.2956 29.5053C59.8028 28.9966 60.3467 28.8459 61.0596 28.967C62.1333 29.1488 63.2266 29.3517 64.3087 29.332C67.7992 29.2738 71.1261 27.842 73.568 25.3472C76.0098 22.8523 77.3698 19.4955 77.353 16.0045C77.3383 15.8218 77.3076 15.6408 77.2614 15.4635L77.043 15.3479C76.8907 15.5911 76.7202 15.8223 76.533 16.0397C74.5491 18.0348 72.5456 20.0074 70.5758 22.0152C69.9714 22.6309 69.3514 22.7746 68.537 22.4928C66.154 21.6672 63.7625 20.8687 61.3626 20.0976C60.5947 19.8496 60.1551 19.3804 59.9113 18.621C59.1458 16.2464 58.3577 13.8802 57.5471 11.5226C57.2568 10.6772 57.3907 10.046 58.036 9.40911C60.0846 7.40837 62.0938 5.36677 64.1157 3.33785C64.2904 3.1716 64.451 2.98279 64.7201 2.68832ZM52.0154 40.6953L40.7775 51.9911L42.7923 54.0566C42.9403 53.9636 43.1319 53.8312 43.3348 53.7185C44.1246 53.2758 45.0379 53.105 45.9343 53.2323C46.8307 53.3596 47.6604 53.7779 48.2958 54.4229C49.6005 55.7276 49.9189 57.8186 48.9439 59.3811C48.5987 59.9348 48.7072 60.1955 49.1186 60.6041C53.8274 65.2828 58.5263 69.9733 63.2154 74.6755C63.4704 74.9305 63.7423 75.1686 63.8945 75.3095C67.7156 71.4846 71.4879 67.7091 75.2114 63.9828L59.8536 48.687C57.95 49.8917 55.9873 49.8071 54.4995 48.3982C52.92 46.9033 52.7777 44.9856 54.0415 42.7919L52.0154 40.6953ZM66.6124 76.8524C69.3585 77.9964 73.0486 77.0665 75.124 74.8446C77.4699 72.331 77.8222 68.3633 76.8148 66.6641L66.6124 76.8524Z" fill="#DD408B"/>
<path d="M7.09898 0C9.97329 1.66118 12.8222 3.36603 15.7346 4.96099C16.7899 5.54008 17.4366 6.26429 17.5662 7.45346C17.8776 10.1826 19.257 12.2285 21.2479 14.1249C25.913 18.5463 30.378 23.179 34.929 27.7229C35.1305 27.9244 35.3672 28.0907 35.5504 28.2428L33.5778 30.1224C33.5172 30.066 33.3129 29.8829 33.1185 29.6884C27.693 24.2601 22.2703 18.8257 16.8505 13.3852C16.4143 12.9165 16.0913 12.354 15.9065 11.741C15.5218 10.5292 15.2738 9.27526 14.9456 8.04523C14.8836 7.81416 14.7582 7.52532 14.5722 7.41683C12.036 5.93882 9.48156 4.48758 7.01022 3.07579L3.0496 7.00259C4.45857 9.48097 5.91122 12.0326 7.38923 14.5659C7.5104 14.7717 7.82883 14.9097 8.08386 14.9802C9.05887 15.2535 10.0353 15.5438 11.0314 15.7199C12.1924 15.9172 13.0575 16.492 13.8776 17.3205C19.0983 22.5929 24.3415 27.8418 29.6073 33.0672C29.8369 33.2724 30.0772 33.4652 30.3273 33.6448L28.1209 35.6174C28.0158 35.381 27.8783 35.1605 27.7122 34.9622C22.4389 29.6711 17.1548 24.3898 11.8599 19.1183C11.4872 18.7709 11.037 18.5173 10.5467 18.3786C9.27866 18.0024 7.96268 17.7728 6.70729 17.3599C6.19161 17.1909 5.62097 16.7964 5.34904 16.3413C3.63291 13.4599 1.99005 10.5349 0.33169 7.61972C-0.158633 6.76306 -0.110728 6.25583 0.555716 5.58235C2.22018 3.89158 3.89451 2.21584 5.5787 0.555135C5.81137 0.352866 6.05809 0.167355 6.31701 0L7.09898 0Z" fill="#DD408B"/>
<path d="M15.9476 72.0322C14.7246 72.0322 13.5002 72.0167 12.2772 72.0393C11.5812 72.0519 11.0852 71.7885 10.7273 71.1939C9.47616 69.0917 8.21795 66.9951 6.95269 64.9042C6.58918 64.3054 6.59341 63.7475 6.95269 63.1486C8.22077 61.0577 9.47851 58.9607 10.7259 56.8576C10.8682 56.5931 11.083 56.3747 11.345 56.228C11.6071 56.0812 11.9055 56.0123 12.2053 56.0291C14.7302 56.0366 17.2556 56.0366 19.7814 56.0291C20.0819 56.0149 20.3802 56.0869 20.6411 56.2367C20.902 56.3865 21.1146 56.6078 21.2538 56.8745C22.5021 58.9767 23.7608 61.0728 25.0298 63.1627C25.3919 63.7615 25.3806 64.328 25.0214 64.9225C23.7599 67.0097 22.5026 69.1025 21.2495 71.2009C20.8917 71.7997 20.3915 72.0534 19.6997 72.0463C18.4485 72.0153 17.1973 72.0322 15.9476 72.0322ZM15.9884 69.3707C16.9 69.3707 17.8201 69.4045 18.7204 69.3495C18.8733 69.3317 19.021 69.2828 19.1543 69.2057C19.2876 69.1287 19.4036 69.0251 19.4954 68.9015C20.4112 67.4484 21.2937 65.9755 22.1428 64.4829C22.2099 64.3464 22.2464 64.1969 22.2498 64.0448C22.2532 63.8927 22.2234 63.7417 22.1625 63.6023C21.3172 62.1088 20.4356 60.636 19.5179 59.1838C19.4278 59.0563 19.3119 58.9493 19.1776 58.8696C19.0433 58.79 18.8938 58.7396 18.7387 58.7216C16.9165 58.6822 15.0942 58.6822 13.2719 58.7216C13.1163 58.7363 12.9655 58.7835 12.8294 58.8602C12.6932 58.9369 12.5747 59.0414 12.4815 59.1669C11.5647 60.6181 10.6818 62.0905 9.83263 63.584C9.76856 63.723 9.73538 63.8741 9.73538 64.0271C9.73538 64.1801 9.76856 64.3313 9.83263 64.4703C10.678 65.9628 11.5619 67.4347 12.4843 68.886C12.5867 69.0161 12.7144 69.1242 12.8597 69.2036C13.005 69.283 13.1649 69.3322 13.3297 69.3481C14.2145 69.4087 15.1022 69.3707 15.9884 69.3707Z" fill="#DD408B"/>
<path d="M26.1871 55.4613L24.5273 53.8466L53.8227 24.5612L55.3726 26.2815L26.1871 55.4613Z" fill="#DD408B"/>
<path d="M67.0068 68.8085L53.8428 55.6544L55.6434 54.0383L68.8004 67.1854L67.0068 68.8085Z" fill="#DD408B"/>
</g>
<defs>
<clipPath id="clip0_96_9686">
<rect width="80" height="80.0254" fill="white"/>
</clipPath>
</defs>
</svg>
