<svg width="179" height="40" fill="none" xmlns="http://www.w3.org/2000/svg"><path d="M15.517 20.064H6.58l-1.337 3.407H0L8.721 1.893h4.655l8.722 21.578h-5.244l-1.337-3.407zm-7.224-4.272h5.511l-2.568-6.49-.16-.703h-.054l-.16.703-2.569 6.49z" fill="#DEE2E6"/><path d="M21.938 1.19h4.869v22.335h-4.87V1.19zm5.777 14.115c0-1.19.214-2.325.642-3.407A7.618 7.618 0 0130.23 9.14a10.444 10.444 0 012.835-1.893c1.124-.433 2.301-.703 3.639-.703 1.337 0 2.568.216 3.692.703 1.123.487 2.086 1.082 2.889 1.893.803.811 1.445 1.73 1.873 2.758a9.174 9.174 0 01.642 3.407c0 .325 0 .595-.054.811 0 .217-.053.379-.107.595H32.637c.107.541.321.974.589 1.406.267.433.589.757.963 1.028.374.27.75.54 1.177.649.428.162.856.216 1.338.216.749 0 1.444-.162 1.98-.487.588-.324 1.016-.757 1.284-1.244h5.243c-.214.704-.588 1.407-1.123 2.11-.482.703-1.124 1.298-1.82 1.838-.695.541-1.551.974-2.514 1.298a9.58 9.58 0 01-3.104.487c-1.337 0-2.568-.216-3.638-.703-1.124-.433-2.033-1.082-2.836-1.893-.802-.811-1.391-1.73-1.873-2.758a9.803 9.803 0 01-.588-3.353zm9.042-4.65c-.856 0-1.605.215-2.3.702a4.016 4.016 0 00-1.499 1.893h7.652a4.431 4.431 0 00-.642-1.082c-.268-.324-.536-.595-.91-.81-.321-.217-.696-.38-1.07-.542a4.812 4.812 0 00-1.23-.162z" fill="#DEE2E6"/><path d="M50.241 18.333c.054.487.321.92.75 1.19.48.325 1.07.433 1.765.433.91 0 1.605-.108 1.98-.379.428-.216.588-.595.588-1.027a.9.9 0 00-.267-.65 2.544 2.544 0 00-.856-.432 16.579 16.579 0 00-1.338-.324c-.535-.109-1.124-.217-1.873-.379-.32-.054-.642-.162-1.016-.216a9.118 9.118 0 01-1.124-.379c-.374-.162-.749-.324-1.07-.595a3.425 3.425 0 01-.91-.865c-.267-.325-.481-.757-.642-1.19-.16-.487-.214-1.027-.214-1.676 0-.812.16-1.569.428-2.272.321-.649.75-1.244 1.338-1.676.589-.433 1.391-.811 2.3-1.082.91-.27 1.98-.378 3.265-.378 1.016 0 1.926.108 2.728.378.803.27 1.498.65 2.087 1.136a4.431 4.431 0 011.284 1.73c.321.65.428 1.406.428 2.218h-4.869c-.053-.379-.214-.757-.588-1.028-.321-.27-.856-.432-1.445-.432-.749 0-1.284.162-1.659.432-.374.27-.535.595-.535.974a.92.92 0 00.16.54c.108.163.322.27.59.379.267.108.588.162.962.27.375.055.857.163 1.445.217.856.162 1.659.324 2.461.54.75.217 1.445.487 2.034.866a4.34 4.34 0 011.39 1.406c.322.54.536 1.352.536 2.217 0 .974-.214 1.839-.589 2.542a5.08 5.08 0 01-1.605 1.785c-.695.486-1.498.811-2.461 1.027-.963.217-2.033.325-3.157.325-1.23 0-2.354-.162-3.21-.487-.856-.324-1.605-.757-2.194-1.298-.589-.54-1.017-1.136-1.284-1.839-.268-.703-.428-1.352-.428-2.055l4.815.054zM61.21 1.19h4.87v12.87l5.404-6.976h5.672l-5.458 6.868 5.993 9.572h-5.779l-3.692-6.381-2.14 2.542v3.84h-4.87V1.19z" fill="#DEE2E6"/><path d="M75.496 15.305c0-1.19.214-2.325.642-3.407a7.618 7.618 0 011.873-2.758 10.442 10.442 0 012.836-1.893c1.123-.433 2.3-.703 3.638-.703s2.568.216 3.692.703c1.123.487 2.087 1.082 2.89 1.893.802.811 1.444 1.73 1.872 2.758a9.176 9.176 0 01.642 3.407c0 .325 0 .595-.053.811 0 .217-.054.379-.108.595h-13c.107.541.32.974.588 1.406.268.433.589.757.963 1.028.375.27.75.54 1.177.649.428.162.856.216 1.338.216.75 0 1.445-.162 1.98-.487.588-.324 1.016-.757 1.284-1.244h5.243c-.214.704-.588 1.407-1.123 2.11-.482.703-1.124 1.298-1.82 1.838-.695.541-1.551.974-2.514 1.298a9.58 9.58 0 01-3.103.487c-1.338 0-2.569-.216-3.639-.703-1.124-.433-2.033-1.082-2.836-1.893-.802-.811-1.39-1.73-1.872-2.758a9.8 9.8 0 01-.589-3.353zm9.043-4.65c-.857 0-1.606.215-2.301.702a4.016 4.016 0 00-1.498 1.893h7.65a4.428 4.428 0 00-.641-1.082c-.268-.324-.535-.595-.91-.81-.32-.217-.695-.38-1.07-.542a4.518 4.518 0 00-1.23-.162zm21.027.648h-2.033c-1.338 0-2.355.379-3.104 1.136-.749.757-1.123 1.893-1.123 3.407v7.625H94.49V7.031h3.906l.375 1.568c.535-.433 1.177-.811 1.926-1.136.749-.27 1.605-.432 2.622-.432h2.3v4.272h-.053zm-.642 4.002c0-1.19.214-2.325.642-3.407a7.613 7.613 0 011.873-2.758 10.432 10.432 0 012.835-1.893c1.07-.487 2.355-.703 3.692-.703 1.338 0 2.569.216 3.692.703 1.124.487 2.087 1.082 2.889 1.893.803.811 1.445 1.73 1.873 2.758.428 1.027.642 2.217.642 3.407s-.214 2.326-.642 3.407a7.614 7.614 0 01-1.873 2.758 9.944 9.944 0 01-2.889 1.893c-1.123.487-2.354.703-3.692.703-1.337 0-2.514-.216-3.638-.703s-2.033-1.081-2.836-1.893c-.802-.81-1.391-1.73-1.873-2.758-.481-1.027-.695-2.217-.695-3.407zm4.815-.054c0 .703.107 1.298.321 1.839.214.54.535 1.027.91 1.46a4.57 4.57 0 001.338.92c.535.216 1.07.324 1.658.324a4.32 4.32 0 001.659-.325c.535-.216.963-.54 1.338-.92.374-.378.695-.864.909-1.46.214-.54.321-1.189.321-1.892 0-.65-.107-1.298-.321-1.839a4.24 4.24 0 00-.909-1.406c-.375-.379-.803-.703-1.338-.92a4.318 4.318 0 00-1.659-.324c-.588 0-1.123.108-1.658.325-.535.216-.964.54-1.338.919a4.227 4.227 0 00-.91 1.406c-.214.541-.321 1.244-.321 1.893z" fill="#DEE2E6"/><path d="M125.203 11.249h-2.996V7.03h2.996v-.595c0-.758.107-1.515.268-2.272.214-.757.535-1.46.963-2.055.482-.595 1.07-1.136 1.819-1.514.749-.379 1.712-.595 2.889-.595h3.264v4.002h-2.086c-.428 0-.803.054-1.071.216a1.74 1.74 0 00-.695.541c-.161.216-.321.487-.375.811-.053.325-.107.65-.107.974v.54h4.334v4.219h-4.334v12.222h-4.869V11.25z" fill="#DEE2E6"/><path d="M136.117 11.249h-2.996V7.03h2.996v-.595c0-.758.107-1.515.268-2.272.214-.757.535-1.46.963-2.055.482-.595 1.07-1.136 1.819-1.514.749-.379 1.712-.595 2.89-.595h3.263v4.002h-2.086c-.428 0-.803.054-1.07.216a1.735 1.735 0 00-.696.541c-.161.216-.321.487-.375.811-.053.325-.107.65-.107.974v.54h4.334v4.219h-4.334v12.222h-4.869V11.25zm25.363.055h-2.033c-1.338 0-2.355.378-3.104 1.135-.749.758-1.123 1.893-1.123 3.407v7.626h-4.816V7.032h3.906l.375 1.568c.535-.433 1.177-.812 1.926-1.136.749-.27 1.605-.433 2.622-.433h2.3v4.273h-.053z" fill="#DEE2E6"/><path d="M169.612 19.794c.536 0 1.017-.054 1.445-.216.428-.163.803-.38 1.07-.704.321-.324.535-.757.696-1.297.16-.541.267-1.19.267-2.002V6.977h4.869v8.76c0 1.515-.214 2.759-.642 3.786-.428 1.028-1.016 1.893-1.765 2.542a6.503 6.503 0 01-2.622 1.406 12.96 12.96 0 01-6.635 0 6.503 6.503 0 01-2.622-1.406c-.749-.649-1.337-1.514-1.765-2.542-.428-1.027-.642-2.325-.642-3.785V6.977h4.869v8.598c0 .758.053 1.46.214 1.947.16.541.374.974.695 1.298.321.325.642.541 1.07.703.482.217.963.27 1.498.27zm-21.509-1.189h-4.816v4.867h4.816v-4.867zM94.586 34.647c0-.433.053-.812.214-1.19.16-.379.321-.703.588-.974.268-.27.59-.486.91-.649.375-.162.803-.216 1.23-.216.322 0 .643.054.91.162.268.108.482.217.696.379v-2.38h1.659v7.68h-1.445l-.107-.487a9.102 9.102 0 01-.75.487c-.267.162-.641.216-.962.216-.482 0-.856-.054-1.23-.216a3.035 3.035 0 01-.964-.65 2.268 2.268 0 01-.588-.973 4.26 4.26 0 01-.161-1.19zm1.659 0c0 .216.053.432.107.649.053.216.16.378.32.486.161.163.268.27.482.325.214.054.375.108.589.108.214 0 .374-.054.588-.108.16-.054.321-.163.482-.325.16-.162.267-.324.32-.486.054-.217.108-.433.108-.65 0-.216-.054-.432-.107-.648a.788.788 0 00-.321-.487c-.16-.162-.268-.216-.482-.325a1.904 1.904 0 00-.588-.108c-.214 0-.428.054-.589.108-.16.054-.32.163-.481.325l-.321.487c-.054.216-.107.432-.107.649zm7.009-2.813h-1.658v5.679h1.658v-5.679zm.535 2.812c0-.432.054-.811.214-1.19.161-.378.321-.703.589-.973.267-.27.588-.487.963-.649.374-.162.802-.216 1.23-.216.214 0 .375 0 .535.054l.482.162c.16.054.267.108.428.216.107.054.268.163.321.27l.107-.486h1.338v5.246c0 .433-.054.811-.214 1.19-.161.378-.321.649-.589.919-.267.27-.588.433-.963.595-.375.162-.803.216-1.284.216a4.68 4.68 0 01-.91-.108 2.083 2.083 0 01-.695-.27c-.161-.108-.375-.217-.535-.379a2.906 2.906 0 01-.375-.487c-.107-.162-.16-.324-.214-.54-.053-.217-.107-.379-.107-.541h1.605l.161.324c.053.108.16.162.267.27.107.109.214.109.375.163.16.054.321.054.481.054.268 0 .535-.054.696-.162.16-.108.321-.217.428-.379.107-.162.161-.27.214-.432.054-.163.054-.325.054-.433v-.162a3.397 3.397 0 01-.75.432c-.267.108-.642.163-1.016.163-.428 0-.803-.055-1.177-.217-.375-.162-.642-.324-.91-.595-.267-.27-.428-.595-.588-.92a3.63 3.63 0 01-.161-1.135zm1.659 0c0 .216.053.433.107.65.053.215.16.378.321.486.16.162.267.216.481.324.161.054.375.109.589.109.214 0 .374-.055.588-.109.161-.054.321-.162.482-.324l.321-.487c.054-.216.107-.433.107-.649 0-.216-.053-.432-.107-.649a.784.784 0 00-.321-.486c-.161-.163-.268-.217-.482-.325a1.901 1.901 0 00-.588-.108c-.214 0-.428.054-.589.108-.16.054-.321.162-.481.325l-.321.486c-.054.217-.107.433-.107.65zm7.01-2.812h-1.659v5.679h1.659v-5.679zm1.605-1.568h1.177v1.568h1.605v1.46h-1.605v2.001c0 .162 0 .325.054.433.053.108.107.216.16.27.054.054.161.108.268.163.107 0 .214.053.321.053h.909v1.407h-1.07c-.321 0-.588-.054-.909-.108a1.59 1.59 0 01-.749-.325 1.374 1.374 0 01-.482-.703 3.63 3.63 0 01-.161-1.136v-2h-.909V32.05l.856-.324.535-1.46zm2.996 4.38c0-.432.053-.811.214-1.19.16-.378.321-.703.588-.973.268-.27.589-.487.963-.649.375-.162.803-.216 1.231-.216.374 0 .696.054 1.017.162.321.108.535.27.749.433l.053-.433h1.445v5.678h-1.445l-.053-.432a3.412 3.412 0 01-.749.432c-.268.109-.643.163-1.017.163-.482 0-.856-.054-1.231-.217a3.044 3.044 0 01-.963-.649 2.271 2.271 0 01-.588-.973c-.161-.325-.214-.703-.214-1.136zm1.658 0c0 .216.054.433.107.65a.792.792 0 00.321.486c.161.162.268.216.482.324a1.9 1.9 0 00.588.109c.215 0 .375-.055.589-.109.161-.054.321-.162.482-.324a1.29 1.29 0 00.321-.487c.053-.216.107-.433.107-.649 0-.216-.054-.432-.107-.649a.792.792 0 00-.321-.486c-.161-.163-.268-.217-.482-.325a1.902 1.902 0 00-.589-.108c-.214 0-.428.054-.588.108a1.264 1.264 0 00-.482.325l-.321.486c-.053.217-.107.433-.107.65zm5.349-4.866h1.659v7.679h-1.659v-7.68zm4.282-1.191h1.605v10.978h-1.605V28.59zm10.486 6.058c0 .432-.053.81-.214 1.19-.16.378-.321.702-.588.973-.268.27-.589.487-.963.649-.375.162-.803.216-1.231.216-.16 0-.374 0-.535-.054-.161-.054-.321-.054-.482-.162a1.612 1.612 0 01-.428-.217 1.684 1.684 0 01-.321-.216l-.053.433h-1.445v-7.68h1.659v2.38c.214-.162.428-.27.695-.379.268-.108.589-.162.91-.162.482 0 .856.054 1.231.216.374.163.695.379.909.65.214.27.428.594.589.973.16.378.267.757.267 1.19zm-1.658 0c0-.217-.054-.433-.107-.65a.792.792 0 00-.321-.486c-.107-.162-.268-.216-.482-.325a1.898 1.898 0 00-.588-.108c-.214 0-.375.054-.589.108a1.263 1.263 0 00-.482.325 1.29 1.29 0 00-.321.487c-.053.216-.107.378-.107.649 0 .216.054.432.107.649a.792.792 0 00.321.486c.161.163.268.217.482.325.214.108.375.108.589.108.214 0 .374-.054.588-.108.214-.054.321-.163.482-.325a1.29 1.29 0 00.321-.486c.053-.217.107-.433.107-.65zm5.939-1.353h-.695c-.482 0-.803.108-1.07.379-.268.27-.375.649-.375 1.19v2.65h-1.659v-5.679h1.338l.107.54c.161-.161.375-.27.642-.378a2.29 2.29 0 01.91-.162h.802v1.46zm-.107 1.352c0-.432.053-.811.214-1.19.16-.378.321-.703.588-.973.268-.27.589-.487.963-.649.375-.162.803-.216 1.231-.216.375 0 .696.054 1.017.162.321.108.535.27.749.433l.053-.433h1.445v5.678h-1.445l-.053-.432a3.412 3.412 0 01-.749.432c-.268.109-.642.163-1.017.163-.481 0-.856-.054-1.231-.217a3.046 3.046 0 01-.963-.649 2.271 2.271 0 01-.588-.973c-.161-.325-.214-.703-.214-1.136zm1.659 0c0 .216.053.433.106.65a.789.789 0 00.322.486c.16.162.267.216.481.324.161.054.375.109.589.109.214 0 .374-.055.588-.109.161-.054.321-.162.482-.324a1.29 1.29 0 00.321-.487c.053-.216.107-.433.107-.649 0-.216-.054-.432-.107-.649a.792.792 0 00-.321-.486c-.161-.163-.268-.217-.482-.325a1.901 1.901 0 00-.588-.108c-.214 0-.428.054-.589.108-.16.054-.321.162-.481.325l-.322.486c-.053.217-.106.433-.106.65zm11.129 2.812h-1.659v-2.974c0-.27-.053-.487-.107-.65-.053-.162-.107-.324-.214-.432a.86.86 0 00-.374-.216c-.161-.054-.268-.054-.428-.054-.214 0-.375.054-.535.108a.831.831 0 00-.428.324c-.107.163-.214.325-.268.487-.053.216-.107.378-.107.595v2.866h-1.658v-5.678h1.337l.107.432c.107-.054.268-.162.375-.216.107-.054.267-.162.428-.216.16-.054.321-.108.481-.108.161-.055.321-.055.482-.055.428 0 .856.055 1.177.217.321.162.589.324.803.54.214.217.374.541.428.866.107.324.16.757.16 1.19v2.974zm.321-2.811c0-.433.054-.812.214-1.19.161-.379.321-.703.589-.974.267-.27.588-.486.909-.649.375-.162.803-.216 1.231-.216.321 0 .642.054.91.162.267.108.481.217.695.379v-2.38h1.659v7.68h-1.445l-.107-.487a9.032 9.032 0 01-.749.487c-.267.108-.642.216-.963.216-.482 0-.856-.054-1.231-.216a3.045 3.045 0 01-.963-.65 2.271 2.271 0 01-.588-.973c-.054-.378-.161-.757-.161-1.19zm1.712 0c0 .216.054.432.107.649a.792.792 0 00.321.486c.161.163.268.27.482.325a1.9 1.9 0 00.589.108c.214 0 .374-.054.588-.108.214-.054.321-.163.482-.325a1.29 1.29 0 00.321-.486c.053-.217.107-.433.107-.65 0-.216-.054-.432-.107-.648a.792.792 0 00-.321-.487c-.161-.162-.268-.216-.482-.325-.214-.108-.374-.108-.588-.108a1.9 1.9 0 00-.589.108 1.263 1.263 0 00-.482.325l-.321.487c-.107.216-.107.432-.107.649zm7.009-2.813h-1.658v5.679h1.658v-5.679zm6.636 5.624h-1.659v-2.974c0-.27-.053-.487-.107-.65-.053-.162-.107-.324-.214-.432a.86.86 0 00-.374-.216c-.161-.054-.268-.054-.428-.054-.214 0-.375.054-.535.108a.831.831 0 00-.428.324c-.107.163-.214.325-.268.487-.053.216-.107.378-.107.595v2.866h-1.659v-5.678h1.338l.107.432c.107-.054.267-.162.375-.216.107-.054.267-.162.428-.216.16-.054.321-.108.481-.108.161-.055.321-.055.482-.055.428 0 .856.055 1.177.217.321.162.588.324.802.54.214.217.375.541.428.866.107.324.161.757.161 1.19v2.974zm.321-2.812c0-.432.053-.811.214-1.19.16-.378.321-.703.589-.973.267-.27.588-.487.963-.649.374-.162.802-.216 1.23-.216.214 0 .375 0 .535.054l.482.162c.16.054.267.108.428.216.107.054.267.163.321.27l.107-.486h1.338v5.246c0 .433-.054.811-.214 1.19-.161.378-.321.649-.589.919-.268.27-.589.433-.963.595-.375.162-.803.216-1.284.216a4.68 4.68 0 01-.91-.108 2.083 2.083 0 01-.695-.27c-.161-.108-.375-.217-.535-.379a2.906 2.906 0 01-.375-.487 1.62 1.62 0 01-.214-.54c-.054-.217-.107-.379-.107-.541h1.605l.161.324c.053.108.16.162.267.27.107.109.214.109.375.163.16.054.321.054.481.054.268 0 .535-.054.696-.162.16-.108.321-.217.428-.379.107-.162.16-.27.214-.432.053-.163.053-.325.053-.433v-.162a3.39 3.39 0 01-.749.432c-.267.108-.642.163-1.016.163-.428 0-.803-.055-1.177-.217-.375-.162-.642-.324-.91-.595-.268-.27-.428-.595-.589-.92a3.632 3.632 0 01-.16-1.135zm1.659 0c0 .216.053.433.107.65.053.215.16.378.321.486.16.162.267.216.481.324.161.054.375.109.589.109.214 0 .374-.055.588-.109.161-.054.321-.162.482-.324l.321-.487c.053-.216.107-.433.107-.649 0-.216-.054-.432-.107-.649a.792.792 0 00-.321-.486c-.161-.163-.268-.217-.482-.325a1.901 1.901 0 00-.588-.108c-.214 0-.428.054-.589.108-.16.054-.321.162-.481.325l-.321.486c-.054.217-.107.433-.107.65zm-70.147-4.866h-1.659v1.676h1.659v-1.677zm9.151 0h-1.659v1.676h1.659v-1.677zm52.38 0h-1.658v1.676h1.658v-1.677z" fill="#DEE2E6"/></svg>