<svg width="196" height="28" fill="none" xmlns="http://www.w3.org/2000/svg"><g clip-path="url(#clip0_66_5677)" fill="#EE3524"><path d="M12.873 7.098a7.534 7.534 0 00-.627-2.16 4.833 4.833 0 00-1.068-1.49 4.119 4.119 0 00-1.425-.885 5.161 5.161 0 00-1.738-.295 5.635 5.635 0 00-1.728.266 4.105 4.105 0 00-1.472.868c-.423.385-.77.876-1.016 1.44a5.39 5.39 0 00-.375 2.114 3.769 3.769 0 00.442 1.883 4.69 4.69 0 001.191 1.366 8.894 8.894 0 001.705 1.032c.646.306 1.31.606 2.004.912.774.352 1.543.726 2.317 1.134.74.386 1.435.883 2.07 1.48a6.75 6.75 0 011.481 2.092c.402.939.595 1.985.56 3.038a9.342 9.342 0 01-.38 2.79 7.191 7.191 0 01-1.044 2.114c-.446.6-.968 1.11-1.548 1.514-.6.414-1.237.749-1.9.998a10.18 10.18 0 01-2.126.533c-.726.105-1.457.159-2.189.158-.86 0-1.72-.062-2.573-.187a21.296 21.296 0 01-2.555-.521.464.464 0 01-.28-.193.692.692 0 01-.123-.306c0-.323-.048-.788-.072-1.406-.023-.618-.052-1.247-.07-1.882-.02-.635-.034-1.22-.048-1.735-.014-.516 0-.822 0-.918l.95-.108a7.14 7.14 0 00.612 2.37 5.14 5.14 0 001.187 1.66c.497.44 1.059.764 1.657.953a6.44 6.44 0 002.018.312 6.737 6.737 0 001.87-.261 4.46 4.46 0 001.605-.833c.47-.387.857-.9 1.13-1.497.296-.68.442-1.44.423-2.205a3.553 3.553 0 00-.442-1.831 4.842 4.842 0 00-1.187-1.333 9.552 9.552 0 00-1.7-1.071c-.631-.306-1.29-.618-1.975-.936a98.609 98.609 0 01-2.312-1.173 9.632 9.632 0 01-2.07-1.525A6.85 6.85 0 01.566 11.22 7.568 7.568 0 010 8.124a8.364 8.364 0 01.74-3.741C1.217 3.4 1.883 2.57 2.684 1.962A7.562 7.562 0 015.423.664 12.6 12.6 0 018.547.272a15.94 15.94 0 012.317.193c.791.12 1.576.292 2.35.516a.497.497 0 01.28.193.61.61 0 01.124.306c.028.317.052.771.08 1.338.03.567.072 1.15.072 1.718 0 .567.047 1.134.057 1.587.01.454.024.754.024.84l-.978.135zm9.919-5.888a43.87 43.87 0 011.98-.385A83.114 83.114 0 0126.448.57L27.65.434c.323-.028.532-.045.618-.045a.462.462 0 01.252.027.543.543 0 01.215.16.759.759 0 01.15.56v12.19L38.38 1.568c.234-.318.54-.547.883-.658.204-.072.412-.127.622-.164.242-.04.475-.068.74-.08l.684-.04h.475a.34.34 0 01.166.026.395.395 0 01.143.105.454.454 0 01.095.283.491.491 0 01-.029.174.428.428 0 01-.085.144l-9.53 10.647 10.237 14.643c.047.074.079.16.095.25a.436.436 0 01-.03.156.373.373 0 01-.084.127.562.562 0 01-.29.17c-.218.051-.474.09-.84.13-.365.04-.679.068-1.02.091-.343.023-.646.034-.922.04h-.55a.728.728 0 01-.4-.092.893.893 0 01-.318-.305l-9.538-13.884v13.39a.672.672 0 01-.017.24.604.604 0 01-.098.21.49.49 0 01-.163.142.41.41 0 01-.197.05c-.218.05-.475.09-.722.13-.247.04-.522.068-.774.09a9.95 9.95 0 01-.693.04h-.474a.353.353 0 01-.193-.02.415.415 0 01-.165-.12.523.523 0 01-.1-.197.59.59 0 01-.017-.23V4.476c.01-.35-.027-.7-.11-1.037a1.53 1.53 0 00-.303-.635 1.039 1.039 0 00-.475-.312 1.938 1.938 0 00-.627-.09 6.058 6.058 0 00-.845.061l-.119-1.252zm26.782 0a43.716 43.716 0 011.975-.385A73.836 73.836 0 0153.21.57l1.2-.136c.324-.028.528-.045.618-.045a.462.462 0 01.252.027.543.543 0 01.215.16c.06.073.105.162.131.26.026.097.033.2.02.3v25.586a.67.67 0 01-.017.24.604.604 0 01-.099.21.49.49 0 01-.162.141.41.41 0 01-.197.05c-.219.05-.475.09-.727.13a11.84 11.84 0 01-1.458.13h-.474a.357.357 0 01-.192-.022.42.42 0 01-.163-.121.527.527 0 01-.102-.195.598.598 0 01-.018-.229V4.476c.006-.35-.029-.7-.104-1.037a1.6 1.6 0 00-.31-.635 1.043 1.043 0 00-.474-.312 2.01 2.01 0 00-.631-.09 6.06 6.06 0 00-.846.061l-.1-1.252zM69.155 0a.39.39 0 01.177.033.435.435 0 01.151.115c.076.102.171.221.27.374l13.295 20.93-.475-20.47c0-.188.105-.284.304-.295.2-.012.541-.097.95-.142.408-.045.75-.068 1.11-.068.21 0 .31.113.31.346l-.476 22.246v4.178c0 .181-.104.283-.308.294-.204.012-.475.052-.784.074-.308.023-.579 0-.873 0a.416.416 0 01-.27-.08.986.986 0 01-.195-.266L68.94 6.203l.476 20.976c0 .187-.1.283-.304.295-.204.01-.551.084-.95.119-.399.034-.764.045-1.087.045-.204 0-.304-.12-.304-.346l.475-23.782-1.58-2.551a.342.342 0 01-.06-.115.391.391 0 01-.016-.135c0-.198.114-.34.346-.413.233-.074.475-.086.789-.125.313-.04.645-.074.973-.102L68.595 0h.56zm52.493 1.572a1.08 1.08 0 01.241-.44.833.833 0 01.39-.24c.185-.065.372-.115.561-.148a6.46 6.46 0 01.593-.08l.537-.04h.37c.224 0 .333.075.333.21-.002.157-.03.31-.081.454l-7.896 25.869a.848.848 0 01-.156.306.345.345 0 01-.177.102l-.446.05-.555.046c-.194 0-.376.028-.556.028h-.427a.445.445 0 01-.228-.067.485.485 0 01-.175-.3l-4.549-16.663-4.872 16.498a.889.889 0 01-.157.306.353.353 0 01-.175.102l-.446.05-.556.046c-.195 0-.38.028-.555.028h-.428a.456.456 0 01-.227-.067.495.495 0 01-.181-.301L95.553 4.174c-.12-.579-.406-1.09-.807-1.446a1.845 1.845 0 00-1.101-.351 2.269 2.269 0 00-.394 0c-.138 0-.28.034-.437.062L92.7 1.186A24.917 24.917 0 0194.41.83a34.85 34.85 0 011.56-.245l1.216-.164c.337-.034.546-.057.636-.057a.483.483 0 01.244.05.576.576 0 01.203.171c.118.176.202.381.246.601l5.698 21.038h.076l4.202-15.08-1.572-5.748a.524.524 0 01-.031-.226.512.512 0 01.064-.216.453.453 0 01.261-.221c.479-.117.962-.202 1.448-.256.528-.062.95-.09 1.306-.09a.503.503 0 01.385.13c.091.11.159.247.195.397l5.849 21.543h.086l5.165-20.885zm15.991 22.24c-.004.286.007.572.033.856a.935.935 0 00.147.482.625.625 0 00.419.215c.267.034.537.049.806.045h2.488c1.025 0 1.861 0 2.507-.079a3.41 3.41 0 001.634-.521 3.74 3.74 0 001.187-1.418c.439-.881.823-1.8 1.148-2.75l.95.25c0 .108-.034.38-.09.822-.057.442-.114.964-.204 1.53-.09.568-.195 1.186-.309 1.798a27.549 27.549 0 01-.347 1.598c-.065.236-.193.44-.364.58a.844.844 0 01-.586.197H134.51a.327.327 0 01-.205-.035.407.407 0 01-.161-.158.895.895 0 01-.095-.374V4.843c0-.783-.152-1.293-.441-1.542a1.68 1.68 0 00-1.102-.38c-.276 0-.552.023-.826.068l-.118-1.253c.27-.062.664-.142 1.177-.233l1.628-.272c.561-.09 1.097-.164 1.619-.226.523-.063.927-.091 1.221-.091h8.384l1.582-.034a.266.266 0 01.125.011.297.297 0 01.111.07.37.37 0 01.08.115.435.435 0 01.035.144c0 .21.028.493.043.845.014.351.037.731.042 1.134.005.402.038.833.053 1.252.014.42.033.822.052 1.191.019.368.024.675.029.935.004.261 0 .42 0 .482l-.95.114a16.613 16.613 0 00-.665-2.506 2.9 2.9 0 00-.859-1.304 2.433 2.433 0 00-1.32-.493c-.537-.051-1.22-.08-2.07-.08h-3.865a.407.407 0 00-.242.12.407.407 0 00-.085.26v9.712l2.896-.17 2.298-.142c.646-.029 1.173-.063 1.572-.085l.726-.04c.365 0 .541.227.541.686.001.3-.012.598-.038.896 0 .3-.057.629-.099.98l-7.896-.328-.048 9.133zm24.315.001c-.005.286.007.572.033.856a.858.858 0 00.156.482c.11.133.258.21.414.215.268.034.537.05.807.046h1.899c1.026 0 1.866 0 2.516-.091a3.296 3.296 0 001.648-.567 4.052 4.052 0 001.196-1.463c.444-.881.83-1.802 1.155-2.755l.948.25a8.404 8.404 0 01-.09.838c-.07.46-.152.987-.247 1.582a60.903 60.903 0 01-.317 1.826 27.273 27.273 0 01-.347 1.62c-.065.237-.193.44-.365.58a.84.84 0 01-.585.198c-.949 0-2.165-.034-3.598-.051-1.434-.017-3.153 0-5.176 0h-3.191a.325.325 0 01-.207-.034.409.409 0 01-.163-.16.808.808 0 01-.099-.373V4.475a4.394 4.394 0 00-.1-1.037 1.553 1.553 0 00-.318-.635 1.049 1.049 0 00-.475-.312 2.012 2.012 0 00-.627-.09 6.14 6.14 0 00-.85.062l-.118-1.253a42.72 42.72 0 011.979-.386c.628-.102 1.225-.187 1.701-.255l1.186-.136c.323-.028.533-.045.623-.045a.46.46 0 01.25.03.537.537 0 01.213.16.697.697 0 01.13.258c.026.097.032.2.019.3v22.677zm23.255-.003c-.002.286.008.572.033.856a.887.887 0 00.152.482.59.59 0 00.417.215c.269.035.538.05.808.046h1.899c1.025 0 1.866 0 2.511-.09a3.28 3.28 0 001.648-.568 4.064 4.064 0 001.197-1.462c.443-.882.829-1.803 1.153-2.756l.95.25a9.03 9.03 0 01-.09.839 73.1 73.1 0 01-.247 1.581c-.1.596-.2 1.202-.319 1.826a29.374 29.374 0 01-.342 1.621 1.13 1.13 0 01-.364.58.843.843 0 01-.585.197c-.95 0-2.16-.034-3.599-.051-1.439-.017-3.153 0-5.17 0h-3.2a.33.33 0 01-.206-.035.419.419 0 01-.161-.158.833.833 0 01-.099-.374V4.473a4.394 4.394 0 00-.1-1.038 1.58 1.58 0 00-.313-.635 1.065 1.065 0 00-.474-.312 1.985 1.985 0 00-.628-.09 6.112 6.112 0 00-.849.062l-.119-1.253a45.196 45.196 0 011.98-.385 61.596 61.596 0 011.704-.255l1.206-.136a9.85 9.85 0 01.618-.046.46.46 0 01.244.038c.078.035.148.09.205.163.056.072.098.16.123.254.024.095.03.196.017.293V23.81z"/></g><defs><clipPath id="clip0_66_5677"><path fill="#fff" d="M0 0h196v28H0z"/></clipPath></defs></svg>