<svg width="530" height="490" fill="none" xmlns="http://www.w3.org/2000/svg"><g style="mix-blend-mode:multiply"><g style="mix-blend-mode:darken" opacity=".5"><path fill="#E7E7E7" d="M163.333 122.5v40.833H122.5V122.5z"/><path fill="#fff" d="M163.333 204.167V245H122.5v-40.833zM81.667 40.833v40.833H40.834V40.833z"/><path fill="#B0B0B0" d="M204.167 122.5v40.833h-40.833V122.5z"/><path fill="#fff" d="M81.667 122.5v40.833H40.834V122.5zm122.5 81.667V245h-40.833v-40.833zM122.5 122.5v40.833H81.667V122.5zm0 81.667V245H81.667v-40.833zm-81.667 0V245H0v-40.833zM245 122.5v40.833h-40.833V122.5z"/><path fill="#B0B0B0" d="M245 81.667V122.5h-40.833V81.667z"/><path fill="#fff" d="M163.333 81.667V122.5H122.5V81.667zm0 81.666v40.833H122.5v-40.833zm-81.666 0v40.833H40.834v-40.833zm122.5 0v40.833h-40.833v-40.833z"/></g><g style="mix-blend-mode:darken" opacity=".5"><path fill="#E7E7E7" d="M245 245v40.833h-40.833V245z"/><path fill="#fff" d="M245 285.833v40.833h-40.833v-40.833zm-81.667 0v40.833H122.5v-40.833z"/><path fill="#E7E7E7" d="M163.333 367.5v40.833H122.5V367.5z"/><path fill="#fff" d="M163.333 449.167V490H122.5v-40.833zM81.667 285.833v40.833H40.834v-40.833z"/><path fill="#E7E7E7" d="M81.667 449.167V490H40.834v-40.833z"/><path fill="#fff" d="M81.667 367.5v40.833H40.834V367.5zm122.5 81.667V490h-40.833v-40.833zM122.5 367.5v40.833H81.667V367.5zm0 81.667V490H81.667v-40.833zM40.833 285.833v40.833H0v-40.833zm0 163.334V490H0v-40.833zM245 367.5v40.833h-40.833V367.5z"/><path fill="#B0B0B0" d="M245 408.333v40.833h-40.833v-40.833z"/><path fill="#575757" d="M163.333 245v40.833H122.5V245z"/><path fill="#fff" d="M163.333 326.667V367.5H122.5v-40.833zm0 81.666v40.833H122.5v-40.833zM81.667 245v40.833H40.834V245zm0 163.333v40.833H40.834v-40.833zM204.167 245v40.833h-40.833V245zm0 163.333v40.833h-40.833v-40.833zM122.5 245v40.833H81.667V245z"/><path fill="#C4C4C4" d="M122.5 326.667V367.5H81.667v-40.833z"/></g><g style="mix-blend-mode:darken" opacity=".5"><path fill="#fff" d="M530 80.833v40.833h-40.833V80.833zm-81.666 0v40.833h-40.833V80.833z"/><path fill="#ABABAB" d="M366.667 80.833v40.833h-40.833V80.833z"/><path fill="#E7E7E7" d="M366.667 244.167V285h-40.833v-40.833z"/><path fill="#fff" d="M366.667 162.5v40.833h-40.833V162.5zm40.833 81.667V285h-40.833v-40.833zM325.833 80.833v40.833H285V80.833zm0 163.334V285H285v-40.833zM530 162.5v40.833h-40.833V162.5zm-81.666-40.833V162.5h-40.833v-40.833zm0 81.666v40.833h-40.833v-40.833zm-81.667 0v40.833h-40.833v-40.833z"/><path fill="#fff" d="M489.166 203.333v40.833h-40.833v-40.833z"/></g></g></svg>