<svg width="149" height="428" fill="none" xmlns="http://www.w3.org/2000/svg"><g style="mix-blend-mode:multiply"><g style="mix-blend-mode:darken" opacity=".5"><path fill="#E7E7E7" d="M160.293 94.15h-13.358v13.358h13.358z"/><path fill="#fff" d="M146.936 94.15h-13.358v13.358h13.358z"/><path fill="#575757" d="M93.504 94.15H80.146v13.358h13.358z"/><path fill="#fff" d="M146.936 120.866h-13.358v13.358h13.358z"/><path fill="#E7E7E7" d="M120.22 120.866h-13.358v13.358h13.358z"/><path fill="#fff" d="M93.504 120.866H80.146v13.358h13.358zm53.432 26.716h-13.358v13.358h13.358z"/><path fill="#B0B0B0" d="M120.22 107.508h-13.358v13.358h13.358zm26.716 0h-13.358v13.358h13.358z"/><path fill="#fff" d="M120.22 147.582h-13.358v13.358h13.358zm-26.716-40.074H80.146v13.358h13.358z"/><path fill="#B0B0B0" d="M146.936 134.224h-13.358v13.358h13.358z"/><path fill="#fff" d="M120.22 134.224h-13.358v13.358h13.358zm-26.716 0H80.146v13.358h13.358zm53.432 26.715h-13.358v13.358h13.358zm-53.432 0H80.146v13.358h13.358zM120.22 94.15h-13.358v13.358h13.358z"/><path fill="#B0B0B0" d="M133.577 94.15h-13.358v13.358h13.358zm-26.716 0H93.503v13.358h13.358z"/><path fill="#575757" d="M160.293 120.866h-13.358v13.358h13.358z"/><path fill="#fff" d="M133.577 120.866h-13.358v13.358h13.358zm-26.716 0H93.503v13.358h13.358zm53.432 26.716h-13.358v13.358h13.358zm-53.432 0H93.503v13.358h13.358zm53.432-40.074h-13.358v13.358h13.358z"/><path fill="#575757" d="M133.577 107.508h-13.358v13.358h13.358z"/><path fill="#fff" d="M106.861 107.508H93.503v13.358h13.358zm53.432 26.716h-13.358v13.358h13.358z"/><path fill="#C4C4C4" d="M133.577 134.224h-13.358v13.358h13.358zm26.716 26.715h-13.358v13.358h13.358z"/></g><g style="mix-blend-mode:darken" opacity=".5"><path fill="#E7E7E7" d="M80.147 94.15H66.788v13.358h13.359z"/><path fill="#fff" d="M66.679 94.15H53.32v13.358h13.358zm.111 26.716H53.43v13.358h13.36z"/><path fill="#E7E7E7" d="M40.073 120.866H26.715v13.358h13.358z"/><path fill="#fff" d="M13.357 120.866H0v13.358h13.358zm53.433 26.716H53.43v13.358h13.36z"/><path fill="#E7E7E7" d="M13.357 147.582H0v13.358h13.358z"/><path fill="#fff" d="M40.073 147.582H26.715v13.358h13.358zm-26.716-40.074H0v13.358h13.358zm26.716 26.716H26.715v13.358h13.358zm-26.716 0H0v13.358h13.358zm53.433 26.715H53.43v13.358h13.36zm-53.433 0H0v13.358h13.358zM40.073 94.15H26.715v13.358h13.358z"/><path fill="#B0B0B0" d="M26.715 94.15H13.357v13.358h13.358z"/><path fill="#575757" d="M80.147 120.866H66.788v13.358h13.359z"/><path fill="#fff" d="M53.43 120.866H40.074v13.358H53.43zm-26.715 0H13.357v13.358h13.358zm53.432 26.716H66.788v13.358h13.359zm-53.432 0H13.357v13.358h13.358zm53.432-40.074H66.788v13.358h13.359zM13.357 95H0v13.358h13.358zm66.79 39.224H66.788v13.358h13.359z"/><path fill="#C4C4C4" d="M53.43 134.224H40.074v13.358H53.43z"/></g><g style="mix-blend-mode:darken" opacity=".5"><path fill="#E7E7E7" d="M147.209.918h-13.358v13.358h13.358z"/><path fill="#fff" d="M133.852.918h-13.358v13.358h13.358z"/><path fill="#575757" d="M80.42.918H67.062v13.358H80.42z"/><path fill="#fff" d="M133.852 27.634h-13.358v13.358h13.358zm-53.432 0H67.062v13.358H80.42z"/><path fill="#ABABAB" d="M133.852 54.35h-13.358v13.357h13.358z"/><path fill="#B0B0B0" d="M107.136 14.276H93.778v13.358h13.358z"/><path fill="#E7E7E7" d="M80.42 54.35H67.062v13.357H80.42z"/><path fill="#B0B0B0" d="M133.852 14.276h-13.358v13.358h13.358z"/><path fill="#fff" d="M107.136 54.35H93.778v13.357h13.358zM80.42 14.276H67.062v13.358H80.42zm0 26.716H67.062V54.35H80.42zm53.432 26.715h-13.358v13.358h13.358zm-53.432 0H67.062v13.358H80.42zM107.136.918H93.778v13.358h13.358z"/><path fill="#B0B0B0" d="M120.493.918h-13.358v13.358h13.358zm-26.716 0H80.42v13.358h13.358z"/><path fill="#fff" d="M120.493 27.634h-13.358v13.358h13.358zm-26.716 0H80.42v13.358h13.358zm53.432 26.716h-13.358v13.357h13.358zm-53.432 0H80.42v13.357h13.358zm53.432-40.074h-13.358v13.358h13.358z"/><path fill="#575757" d="M120.493 14.276h-13.358v13.358h13.358z"/><path fill="#fff" d="M93.777 14.276H80.42v13.358h13.358zm53.432 26.716h-13.358V54.35h13.358z"/><path fill="#C4C4C4" d="M147.209 67.707h-13.358v13.358h13.358zm-53.432 0H80.42v13.358h13.358z"/></g></g></svg>