<svg width="490" height="530" fill="none" xmlns="http://www.w3.org/2000/svg"><g style="mix-blend-mode:multiply"><g style="mix-blend-mode:darken" opacity=".5"><path fill="#E7E7E7" d="M490 285h-40.833v40.833H490z"/><path fill="#fff" d="M449.166 285h-40.833v40.833h40.833z"/><path fill="#575757" d="M285.834 285h-40.833v40.833h40.833z"/><path fill="#fff" d="M449.166 366.667h-40.833V407.5h40.833z"/><path fill="#E7E7E7" d="M367.5 366.667h-40.833V407.5H367.5z"/><path fill="#fff" d="M285.834 366.667h-40.833V407.5h40.833zm163.332 81.666h-40.833v40.833h40.833z"/><path fill="#B0B0B0" d="M367.5 325.833h-40.833v40.833H367.5zm81.666 0h-40.833v40.833h40.833z"/><path fill="#fff" d="M367.5 448.333h-40.833v40.833H367.5zm-81.666-122.5h-40.833v40.833h40.833z"/><path fill="#B0B0B0" d="M449.166 407.5h-40.833v40.833h40.833z"/><path fill="#fff" d="M367.5 407.5h-40.833v40.833H367.5zm-81.666 0h-40.833v40.833h40.833zm163.332 81.667h-40.833V530h40.833zm-163.332 0h-40.833V530h40.833zM367.5 285h-40.833v40.833H367.5z"/><path fill="#B0B0B0" d="M408.334 285h-40.833v40.833h40.833zm-81.668 0h-40.833v40.833h40.833z"/><path fill="#575757" d="M490 366.667h-40.833V407.5H490z"/><path fill="#fff" d="M408.334 366.667h-40.833V407.5h40.833zm-81.668 0h-40.833V407.5h40.833zM490 448.333h-40.833v40.833H490zm-163.334 0h-40.833v40.833h40.833zM490 325.833h-40.833v40.833H490z"/><path fill="#575757" d="M408.334 325.833h-40.833v40.833h40.833z"/><path fill="#fff" d="M326.666 325.833h-40.833v40.833h40.833zM490 407.5h-40.833v40.833H490z"/><path fill="#C4C4C4" d="M408.334 407.5h-40.833v40.833h40.833zM490 489.167h-40.833V530H490z"/></g><g style="mix-blend-mode:darken" opacity=".5"><path fill="#E7E7E7" d="M245 285h-40.833v40.833H245z"/><path fill="#fff" d="M204.166 285h-40.833v40.833h40.833zm0 81.667h-40.833V407.5h40.833z"/><path fill="#E7E7E7" d="M122.5 366.667H81.667V407.5H122.5z"/><path fill="#fff" d="M40.834 366.667H.001V407.5h40.833zm163.332 81.666h-40.833v40.833h40.833z"/><path fill="#E7E7E7" d="M40.834 448.333H.001v40.833h40.833z"/><path fill="#fff" d="M122.5 448.333H81.667v40.833H122.5zm-81.666-122.5H.001v40.833h40.833zM122.5 407.5H81.667v40.833H122.5zm-81.666 0H.001v40.833h40.833zm163.332 81.667h-40.833V530h40.833zm-163.332 0H.001V530h40.833zM122.5 285H81.667v40.833H122.5z"/><path fill="#B0B0B0" d="M81.666 285H40.833v40.833h40.833z"/><path fill="#575757" d="M245 366.667h-40.833V407.5H245z"/><path fill="#fff" d="M163.334 366.667h-40.833V407.5h40.833zm-81.668 0H40.833V407.5h40.833zM245 448.333h-40.833v40.833H245zm-163.334 0H40.833v40.833h40.833zM245 325.833h-40.833v40.833H245zm-163.334 0H40.833v40.833h40.833zM245 407.5h-40.833v40.833H245z"/><path fill="#C4C4C4" d="M163.334 407.5h-40.833v40.833h40.833z"/></g><g style="mix-blend-mode:darken" opacity=".5"><path fill="#E7E7E7" d="M450 0h-40.833v40.833H450z"/><path fill="#fff" d="M409.166 0h-40.833v40.833h40.833z"/><path fill="#575757" d="M245.834 0h-40.833v40.833h40.833z"/><path fill="#fff" d="M409.166 81.667h-40.833V122.5h40.833zm-163.332 0h-40.833V122.5h40.833z"/><path fill="#ABABAB" d="M409.166 163.333h-40.833v40.833h40.833z"/><path fill="#B0B0B0" d="M327.5 40.833h-40.833v40.833H327.5z"/><path fill="#E7E7E7" d="M245.834 163.333h-40.833v40.833h40.833z"/><path fill="#B0B0B0" d="M409.166 40.833h-40.833v40.833h40.833z"/><path fill="#fff" d="M327.5 163.333h-40.833v40.833H327.5zm-81.666-122.5h-40.833v40.833h40.833zm0 81.667h-40.833v40.833h40.833zm163.332 81.667h-40.833V245h40.833zm-163.332 0h-40.833V245h40.833zM327.5 0h-40.833v40.833H327.5z"/><path fill="#B0B0B0" d="M368.334 0h-40.833v40.833h40.833zm-81.668 0h-40.833v40.833h40.833z"/><path fill="#fff" d="M368.334 81.667h-40.833V122.5h40.833zm-81.668 0h-40.833V122.5h40.833zM450 163.333h-40.833v40.833H450zm-163.334 0h-40.833v40.833h40.833zM450 40.833h-40.833v40.833H450z"/><path fill="#575757" d="M368.334 40.833h-40.833v40.833h40.833z"/><path fill="#fff" d="M286.666 40.833h-40.833v40.833h40.833zM450 122.5h-40.833v40.833H450z"/><path fill="#C4C4C4" d="M450 204.167h-40.833V245H450zm-163.334 0h-40.833V245h40.833z"/></g></g></svg>