<svg width="21" height="21" fill="none" xmlns="http://www.w3.org/2000/svg"><path d="M18.7 15.606c-.645-.12-1.074-.463-1.232-1.101a1.86 1.86 0 01-.035-.44c-.003-1.224-.003-2.45 0-3.674 0-.902.331-1.343 1.186-1.586a.396.396 0 00.056-.025c-.167-4.03-3.578-7.749-8.147-7.757-4.603-.009-8.014 3.721-8.2 7.763.055.015.115.033.174.048.615.152 1.057.668 1.062 1.297.013 1.372.019 2.745 0 4.117-.013.898-.81 1.49-1.732 1.33-.5-.08-.956-.336-1.288-.722a2.19 2.19 0 01-.53-1.389 55.638 55.638 0 010-2.554C.039 10.09.43 9.467 1.14 9.06a.286.286 0 00.171-.273 9.373 9.373 0 012.1-5.407A9.22 9.22 0 018.273.28c5.104-1.297 10.27 2.03 11.262 7.257.08.413.116.835.156 1.254.012.125.045.195.159.26.742.422 1.126 1.072 1.141 1.93a83.9 83.9 0 010 2.406c-.01.867-.391 1.523-1.141 1.951-.12.068-.143.143-.145.266-.007.5.025 1.005-.047 1.496a3.022 3.022 0 01-2.944 2.582c-.466.01-.934.005-1.4 0a.205.205 0 00-.223.136c-.287.581-.758.883-1.404.887-.503.004-1.006.006-1.509 0-.855-.01-1.503-.645-1.53-1.491a1.516 1.516 0 01.397-1.083 1.489 1.489 0 011.04-.48c.57-.03 1.143-.023 1.714 0 .602.022 1.03.339 1.302.879.029.056.098.134.148.134.578 0 1.16.026 1.732-.035.94-.1 1.687-.96 1.716-1.915.014-.364.003-.73.003-1.109zm1.29-3.398c0-.415.007-.83 0-1.244-.015-.643-.52-1.158-1.122-1.16-.265 0-.427.141-.428.407a583.092 583.092 0 000 3.968c0 .267.163.412.425.41.606 0 1.11-.514 1.125-1.156.006-.406 0-.816 0-1.225zm-17.42-.002c0-.655.002-1.31 0-1.964 0-.303-.161-.446-.462-.437a1.14 1.14 0 00-.763.348 1.16 1.16 0 00-.324.78 73.646 73.646 0 000 2.533c.007.28.115.549.304.755.19.206.447.336.723.364.363.03.52-.113.522-.48v-1.9zm10.365 7.488c.258 0 .516.004.774 0 .31-.007.521-.217.524-.51a.497.497 0 00-.513-.52 44.328 44.328 0 00-1.547 0c-.312.006-.52.226-.516.518.004.293.216.505.525.512.251.004.502 0 .753 0z" fill="#000"/><path d="M7.29 13.605c-.475-.018-.888-.132-1.249-.395-.624-.451-.916-1.076-.916-1.846 0-1.4-.006-2.802 0-4.202.007-1.326.916-2.233 2.234-2.235 2.098-.002 4.196-.002 6.293 0 1.314 0 2.22.91 2.226 2.24a416.41 416.41 0 010 4.182c-.006 1.338-.917 2.248-2.24 2.251-.83 0-1.66.004-2.489-.003a.457.457 0 00-.365.15 95.694 95.694 0 01-1.736 1.74 1.02 1.02 0 01-.912.281 1.016 1.016 0 01-.744-.603 1.568 1.568 0 01-.099-.533c-.015-.335-.004-.672-.004-1.027zm1.005 1.128l.05.027c.056-.05.112-.1.163-.152.588-.59 1.18-1.176 1.761-1.773a.783.783 0 01.611-.252c.913.01 1.825.004 2.737.003.8 0 1.258-.459 1.259-1.268.002-1.371.002-2.744 0-4.117 0-.81-.454-1.263-1.26-1.263H7.407c-.837 0-1.278.445-1.279 1.286v4.074c0 .091.004.182.013.273a1.099 1.099 0 00.916.985c.2.024.402.033.603.028.464.004.63.169.631.633l.001 1.517.002-.001z" fill="#000"/><path d="M10.502 10.095a.737.737 0 01-.686-.462.757.757 0 01.159-.816.74.74 0 011.269.522.765.765 0 01-.219.53.75.75 0 01-.524.226zM8.8 9.344a.751.751 0 01-.457.687.732.732 0 01-.803-.163.748.748 0 01.518-1.273c.197 0 .386.08.525.22s.217.33.217.53zm3.403-.003a.75.75 0 01.463-.683.731.731 0 01.96.415.751.751 0 01-.17.81.734.734 0 01-1.043-.012.75.75 0 01-.21-.53z" fill="#000"/></svg>