<svg width="81" height="81" fill="none" xmlns="http://www.w3.org/2000/svg"><path d="M33.595.034c9.651 0 19.302.058 28.95-.034 2.874-.028 4.615 1.872 4.594 4.557-.082 10.43-.039 20.863-.015 31.294a3.05 3.05 0 00.43 1.485c3.88 6.412 4.485 13.102 1.724 20.068-.245.616-.163.95.291 1.372.888.821 1.724 1.7 2.586 2.558.741.743 1.058 1.635.735 2.646-.143.45 0 .679.284.963 1.724 1.702 3.447 3.392 5.128 5.137 3.11 3.243 1.77 8.485-2.484 9.726-2.235.646-4.204.08-5.854-1.53-1.65-1.61-3.32-3.296-4.956-4.956-.345-.349-.63-.534-1.166-.357-.956.317-1.797-.028-2.495-.716-.903-.885-1.814-1.762-2.674-2.686-.392-.431-.71-.462-1.24-.242a21.794 21.794 0 01-27.365-9.265 19.14 19.14 0 01-1.226-2.534c-.215-.536-.487-.7-1.056-.698-7.77.019-15.538.023-23.306.013-2.972-.008-4.48-1.5-4.48-4.453V4.47C0 1.553 1.508.036 4.402.036L33.595.034zm30.898 10.384H2.586v42.155c0 1.254.43 1.679 1.706 1.679h22.654c.25 0 .5-.028.69-.041-.18-1.43-.431-2.784-.49-4.146a20.665 20.665 0 01.188-4.094c1.232-7.575 5.266-13.143 12.154-16.59a.814.814 0 00.526-.862 360.519 360.519 0 010-6.292c0-1.056.474-1.523 1.528-1.532h4.354c1.452 0 1.858.373 1.858 1.851v4.572h2.555c.01-.185.024-.316.024-.448V14.574c0-1.166.448-1.616 1.6-1.62h4.355c1.379 0 1.784.4 1.786 1.762v13.63c0 .541.145.826.647 1.108 1.333.743 2.618 1.577 3.878 2.433.646.43 1.215 1.006 1.894 1.579V10.418zM2.586 7.722h61.94V4.611c0-1.661-.328-1.993-1.96-1.993H4.526c-.216 0-.431-.011-.647 0-.771.058-1.262.513-1.282 1.28-.034 1.273-.01 2.52-.01 3.824zm65.81 41.389c0-10.674-8.639-19.366-19.285-19.392-10.685-.022-19.403 8.618-19.428 19.245A19.39 19.39 0 0049.05 68.44c10.633.028 19.333-8.67 19.344-19.33zm2.695 17.452l-4.547 4.54c1.814 1.845 3.646 3.805 5.602 5.643 1.226 1.155 3.196.944 4.37-.278a3.172 3.172 0 00.056-4.44c-1.806-1.881-3.687-3.685-5.481-5.473v.008zm-3.379-5.776c-1.034 1.23-2.04 2.598-3.232 3.783-1.192 1.185-2.547 2.18-3.693 3.144l2.452 2.443 6.92-6.91-2.447-2.46zm-12.27-32.708V15.582h-2.498V27.48l2.497.6zm-12.832 0c.765-.172 1.446-.301 2.11-.491.176-.05.43-.282.43-.431.035-1.273.02-2.547.02-3.827h-2.56v4.75z" fill="#DD408B"/><path d="M18.067 28.441h8.761c1.098 0 1.564.49 1.557 1.582-.037 5.386-4.277 10.3-9.623 11.152-7.414 1.18-13.873-4.525-13.589-11.993.216-5.962 5.305-10.965 11.23-11.062 1.194-.02 1.66.431 1.661 1.636v7.741l.003.944zm-8.533 6.703c1.965-1.965 3.846-3.842 5.719-5.73a.778.778 0 00.215-.482c.013-2.682 0-5.367 0-8.153-3.187.584-5.522 2.221-6.85 5.098-1.484 3.182-1.1 6.249.916 9.256v.011zm16.199-4.12h-8.1a.782.782 0 00-.5.188c-1.904 1.883-3.798 3.78-5.77 5.746 2.763 1.886 5.635 2.37 8.681 1.162 3.17-1.252 4.997-3.646 5.689-7.106v.01zm-11.54 20.64H6.772c-1.155 0-1.603-.455-1.607-1.616a408.383 408.383 0 010-4.596c0-1.056.476-1.526 1.532-1.528h15c1.054 0 1.521.477 1.528 1.532.013 1.56.013 3.12 0 4.678 0 1.051-.478 1.523-1.532 1.528-2.502.008-5.001.002-7.5.002zM7.78 49.039h12.816v-2.482H7.78v2.482z" fill="#DD408B"/><path d="M27.1 25.855h-4.914c-1.056 0-1.532-.474-1.534-1.52-.009-3.279-.009-6.555 0-9.83 0-1.097.485-1.554 1.586-1.55 6 .022 11.269 5.282 11.312 11.295 0 1.127-.461 1.601-1.614 1.605H27.1zm-3.847-2.585h6.987c.183 0 .369-.026.552-.041-.343-4.286-4.667-7.541-7.542-7.464l.003 7.505zm25.795 9.034c9.177-.023 16.753 7.524 16.766 16.705.013 9.244-7.464 16.82-16.623 16.847A16.784 16.784 0 0132.266 48.99c-.017-9.15 7.537-16.67 16.782-16.686zm9.05 11.616h.793c1.368 0 1.76.405 1.762 1.786.003 1.381 0 2.801 0 4.191 0 1.364-.407 1.765-1.784 1.767H41.942c-1.047 0-2.096.015-3.143 0-.825-.017-1.35-.487-1.362-1.278-.03-1.724-.03-3.444 0-5.16.013-.8.526-1.257 1.349-1.293.39-.017.782 0 1.155 0v-5.656c-4.525 3.251-6.45 10.87-4.064 15.944h26.325c2.627-6.093-.152-13.22-4.104-15.877v5.576zm2.812 12.962H37.166c2.962 4.129 6.834 6.352 11.79 6.378 5.022.02 8.952-2.198 11.954-6.378zm-20.868-7.849h17.965V46.54H40.042v2.493zm10.241-5.143v-8.93h-2.49v8.923l2.49.007zm2.67-8.477v8.455h2.538c0-2.383 0-4.714-.015-7.045a.733.733 0 00-.354-.533c-.672-.308-1.374-.564-2.17-.883v.006zm-7.822 8.475v-8.492c-.816.334-1.558.62-2.282.948a.57.57 0 00-.25.431c-.017 2.355-.01 4.71-.01 7.11l2.542.003z" fill="#DD408B"/></svg>