<svg width="24" height="24" fill="none" xmlns="http://www.w3.org/2000/svg"><path d="M21 15v4a2 2 0 01-2 2H5a2 2 0 01-2-2v-4" stroke="#C4C4C4" stroke-width="2" stroke-linecap="square" stroke-linejoin="round"/><path d="M21 15v4a2 2 0 01-2 2H5a2 2 0 01-2-2v-4" stroke="url(#paint0_linear_474_2665)" stroke-width="2" stroke-linecap="square" stroke-linejoin="round"/><path d="M7 10l5 5 5-5" stroke="#C4C4C4" stroke-width="2" stroke-linecap="square" stroke-linejoin="round"/><path d="M7 10l5 5 5-5" stroke="url(#paint1_linear_474_2665)" stroke-width="2" stroke-linecap="square" stroke-linejoin="round"/><path d="M12 15V3" stroke="#C4C4C4" stroke-width="2" stroke-linecap="round" stroke-linejoin="round"/><path d="M12 15V3" stroke="url(#paint2_linear_474_2665)" stroke-width="2" stroke-linecap="round" stroke-linejoin="round"/><defs><linearGradient id="paint0_linear_474_2665" x1="20.203" y1="15" x2="1.593" y2="17.642" gradientUnits="userSpaceOnUse"><stop stop-color="#E11F26"/><stop offset="1" stop-color="#DD408B"/></linearGradient><linearGradient id="paint1_linear_474_2665" x1="16.557" y1="10" x2="6.104" y2="10.989" gradientUnits="userSpaceOnUse"><stop stop-color="#E11F26"/><stop offset="1" stop-color="#DD408B"/></linearGradient><linearGradient id="paint2_linear_474_2665" x1="12.956" y1="3" x2="11.901" y2="3.004" gradientUnits="userSpaceOnUse"><stop stop-color="#E11F26"/><stop offset="1" stop-color="#DD408B"/></linearGradient></defs></svg>