<svg width="93" height="80" fill="none" xmlns="http://www.w3.org/2000/svg"><g clip-path="url(#clip0_96_9710)" fill="#DD408B"><path d="M0 6.656a1.78 1.78 0 00.108-.24C1.411 1.899 3.926 0 8.611 0h75.503c3.931 0 6.945 2.167 7.877 5.715.187.728.28 1.478.277 2.23.014 18.296.014 36.592 0 54.888 0 4.622-3.305 7.925-7.964 7.956-4.658.032-9.251 0-13.876 0h-1.225v.891c0 2.133-.015 4.266 0 6.399 0 .82-.195 1.485-1.023 1.813-.828.327-1.373-.094-1.905-.638-1.547-1.59-3.108-3.168-4.728-4.815l-4.333 4.348c-.24.24-.462.481-.703.698-.496.481-1.06.676-1.726.387a1.493 1.493 0 01-.941-1.497v-7.598H52.62c-14.416 0-28.834-.082-43.249.048-4.59.049-8.255-1.733-9.372-6.666V6.656zm53.844 61.05v-1.204c0-7.704.036-15.381-.036-23.07 0-1.245-.45-2.497-.795-3.717-.072-.258-.578-.499-.917-.559-2.576-.457-3.943-2.453-3.322-4.98.161-.663 0-1.048-.588-1.404-2.22-1.33-2.694-3.758-1.146-5.86.412-.56.383-.963-.021-1.519-1.539-2.092-1.055-4.475 1.191-5.85.597-.366.723-.768.554-1.42-.619-2.487.797-4.574 3.37-4.947.653-.094.937-.39 1.03-1.016.393-2.588 2.408-3.968 4.929-3.37.69.165 1.097 0 1.47-.634 1.262-2.138 3.751-2.636 5.725-1.175.61.458 1.057.482 1.671.015 1.972-1.459 4.463-.978 5.744 1.148.4.67.836.807 1.555.629 2.362-.588 4.519.857 4.842 3.276.096.722.373 1.03 1.107 1.134 2.49.351 3.895 2.46 3.293 4.916-.168.69-.012 1.105.617 1.48 2.166 1.298 2.648 3.741 1.133 5.797-.438.592-.406 1.016.022 1.594 1.507 2.02 1.002 4.49-1.184 5.79-.6.356-.751.753-.6 1.403.597 2.564-.744 4.543-3.31 4.986-.325.055-.806.24-.886.481-.354 1.062-.818 2.167-.83 3.253-.077 6.548-.044 13.096-.032 19.644 0 .828-.062 1.601-.936 1.957-.874.357-1.478-.077-2.066-.68-1.526-1.57-3.084-3.114-4.716-4.758-.532.648-1.384 1.204-1.444 1.827-.169 2.232-.065 4.488-.065 6.84H83.94c3.435 0 5.255-1.842 5.255-5.297V8.426c0-3.53-1.803-5.345-5.296-5.345H8.397c-3.515 0-5.325 1.808-5.328 5.32v53.972c0 3.517 1.808 5.33 5.32 5.33h45.455v.002zm21.3-27.1c.612 0 .845-.323.937-.887.349-2.166 1.386-3.223 3.539-3.61.81-.14 1.073-.509.893-1.3-.482-2.119.072-3.453 1.952-4.65.65-.413.74-.842.287-1.48-1.288-1.815-1.279-3.25-.022-5.04.505-.723.436-1.046-.32-1.525-1.784-1.126-2.376-2.55-1.912-4.6.203-.891 0-1.182-.934-1.322-1.887-.286-3.156-1.521-3.474-3.385-.185-1.093-.373-1.223-1.408-.984-1.87.433-3.445-.224-4.47-1.868-.537-.86-.824-.918-1.642-.337-1.606 1.14-3.267 1.15-4.842.028-.88-.628-1.121-.577-1.7.345-.993 1.591-2.58 2.255-4.405 1.846-1.083-.24-1.252-.137-1.444.927-.361 1.964-1.546 3.118-3.525 3.43-.857.135-1.068.444-.888 1.29.448 2.102-.127 3.523-1.873 4.616-.804.505-.862.809-.308 1.581 1.182 1.65 1.187 3.262.02 4.907-.583.818-.525 1.105.339 1.642 1.66 1.037 2.29 2.554 1.849 4.468-.224.963-.06 1.225.924 1.408 2.01.378 3.108 1.48 3.471 3.488.171.947.42 1.117 1.337.918 2.027-.439 3.478.154 4.538 1.856.53.847.825.905 1.646.31 1.577-1.14 3.27-1.146 4.837-.014.86.62 1.12.568 1.685-.359.992-1.594 2.564-2.246 4.4-1.822.181.053.357.089.513.123zM56.971 74.754c1.153-1.18 2.114-2.166 3.086-3.151 1.124-1.134 1.815-1.134 2.959.022.98.992 1.926 2.007 3.072 3.194V63.832c-.708.643-1.401 1.033-2.246.568-.845-.465-.768-1.326-.768-2.143V46.206c-1.953-.24-2.622-.698-3.638-2.2a1.312 1.312 0 00-.912-.535c-.516 0-1.035.188-1.546.299l-.007 30.985zm18.313-15.453V43.713a2.997 2.997 0 01-.672-.091c-1.025-.404-1.584-.017-2.166.9-1.127 1.784-3.563 2.14-5.328.94-.28-.191-.563-.376-.91-.605v14.476c1.141-1.156 2.143-2.184 3.159-3.2 1.015-1.016 1.742-.997 2.76 0 1.02.997 2.02 2.037 3.157 3.168z"/><path d="M9.215 35.389v-14.87c0-4.929 3.254-8.203 8.185-8.208 8.862-.012 17.723-.012 26.582 0 .3-.009.6.012.896.06a1.505 1.505 0 01-.077 2.98c-.358.038-.719.05-1.079.04h-26.05c-3.597 0-5.383 1.778-5.383 5.356v29.37c0 3.416 1.813 5.246 5.207 5.246H45.34c.39-.015.78.014 1.163.086a1.507 1.507 0 01-.186 2.962c-.24.024-.48.033-.722.026H17.3c-3.922 0-6.914-2.217-7.81-5.778a10.225 10.225 0 01-.267-2.407c-.02-4.952-.007-9.909-.007-14.863z"/><path d="M23.993 48.52c-1.204 1.78-2.925 2.89-4.9 3.638-1.203.448-2.366-.394-2.113-1.562.104-.481.57-.946.992-1.254.6-.438 1.326-.691 1.964-1.079 1.3-.794 1.948-1.983 2.02-3.507.048-.98.518-1.572 1.322-1.654.876-.092 1.413.38 1.71 1.163a6.134 6.134 0 002.566 3.16c.864.537 1.203.379 1.372-.628.123-.722.481-1.235 1.22-1.377.74-.142 1.26.24 1.738.84.422.528.992 1.098 1.606 1.281 2.53.756 5.094 1.377 7.774 1.32 1.105-.025 1.815.645 1.79 1.569-.021.888-.721 1.478-1.788 1.485-3.587.03-7.01-.77-10.385-2.044-2.073 1.495-4.016 1.308-6.888-1.35zm5.113-11.586h-9.991c-.27.012-.54.006-.809-.019a1.526 1.526 0 01-1.367-1.615 1.476 1.476 0 011.459-1.423c.657-.036 1.319-.012 1.978-.012h19.536c.963.045 1.565.611 1.587 1.48.021.908-.597 1.558-1.589 1.577-1.589.032-3.18 0-4.771 0l-6.033.012zm.16-9.218h10.44c.723 0 1.31.178 1.647.857a1.482 1.482 0 01-.903 2.102 4.01 4.01 0 01-1.153.116H18.505c-.978-.075-1.606-.723-1.57-1.613.036-.891.645-1.445 1.62-1.445 3.57-.026 7.14-.017 10.71-.017zm-.081-3.079h-10.08a3.94 3.94 0 01-1.066-.1 1.505 1.505 0 01.193-2.938c.297-.035.596-.047.895-.036h20.16c.3-.01.6 0 .898.031.785.116 1.24.583 1.302 1.372a1.384 1.384 0 01-1.066 1.563 3.853 3.853 0 01-1.067.108c-3.39.005-6.779.005-10.169 0zM66.15 38.456A12.297 12.297 0 1178.428 26.12 12.277 12.277 0 0166.15 38.456zm-.02-3.087a9.218 9.218 0 10-9.205-9.213 9.184 9.184 0 009.206 9.213z"/></g><defs><clipPath id="clip0_96_9710"><path fill="#fff" d="M0 0h92.28v80H0z"/></clipPath></defs></svg>