<svg width="81" height="82" fill="none" xmlns="http://www.w3.org/2000/svg"><path d="M64.416 70.932c-.648-.069-1.299-.123-1.943-.214-1.217-.173-1.95.375-2.33 1.57-.356 1.126-.727 2.274-1.319 3.296-1.396 2.393-3.598 3.244-6.253 2.472a17.072 17.072 0 01-2.958-1.271c-1.364-.7-2.14-.494-3.043.707a11.423 11.423 0 01-2.166 2.252c-2.29 1.739-4.802 1.68-7.027-.143a17.024 17.024 0 01-2.164-2.275c-.898-1.071-1.744-1.18-2.977-.532a14.233 14.233 0 01-3.438 1.365c-2.302.512-4.256-.296-5.523-2.275-.705-1.099-1.138-2.398-1.565-3.64-.414-1.185-1.138-1.592-2.362-1.551-1.48.057-3.018.086-4.45-.24-2.295-.52-3.507-2.222-3.755-4.515a17.24 17.24 0 01.059-3.39c.116-1.317-.355-2.02-1.622-2.343a13.975 13.975 0 01-2.73-.92c-2.841-1.402-3.883-3.854-2.934-6.87a16.58 16.58 0 011.2-2.713c.733-1.387.599-2.133-.666-3.048-1.592-1.158-2.957-2.514-3.367-4.532-.5-2.454.826-5.184 3.226-6.71 1.463-.933 1.593-1.613.792-3.165a16.021 16.021 0 01-1.306-3.212c-.671-2.589.253-4.777 2.589-6.053 1-.55 2.14-.878 3.25-1.188 1.11-.31 1.689-1.049 1.593-2.23a19.588 19.588 0 01-.102-3.302c.239-2.862 2.1-4.741 4.97-5.03a18.044 18.044 0 013.315.052c1.208.105 1.931-.343 2.295-1.506.296-.971.578-1.958 1.04-2.868 1.415-2.75 3.983-3.824 6.934-2.903.91.31 1.783.718 2.604 1.217 1.138.653 2.048.494 2.908-.528a16.988 16.988 0 012.23-2.325c2.274-1.82 4.801-1.842 7.094-.034.805.672 1.52 1.444 2.13 2.298.773 1.028 1.617 1.255 2.789.698 1.171-.557 2.3-1.137 3.517-1.444 2.361-.617 4.381.168 5.66 2.229.682 1.09 1.112 2.345 1.52 3.572.406 1.226 1.073 1.717 2.386 1.592a17.41 17.41 0 013.3-.068c2.683.261 4.55 2.065 4.882 4.752.112 1.15.1 2.308-.036 3.456-.118 1.267.287 1.956 1.515 2.36 1.032.3 2.038.68 3.01 1.138 2.757 1.424 3.7 3.729 2.752 6.693-.337.961-.759 1.89-1.26 2.778-.64 1.212-.466 1.986.571 2.905.93.82 1.879 1.665 2.614 2.654 1.504 2.025 1.483 4.204-.052 6.215-.73.956-1.67 1.768-2.59 2.557-1.007.86-1.137 1.62-.573 2.832.621 1.35 1.252 2.742 1.547 4.184.435 2.107-.516 3.808-2.318 4.898a17.042 17.042 0 01-3.412 1.465c-1.567.525-1.904 1.046-1.768 2.67.1 1.177.169 2.4-.045 3.547-.571 3.055-2.83 4.64-6.238 4.614zm.548-3.752c1.82.123 2.38-.468 2.2-2.25-.034-.339-.089-.682-.127-1.014-.455-3.84 1.04-6.192 4.702-7.403.564-.186 1.137-.327 1.697-.552 1.162-.48 1.563-1.62.992-2.73-.118-.228-.26-.44-.385-.662-2.322-4.161-1.67-7.07 2.212-9.823 1.349-.958 1.4-2.275.134-3.388-.64-.56-1.317-1.085-1.909-1.692-1.654-1.692-2.159-3.699-1.399-5.951.321-.906.719-1.784 1.188-2.623.81-1.497.389-2.643-1.227-3.185-.887-.298-1.792-.553-2.643-.933-1.87-.832-3.08-2.26-3.264-4.322-.117-1.285 0-2.596.072-3.894.073-1.3-.473-1.97-1.82-1.977-.652 0-1.31.143-1.954.088-1.203-.1-2.472-.095-3.58-.498-2.312-.864-3.301-2.898-3.727-5.139-.39-2.047-1.797-2.336-3.312-1.576a25.45 25.45 0 01-2.882 1.249c-1.895.682-3.64.38-5.132-1.01a30.126 30.126 0 01-2.154-2.291c-1.008-1.167-2.316-1.21-3.365-.082a33.068 33.068 0 01-2.3 2.389c-1.342 1.18-2.957 1.592-4.682 1.107a17.363 17.363 0 01-3.21-1.303c-1.63-.846-2.672-.494-3.31 1.242-.35.958-.662 1.934-1.073 2.864-.792 1.777-2.182 2.835-4.13 2.957-1.294.09-2.6-.02-3.9-.047-1.34-.028-2.075.707-2.01 2.047.023.482.087.96.14 1.44.404 3.758-1.21 6.245-4.807 7.382-.323.102-.656.184-.985.26-1.77.411-2.307 1.653-1.402 3.252 2.519 4.448 1.984 7.066-2.088 10.203-1.308 1.008-1.317 2.262-.068 3.338a23.02 23.02 0 012.352 2.227c1.397 1.612 1.706 3.487.976 5.48-.332.873-.728 1.72-1.185 2.534-.867 1.593-.34 2.82 1.442 3.244.227.055.441.107.657.168 3.886 1.115 5.58 3.668 5.085 7.66-.362 2.928.214 3.442 3.185 3.185 4.55-.41 6.26 1.11 7.343 4.55.189.624.417 1.237.682 1.833.562 1.224 1.63 1.542 2.814.91.718-.4 1.455-.763 2.21-1.087 2.597-1.058 4.883-.571 6.813 1.485.502.54.976 1.108 1.471 1.654 1.008 1.108 2.337 1.087 3.301-.036a53.205 53.205 0 011.577-1.786c1.82-1.938 3.949-2.439 6.408-1.347.878.391 1.745.817 2.63 1.192 1.428.607 2.439.08 2.828-1.413.183-.77.422-1.527.714-2.263.896-2.134 2.48-3.44 4.82-3.64 1.115-.105 2.255-.023 3.385-.023z" fill="#DD408B"/><path d="M40.924 66.439a25.42 25.42 0 1125.415-25.374 25.41 25.41 0 01-25.415 25.374zm-21.791-25.46a21.796 21.796 0 1021.889-21.76 21.839 21.839 0 00-21.889 21.76z" fill="#DD408B"/><path d="M37.214 45.767c.355-.337.582-.544.8-.762 4.054-4.054 8.11-8.106 12.167-12.155a3.117 3.117 0 011.16-.814 1.645 1.645 0 011.95.669 1.713 1.713 0 01.015 2.067 4.735 4.735 0 01-.623.697c-4.55 4.55-9.104 9.105-13.663 13.667-1.317 1.317-2.13 1.315-3.456-.011-2.208-2.21-4.415-4.417-6.622-6.62-.587-.585-.91-1.238-.618-2.07.455-1.322 2.017-1.636 3.102-.578 1.73 1.683 3.413 3.4 5.124 5.111.218.221.4.48.664.799z" fill="#DD408B"/></svg>