<svg width="67" height="81" fill="none" xmlns="http://www.w3.org/2000/svg"><path d="M50.91 51.91c2.985 0 5.709.61 8.165 2.115 4.773 2.922 7.37 7.184 7.514 12.8.108 4.237.029 8.479.027 12.718 0 1.086-.365 1.455-1.424 1.455H1.475c-1.081 0-1.452-.358-1.452-1.424 0-4.321-.055-8.644.022-12.965.126-7.19 5.771-13.504 12.897-14.51.84-.12 1.7-.135 2.635-.206-.068-.927.528-1.251 1.324-1.476a208.47 208.47 0 006.477-1.97c.36-.118.808-.467.905-.798.41-1.392.722-2.813 1.018-4.235a.896.896 0 00-.318-.675c-2.642-2.238-4.096-5.15-4.882-8.437a1.03 1.03 0 00-.732-.863c-1.578-.593-2.503-1.765-2.77-3.416a9.884 9.884 0 01-.104-2.381 4.193 4.193 0 011.933-3.344 18.717 18.717 0 01-2.405-6.294c-.404-2.277-.441-4.53.373-6.75 1.496-4.05 4.493-6.116 8.686-6.59a2.317 2.317 0 001.496-.691c2.523-2.472 5.665-3.246 9.062-2.895A17.56 17.56 0 0144.467 4.5c3.93 2.947 5.297 7.014 4.995 11.763-.175 2.688-.92 5.24-1.925 7.724 2.78 1.287 2.975 4.657 2.066 7.14-.442 1.174-1.355 1.897-2.498 2.387a1.21 1.21 0 00-.638.704c-.808 3.348-2.297 6.288-4.95 8.576a.966.966 0 00-.265.78c.285 1.365.587 2.734.986 4.069.1.33.545.677.903.792 2.174.704 4.365 1.353 6.557 1.986.741.219 1.266.567 1.211 1.49zM25.4 13.446c-.254.313-.684.85-1.119 1.381-2.344 2.87-2.913 6.208-2.681 9.773.072 1.103-.221 1.414-1.287 1.564a1.836 1.836 0 00-1.08.486c-1.337 1.558-.332 4.482 1.67 4.855.785.148 1.07.558 1.248 1.293.343 1.408.663 2.85 1.252 4.162 3.55 7.958 14.075 8.256 18.513 2.119a13.865 13.865 0 002.48-6.3c.102-.722.42-1.15 1.177-1.254.858-.12 1.726-.455 1.909-1.342.178-.988.207-1.996.086-2.993-.075-.752-.717-1.041-1.465-1.044-1.124 0-1.435-.333-1.525-1.445-.16-1.986-.691-3.849-1.934-5.438-1.012-1.295-2.328-2.156-4.04-1.986-2.649.245-5.255 0-7.704-1.024-1.788-.748-3.465-1.759-5.5-2.807zm30.186 41.49c1.147 2.376 1.637 4.711 1.847 7.105.048.568.22.83.768 1.057a4.463 4.463 0 012.383 5.847 4.524 4.524 0 11-6.047-5.849c.26-.126.618-.465.6-.682-.205-2.683-.701-5.296-2.31-7.547a1.69 1.69 0 00-1.125-.616c-1.905-.11-1.907-.077-2.748 1.613l-.331.663c-.991 1.986-.991 1.986.477 3.64.823.932.847 1.197.194 2.252l-9.518 15.38c-.166.267-.318.543-.506.862h25a2.73 2.73 0 00.055-.364c0-3.934.064-7.872-.04-11.804-.097-3.686-1.703-6.725-4.467-9.146a11.917 11.917 0 00-4.232-2.412zM7.548 71.567c.153-.042.254-.075.358-.102.801-.2 1.36.024 1.576.633.22.662-.075 1.223-.854 1.545-.356.146-.726.256-1.08.41-.64.279-1.132.06-1.513-.456-2.415-3.275-1.698-7.775 1.633-10.063.408-.28.483-.568.507-1.007a26 26 0 01.34-3.53c.22-1.162.662-2.278 1.04-3.47-.398.22-.768.402-1.104.625-3.992 2.601-6.078 6.276-6.128 11.034-.038 3.58 0 7.157 0 10.734 0 .236.037.472.06.728h24.87c-.505-.827-.955-1.57-1.414-2.31a17074.04 17074.04 0 00-8.697-14.032c-.578-.93-.55-1.215.176-2.045.382-.442.753-.883 1.163-1.287.334-.329.347-.618.124-1.02-.41-.743-.883-1.485-1.126-2.288-.403-1.293-1.229-1.688-2.467-1.452-.602.115-1.368.097-1.765.461-2.256 2.072-2.741 4.809-2.779 7.687.086.032.176.055.267.068 3.688-.402 7.839 3.2 7.212 8.22-.081.645-.39 1.082-1.006 1.104a5.002 5.002 0 01-1.86-.267 1.234 1.234 0 01-.647-.922c0-.362.313-.762.572-1.077.127-.155.44-.161.662-.221a4.822 4.822 0 00-3.21-4.339 4.096 4.096 0 00-4.464 1.324c-1.258 1.503-1.434 3.483-.446 5.315zm11.794-50.436l.082-.563c.565-3.752 2.16-6.908 5.263-9.2 1.104-.813 1.388-.773 2.452.096 3.337 2.728 7.148 3.92 11.456 3.5a4 4 0 01.984.02c3.017.47 4.88 2.357 6.129 4.992.14.298.264.605.397.905l.243-.022c.271-1.51.648-3.008.794-4.529.397-4.243-.832-7.83-4.502-10.332a15.572 15.572 0 00-6.885-2.613c-3.064-.373-5.897.24-8.02 2.714a2.043 2.043 0 01-1.704.775c-3.873.03-6.766 2.207-7.678 5.895-.284 1.15-.282 2.4-.22 3.592.09 1.654.5 3.273 1.209 4.77zm10.997 57.573c1.746 0 3.372-.034 4.996.015.662.02.883-.205.974-.856.558-3.89 1.167-7.777 1.765-11.666.336-2.218.662-4.438.986-6.62H27.443l2.896 19.127zm-2.626-34.269c-.59 1.721-1.155 3.348-1.695 4.981a1.472 1.472 0 000 .645c.313 2.12.662 4.239.94 6.362.07.523.29.726.772.726h11.066c.523 0 .695-.276.759-.75.172-1.307.309-2.627.587-3.913.373-1.724.527-3.394-.426-4.992a1.45 1.45 0 01-.121-.393l-.636-2.703c-3.807 1.642-7.58 1.642-11.246.037zm-.492 29.738l.112-.049c-1.178-7.781-2.359-15.56-3.548-23.393l-5.416 1.631c.702 1.413 1.38 2.752 2.035 4.103 1.34 2.756 1.498 2.123-.574 4.414-.395.441-.442.739-.12 1.264 2.375 3.772 4.708 7.568 7.063 11.355.136.231.295.452.448.675zM42.715 50.72c-1.18 7.82-2.346 15.524-3.511 23.226.22 0 .271-.038.3-.08 2.467-3.972 4.94-7.945 7.38-11.935a.925.925 0 00-.06-.827 15.724 15.724 0 00-1.3-1.494 1.26 1.26 0 01-.207-1.585c.483-.927.94-1.867 1.404-2.803.463-.935.913-1.856 1.408-2.869l-5.414-1.633zm13.652 18.704a2.208 2.208 0 002.27-2.207 2.232 2.232 0 00-4.462 0 2.207 2.207 0 002.192 2.207z" fill="#DD408B"/></svg>