<svg width="80" height="80" fill="none" xmlns="http://www.w3.org/2000/svg"><g clip-path="url(#clip0_22_6405)" fill="#DD408B"><path d="M41.083 79.963h-2.18a2.152 2.152 0 00-.36-.131c-2.97-.536-5.227-2.084-6.669-4.744-.268-.495-.631-.446-1.036-.446-9.101 0-18.194-.026-27.297.02C1.884 74.67.66 74.202 0 72.62V16.699c.618-1.565 1.788-2.19 3.44-2.05.608.05 1.226 0 1.883 0V9.936c0-2.314.959-3.283 3.26-3.283 5.857 0 11.714-.011 17.57.014a1.635 1.635 0 001.431-.685 15.866 15.866 0 0124.845.026 1.565 1.565 0 001.37.667c5.96-.023 11.921-.027 17.883-.012 1.94 0 2.977 1.063 2.99 3.003v4.99c.754 0 1.38-.04 1.998.012.618.053 1.325.071 1.886.33 1.15.53 1.45 1.576 1.448 2.789-.012 17.829-.012 35.656 0 53.482 0 2.44-.943 3.37-3.414 3.37-9.137 0-18.274-.003-27.41-.011-.561 0-.833.196-1.174.644a19.788 19.788 0 01-2.457 2.785c-1.24 1.139-2.862 1.524-4.466 1.906zm-2.506-23.928c.035-.174.06-.35.076-.528 0-7.677.004-15.353.012-23.03 0-.477-.196-.556-.624-.667-1.7-.448-3.492-.744-5.048-1.508-7.07-3.483-10.384-10.956-8.375-18.574.208-.782.507-1.551.767-2.336H8.037V53.29h.978c7.238 0 14.477.038 21.715-.017 2.907-.022 5.562.555 7.847 2.762zm2.8-.108c.098-.031.192-.075.281-.129 2.03-1.866 4.46-2.53 7.172-2.517 7.39.033 14.782 0 22.175 0h.945V9.357H54.562c.17.464.327.869.47 1.278 1.432 4.122 1.306 8.202-.587 12.129-2.48 5.15-6.629 8.158-12.284 8.999-.75.111-.842.405-.842 1.037.016 7.416.02 14.832.012 22.249.004.28.03.552.045.878zM77.274 71.97V17.36h-2.606v48.595c0 2.392-.965 3.355-3.367 3.357H8.732c-2.452 0-3.409-.955-3.409-3.395V17.382H2.717v54.595h.978c9.348 0 18.697.018 28.044-.021 1.174 0 1.777.414 2.258 1.463 1.174 2.531 3.253 3.854 6.014 3.848 2.76-.006 4.84-1.344 5.996-3.877.468-1.025 1.078-1.434 2.203-1.43 9.373.03 18.747.017 28.122.017l.943-.008zm-37.38-42.655c7.213.144 13.247-5.764 13.41-13.133.163-7.295-5.708-13.366-13.087-13.528C32.9 2.49 26.837 8.39 26.686 15.823c-.15 7.316 5.75 13.34 13.21 13.49zM8.021 66.594h30.714c-.084-1.84.055-3.667-.293-5.398-.67-3.326-3.353-5.23-6.98-5.233a10888.6 10888.6 0 00-22.574 0c-.28 0-.558.023-.838.037v3.97h23.251a5.69 5.69 0 01.857.027 1.313 1.313 0 01-.03 2.607 6.57 6.57 0 01-.856.024H8.02v3.965zm63.937-10.565a5.113 5.113 0 00-.566-.063c-7.708 0-15.416-.023-23.124 0-3.057.014-5.477 1.636-6.456 4.197-.8 2.087-.39 4.251-.488 6.42h30.624v-3.955H48.386c-1.094 0-1.675-.456-1.692-1.297-.018-.841.587-1.354 1.707-1.37h23.564l-.007-3.932z"/><path d="M21.29 39.974h-8.975c-1.064 0-1.71-.587-1.622-1.448.072-.704.587-1.174 1.393-1.201 1.066-.026 2.132 0 3.2 0h15.375c.763.062 1.303.587 1.329 1.283a1.346 1.346 0 01-1.335 1.356c-.673.037-1.351.014-2.028.014l-7.336-.004zm.12 4.006h8.584c.313-.01.625.008.934.053a1.289 1.289 0 01.148 2.495 3.579 3.579 0 01-1.001.113H12.593a5.097 5.097 0 01-.546-.012c-.83-.092-1.37-.618-1.37-1.328 0-.753.558-1.309 1.44-1.315 3.097-.02 6.192 0 9.29 0l.003-.006zm-2.794-10.685H12.13c-.6 0-1.144-.212-1.303-.783-.111-.391-.076-1 .163-1.29.268-.326.825-.514 1.28-.563.823-.086 1.662-.025 2.495-.025h9.917c.262-.008.524.007.783.045.741.131 1.195.653 1.173 1.326a1.283 1.283 0 01-1.31 1.274c-1.092.037-2.188.018-3.281.02H18.61l.005-.004zm39.97 6.679c-2.965 0-5.933.025-8.897-.028a2.138 2.138 0 01-1.413-.596c-.618-.69-.14-1.787.783-1.99.283-.044.57-.06.855-.045h17.952c.864.043 1.447.575 1.449 1.322.002.748-.587 1.32-1.444 1.327-2.392.021-4.787 0-7.18.01h-2.105zm.082 4.008h8.82c.358 0 .829-.037 1.046.162.346.317.738.834.71 1.239-.027.405-.493.841-.868 1.13-.227.175-.65.126-.979.126H49.525c-.932-.06-1.523-.587-1.515-1.35.008-.763.587-1.303 1.534-1.309 3.038-.008 6.08.002 9.124.002zm2.575-10.685h-5.936a5.404 5.404 0 01-.855-.041 1.212 1.212 0 01-1.091-1.229 1.184 1.184 0 01.92-1.285 3.882 3.882 0 011-.106c4.035-.008 8.07-.008 12.105 0h.467c.886.069 1.452.587 1.46 1.325.01.782-.578 1.322-1.51 1.33-2.186.016-4.373.004-6.56.006zM38.66 18.607v-4.604c0-.21 0-.418.013-.624.082-.859.565-1.37 1.305-1.37s1.248.49 1.34 1.335c.015.181.02.364.016.546v9.517c0 1.26-.468 1.896-1.358 1.884-.89-.012-1.309-.634-1.317-1.846v-4.838zm2.671-11.243v.391c-.052.95-.541 1.528-1.306 1.548-.798.02-1.323-.572-1.37-1.566a8.78 8.78 0 01.047-1.242c.082-.735.568-1.095 1.256-1.158.652-.059 1.203.458 1.319 1.174.043.282.043.57.064.853h-.01z"/></g><defs><clipPath id="clip0_22_6405"><path fill="#fff" d="M0 0h80v79.963H0z"/></clipPath></defs></svg>