<svg width="81" height="81" fill="none" xmlns="http://www.w3.org/2000/svg"><path d="M80.991 57.027c-.342.452-.636.951-1.033 1.35a30512.606 30512.606 0 01-20.586 20.617 3.157 3.157 0 01-2.414 1.014c-15.7-.02-31.4-.024-47.1-.014-5.327 0-8.865-3.532-8.865-8.854V22.165a9.933 9.933 0 011.1-4.736c1.544-2.935 4.109-4.072 7.277-4.097 4.32-.036 8.643-.012 12.966 0 .804 0 1.507.234 1.84 1.048.256.629.213 1.327-.33 1.717a3.17 3.17 0 01-1.704.563c-4.088.047-8.175.022-12.263.027a11.11 11.11 0 00-1.636.079 4.45 4.45 0 00-3.798 3.9 12.87 12.87 0 00-.122 1.712C4.322 38.593 4.32 54.81 4.32 71.032c0 2.235.722 4.072 2.821 5.058a6.38 6.38 0 002.632.558c15.154.034 30.307.042 45.46.023.23 0 .457-.025.766-.043V63.723c0-5.158 3.58-8.72 8.753-8.727 1.483 0 2.968-.018 4.451.01.96.015 1.566.534 1.742 1.37a1.607 1.607 0 01-.959 1.776 3.198 3.198 0 01-1.068.155c-1.433.017-2.865-.012-4.305.012-3.076.05-5.168 1.939-5.266 5-.114 3.537-.027 7.08-.023 10.62 0 .044.043.085.101.197.18-.157.354-.292.509-.447 5.74-5.74 11.487-11.48 17.24-17.22a1.668 1.668 0 00.5-1.31c-.011-10.86-.015-21.717-.01-32.574v-.782c.046-.951.474-1.525 1.284-1.728.81-.204 1.415.135 1.897.994.042.063.087.124.136.182l.01 35.776z" fill="#DD408B"/><path d="M51.618 0c2.037.66 2.78 2.092 2.72 4.182-.086 2.913-.016 5.831-.024 8.747 0 2.4-1.322 3.74-3.718 3.743-6.405.013-12.81.013-19.215 0-2.39 0-3.705-1.342-3.718-3.743 0-2.916.062-5.834-.024-8.747-.06-2.09.683-3.523 2.72-4.182h21.259zm-.675 13.287v-9.9H31.044v9.9h19.899zm-9.926 6.711h9.604c2.348 0 3.681 1.327 3.69 3.671a975.11 975.11 0 010 9.368c-.01 2.258-1.328 3.62-3.58 3.627-6.481.024-12.96.024-19.439 0-2.264 0-3.599-1.355-3.612-3.598a758.98 758.98 0 010-9.448c.012-2.289 1.36-3.616 3.659-3.621 3.225-.005 6.452.001 9.678.001zm-9.98 3.36v9.908h19.91v-9.908h-19.91zm10 16.639h9.526c2.438 0 3.745 1.311 3.75 3.769.009 3.045.009 6.09 0 9.134 0 2.444-1.316 3.765-3.76 3.77-6.375.01-12.751.01-19.128 0-2.44 0-3.745-1.33-3.751-3.78-.008-3.044-.008-6.09 0-9.134 0-2.45 1.317-3.757 3.76-3.759 3.202-.002 6.403-.002 9.603 0zm9.905 13.287v-9.9H31.044v9.9h19.898zm12.632-26.609h1.281c1.458 0 2.916.022 4.374 0 1.197-.023 1.747-.55 1.761-1.726.02-4.426.02-8.852 0-13.277 0-1.14-.61-1.655-1.894-1.659-3.072-.012-6.145 0-9.217 0a3.95 3.95 0 01-.927-.082 1.566 1.566 0 01-1.245-1.732 1.59 1.59 0 011.462-1.473c.154-.02.31-.03.466-.03 3.203 0 6.404-.027 9.606 0 2.514.03 4.305 1.352 4.892 3.573.13.557.192 1.129.182 1.7.013 4.269.021 8.538 0 12.808-.012 2.544-1.264 4.372-3.446 4.988a8.006 8.006 0 01-2.006.231c-1.761.03-3.522.01-5.283.01l-.128.195c.613.587 1.282 1.112 1.816 1.762.34.412.67.988.675 1.495.018 1.22-1.39 1.92-2.448 1.291-.22-.137-.423-.3-.604-.487-1.495-1.487-2.992-2.974-4.472-4.475-.988-1.002-.997-1.863-.029-2.848 1.499-1.52 3.02-3.019 4.522-4.535.587-.587 1.233-.893 2.04-.574 1.126.442 1.353 1.8.465 2.777-.587.652-1.223 1.272-1.836 1.908-.017-.006-.007.03-.007.16zM18.393 49.996h-5.305c-3.475-.01-5.402-1.935-5.412-5.43-.01-4.164-.01-8.33 0-12.496.01-3.489 1.927-5.383 5.432-5.393 3.072-.008 6.144-.008 9.216 0 1.151 0 1.822.501 1.957 1.392.16 1.12-.6 1.915-1.894 1.923-2.544.014-5.101 0-7.653 0-.677 0-1.354-.018-2.031 0-1.139.041-1.69.587-1.695 1.699-.011 4.4-.011 8.8 0 13.2 0 1.082.452 1.687 1.411 1.716 1.992.065 3.988.02 6.195.02-.718-.722-1.358-1.28-1.886-1.928-.327-.4-.655-.931-.681-1.42-.067-1.247 1.385-2.012 2.462-1.37.198.122.382.267.548.433 1.532 1.524 3.066 3.046 4.58 4.586.908.926.92 1.814.02 2.74-1.53 1.565-3.056 3.13-4.655 4.624-.432.394-.997.61-1.581.606-1.37-.119-1.851-1.714-.885-2.784.62-.687 1.356-1.268 2.04-1.896l-.183-.222zm4.267 21.678h-9.45c-2.581 0-3.883-1.313-3.89-3.902 0-.885-.032-1.771 0-2.654.092-2.128 1.409-3.418 3.54-3.436 2.784-.023 5.569 0 8.355 0h10.93c2.556 0 3.838 1.292 3.842 3.84v2.498c-.006 2.23-1.337 3.599-3.567 3.648-1.174.025-2.349 0-3.523 0l-6.238.006zm9.979-6.636H12.722v3.213h19.915l.002-3.213zm12.493-.046c-1.352 0-2.704.023-4.056 0-.92-.02-1.523-.538-1.675-1.335a1.565 1.565 0 01.898-1.792c.312-.121.644-.18.978-.175 2.575-.014 5.15-.014 7.726 0 1.207 0 1.957.654 1.972 1.64.016.987-.77 1.67-2.025 1.677-1.254.008-2.544 0-3.824 0l.006-.015zm-3.344 6.713c-.373-.039-.763-.052-1.14-.129a1.583 1.583 0 01-1.3-1.604c.012-.754.511-1.444 1.272-1.538a9.907 9.907 0 012.31-.02c.876.1 1.37.77 1.37 1.605a1.546 1.546 0 01-1.337 1.565c-.382.074-.773.082-1.175.121zm6.622-.008c-.3-.03-.664-.037-1.019-.103a1.64 1.64 0 01-1.383-1.62 1.565 1.565 0 011.352-1.566 9.282 9.282 0 012.084-.043 1.63 1.63 0 011.538 1.645c-.016.814-.606 1.46-1.505 1.603-.33.06-.669.059-1.066.084z" fill="#DD408B"/></svg>