<svg width="80" height="79" fill="none" xmlns="http://www.w3.org/2000/svg"><g clip-path="url(#clip0_96_9720)" fill="#DD408B"><path d="M71.24 58.88c-2.459-.456-4.093-1.747-4.695-4.154a6.946 6.946 0 01-.134-1.66c-.009-4.62-.009-9.24 0-13.86 0-3.404 1.264-5.068 4.521-5.983.073-.026.145-.057.213-.093-.638-15.208-13.63-29.236-31.036-29.268C22.572 3.83 9.576 17.903 8.867 33.149c.213.06.44.127.666.183 2.34.572 4.024 2.519 4.043 4.893.051 5.177.072 10.356 0 15.533-.049 3.386-3.083 5.62-6.596 5.017a8.22 8.22 0 01-6.924-7.964c-.064-3.21-.085-6.426 0-9.636.09-3.103 1.583-5.454 4.281-6.992a1.087 1.087 0 00.653-1.03 35.166 35.166 0 0126.527-32.09c19.444-4.893 39.126 7.66 42.905 27.379.3 1.558.438 3.151.593 4.732.047.47.17.736.605.981 2.825 1.592 4.291 4.043 4.347 7.28.05 3.025.04 6.053 0 9.078-.04 3.269-1.49 5.745-4.347 7.36-.454.256-.545.54-.553 1.005-.026 1.883.095 3.791-.177 5.64-.824 5.569-5.569 9.624-11.216 9.743-1.776.037-3.557.02-5.334 0a.788.788 0 00-.851.513c-1.094 2.192-2.885 3.33-5.35 3.347-1.914.015-3.83.022-5.744 0-3.258-.038-5.726-2.434-5.833-5.626A5.675 5.675 0 0146.04 66.6c2.173-.11 4.356-.087 6.528 0 2.294.083 3.928 1.277 4.96 3.315.11.213.375.507.566.507 2.202 0 4.42.096 6.596-.134 3.586-.379 6.428-3.617 6.539-7.224.053-1.375.013-2.753.013-4.183zm4.912-12.818c0-1.566.03-3.132 0-4.696-.056-2.423-1.977-4.368-4.273-4.375-1.01 0-1.628.532-1.632 1.537-.017 4.99-.017 9.98 0 14.968 0 1.01.621 1.554 1.62 1.55 2.308 0 4.227-1.943 4.285-4.364.023-1.53 0-3.08 0-4.62zm-66.363-.01c0-2.47.01-4.94 0-7.407 0-1.145-.613-1.686-1.76-1.652a4.364 4.364 0 00-4.14 4.256 275.127 275.127 0 000 9.556 4.36 4.36 0 003.914 4.224c1.383.112 1.981-.426 1.988-1.81-.002-2.39-.002-4.78-.002-7.168zm39.489 28.25c.98 0 1.964.017 2.947 0 1.183-.026 1.987-.817 1.998-1.926.01-1.108-.768-1.94-1.956-1.96a169.798 169.798 0 00-5.894 0c-1.189.022-1.983.852-1.966 1.956.017 1.104.826 1.902 2.003 1.93.955.017 1.91 0 2.868 0z"/><path d="M27.768 51.33c-1.806-.066-3.379-.497-4.755-1.489-2.38-1.702-3.49-4.06-3.49-6.964 0-5.284-.021-10.569 0-15.852.026-5.005 3.49-8.426 8.511-8.43 7.992-.009 15.983-.009 23.972 0 5.008 0 8.458 3.434 8.481 8.451.026 5.259.026 10.516 0 15.773-.021 5.047-3.492 8.484-8.537 8.494-3.16 0-6.317.015-9.477-.01a1.76 1.76 0 00-1.393.562c-2.183 2.21-4.373 4.415-6.611 6.568a3.887 3.887 0 01-6.31-1.217 5.865 5.865 0 01-.376-2.01c-.057-1.265-.015-2.535-.015-3.876zm3.83 4.256l.194.104c.213-.191.425-.376.619-.574 2.24-2.226 4.496-4.437 6.709-6.69a2.979 2.979 0 012.328-.951c3.477.036 6.953.017 10.426.013 3.051 0 4.794-1.732 4.796-4.784.008-5.174.008-10.352 0-15.532 0-3.058-1.728-4.764-4.803-4.764H28.222c-3.192 0-4.871 1.678-4.873 4.85v15.37a9.62 9.62 0 00.047 1.032 4.145 4.145 0 003.49 3.713c.762.09 1.531.126 2.3.106 1.767.017 2.4.639 2.404 2.39.003 1.91.003 3.818.002 5.723l.006-.006z"/><path d="M40.004 38.087a2.828 2.828 0 112.827-2.849 2.87 2.87 0 01-2.828 2.85zm-6.478-2.832A2.812 2.812 0 1130.7 32.43a2.828 2.828 0 012.826 2.826zm12.963-.013a2.81 2.81 0 115.619.066 2.81 2.81 0 01-5.62-.066z"/></g><defs><clipPath id="clip0_96_9720"><path fill="#fff" d="M0 0h80v78.136H0z"/></clipPath></defs></svg>