<svg width="80" height="81" fill="none" xmlns="http://www.w3.org/2000/svg"><g clip-path="url(#clip0_96_9686)" fill="#DD408B"><path d="M65.384 0c.732.148 1.462.313 2.2.437.588.1 1.039.365 1.218.948.189.612-.05 1.107-.489 1.55-2.528 2.513-5.036 5.05-7.586 7.548-.423.41-.496.744-.306 1.278.626 1.764 1.184 3.55 1.816 5.31a1.3 1.3 0 00.688.705c1.787.635 3.602 1.196 5.392 1.821.48.168.784.119 1.154-.258 2.467-2.502 4.967-4.974 7.45-7.467.474-.473.946-.91 1.7-.66.754.249.883.852 1.013 1.52 1.588 8.214-2.704 15.025-9.075 17.886a15.3 15.3 0 01-8.92 1.18c-.513-.085-.864-.021-1.243.366-2.133 2.171-4.296 4.314-6.5 6.518l2.615 2.618c1.094 1.097 1.102 1.644.024 2.749-.455.466-.808.962-.62 1.66a1.462 1.462 0 002.168.904 2.41 2.41 0 00.322-.22c1.76-1.409 1.781-1.409 3.36.164 4.951 4.952 9.905 9.904 14.86 14.856 1.588 1.582 2.757 3.4 3.163 5.624 1.409 7.743-4.457 12.984-10.298 12.988-3.158 0-5.777-1.089-7.985-3.288-5.16-5.151-10.316-10.306-15.47-15.464-.926-.928-.92-1.537-.027-2.47a4.17 4.17 0 00.594-.717 1.351 1.351 0 00-.19-1.727c-.5-.531-1.136-.631-1.777-.273-.311.171-.563.452-.832.697-.816.748-1.46.768-2.246 0-.946-.927-1.863-1.885-3.054-3.1-.217.367-.34.705-.563.944a401.57 401.57 0 01-5.692 5.687c-.423.408-.536.786-.463 1.362.81 6.367-1.37 11.512-6.492 15.35-7.165 5.37-18.005 3.271-22.74-4.347-5.609-9.006-1.597-20.365 8.437-23.837a14.653 14.653 0 017.39-.596c.498.087.861.007 1.247-.379 9.393-9.421 18.8-18.832 28.22-28.233.34-.34.468-.638.392-1.148C46.932 9.619 52.585 1.8 61.432.197 61.81.13 62.19.067 62.569 0h2.815zm-.664 2.688c-2.512-.112-4.745.36-6.825 1.454-5.423 2.855-8.099 8.502-6.89 14.547.173.869.054 1.523-.604 2.178a13951.12 13951.12 0 00-29.55 29.545c-.628.628-1.269.72-2.114.625-1.515-.169-3.077-.384-4.57-.197-7.677.96-12.872 8.197-11.439 15.78 1.027 5.43 5.195 9.593 10.701 10.693 5.178 1.034 10.676-1.268 13.64-5.765 2.06-3.127 2.711-6.544 1.944-10.217-.157-.747-.157-1.4.452-2.008 9.957-9.93 19.9-19.87 29.83-29.818.508-.508 1.052-.66 1.765-.538 1.073.182 2.167.385 3.249.365a13.266 13.266 0 0013.044-13.328 3.146 3.146 0 00-.092-.54l-.218-.116a5.681 5.681 0 01-.51.692c-1.984 1.995-3.987 3.967-5.957 5.975-.605.616-1.225.76-2.039.478a334.291 334.291 0 00-7.174-2.395c-.768-.248-1.208-.718-1.452-1.477a387.437 387.437 0 00-2.364-7.098c-.29-.846-.156-1.477.489-2.114 2.049-2 4.058-4.042 6.08-6.071.174-.166.335-.355.604-.65zM52.015 40.695L40.778 51.991l2.014 2.066c.148-.093.34-.226.543-.339a4.129 4.129 0 014.96.705c1.305 1.305 1.624 3.396.649 4.958-.345.554-.237.815.175 1.223a4452.38 4452.38 0 0114.096 14.072c.255.254.527.493.68.633L75.21 63.983 59.854 48.687c-1.904 1.205-3.867 1.12-5.355-.289-1.579-1.495-1.721-3.412-.458-5.606l-2.026-2.097zm14.597 36.157c2.747 1.144 6.437.215 8.512-2.007 2.346-2.514 2.698-6.482 1.69-8.18L66.613 76.851z"/><path d="M7.099 0c2.874 1.661 5.723 3.366 8.636 4.961 1.055.58 1.702 1.303 1.831 2.492.312 2.73 1.691 4.776 3.682 6.672 4.665 4.421 9.13 9.054 13.681 13.598.201.201.438.368.621.52l-1.972 1.88c-.06-.057-.265-.24-.46-.435A13974.926 13974.926 0 0116.85 13.385a4.188 4.188 0 01-.944-1.644c-.384-1.212-.632-2.466-.96-3.696-.062-.23-.188-.52-.374-.628-2.536-1.478-5.09-2.93-7.562-4.341L3.05 7.003a778.608 778.608 0 004.34 7.563c.12.206.439.344.694.414.975.274 1.951.564 2.947.74 1.161.197 2.026.772 2.847 1.6a2535.604 2535.604 0 0015.73 15.747c.229.205.47.398.72.578l-2.207 1.972a2.777 2.777 0 00-.409-.655A5747.606 5747.606 0 0011.86 19.118a3.206 3.206 0 00-1.313-.74c-1.268-.376-2.584-.605-3.84-1.018-.515-.17-1.086-.564-1.358-1.019C3.633 13.46 1.99 10.535.332 7.62c-.49-.857-.443-1.364.224-2.038A478.196 478.196 0 015.579.555 6.52 6.52 0 016.317 0h.782zm8.849 72.032c-1.223 0-2.448-.015-3.67.007-.697.013-1.193-.25-1.55-.845a1067.3 1067.3 0 00-3.775-6.29c-.364-.599-.36-1.156 0-1.755a746.846 746.846 0 003.773-6.291 1.579 1.579 0 011.48-.829c2.524.008 5.05.008 7.575 0a1.577 1.577 0 011.473.845 744.79 744.79 0 003.776 6.289c.362.599.35 1.165-.009 1.76a1427.72 1427.72 0 00-3.771 6.278c-.358.599-.858.852-1.55.845-1.252-.03-2.503-.014-3.752-.014zm.04-2.661c.912 0 1.832.034 2.732-.021a1.127 1.127 0 00.775-.448 114.108 114.108 0 002.648-4.42 1.046 1.046 0 00.02-.88 106.084 106.084 0 00-2.645-4.418 1.11 1.11 0 00-.78-.462c-1.822-.04-3.644-.04-5.466 0a1.115 1.115 0 00-.79.445c-.917 1.451-1.8 2.923-2.65 4.417a1.058 1.058 0 000 .886 101.94 101.94 0 002.652 4.416 1.226 1.226 0 00.846.462c.884.06 1.772.023 2.658.023zm10.199-13.91l-1.66-1.614L53.823 24.56l1.55 1.72-29.186 29.18zm40.82 13.347L53.843 55.654l1.8-1.616L68.8 67.185l-1.793 1.623z"/></g><defs><clipPath id="clip0_96_9686"><path fill="#fff" d="M0 0h80v80.025H0z"/></clipPath></defs></svg>