<svg width="286" height="163" viewBox="0 0 286 163" fill="none" xmlns="http://www.w3.org/2000/svg">
<rect width="40.8333" height="40.8333" transform="matrix(-1 0 0 1 244.307 -0.833344)" fill="#C4C4C4"/>
<rect width="40.8333" height="40.8333" transform="matrix(-1 0 0 1 244.307 80.8334)" fill="#B7B7B7"/>
<rect width="40.8333" height="40.8333" transform="matrix(-1 0 0 1 244.307 39.9999)" fill="#B0B0B0"/>
<rect width="40.8333" height="40.8333" transform="matrix(-1 0 0 1 244.307 121.667)" fill="#ECECEC"/>
<rect width="40.8333" height="40.8333" transform="matrix(-1 0 0 1 285.141 -0.833344)" fill="#ECECEC"/>
<rect width="40.8333" height="40.8333" transform="matrix(-1 0 0 1 285.141 80.8334)" fill="#ECECEC"/>
<rect width="40.8333" height="40.8333" transform="matrix(-1 0 0 1 285.141 39.9999)" fill="#C4C4C4"/>
<rect width="40.8333" height="40.8333" transform="matrix(-1 0 0 1 285.141 121.667)" fill="#ECECEC"/>
<rect width="40.8333" height="40.8333" transform="matrix(-1 0 0 1 162.641 -0.833344)" fill="#B7B7B7"/>
<rect width="40.8333" height="40.8333" transform="matrix(-1 0 0 1 80.9746 -0.833374)" fill="#ECECEC"/>
<rect width="40.8333" height="40.8333" transform="matrix(-1 0 0 1 80.9746 80.8334)" fill="#717171"/>
<rect width="40.8333" height="40.8333" transform="matrix(-1 0 0 1 162.807 80.8334)" fill="#C4C4C4"/>
<rect width="40.8333" height="40.8333" transform="matrix(-1 0 0 1 162.807 80.8334)" fill="url(#paint0_linear_96_8919)"/>
<rect width="40.8333" height="40.8333" transform="matrix(-1 0 0 1 162.641 39.9999)" fill="#D8D8D8"/>
<rect width="40.8333" height="40.8333" transform="matrix(-1 0 0 1 80.9746 39.9999)" fill="#ECECEC"/>
<rect width="40.8333" height="40.8333" transform="matrix(-1 0 0 1 162.641 121.667)" fill="#ECECEC"/>
<rect width="40.8333" height="40.8333" transform="matrix(-1 0 0 1 80.9746 121.667)" fill="#ECECEC"/>
<rect width="40.8333" height="40.8333" transform="matrix(-1 0 0 1 203.475 -0.833344)" fill="#575757"/>
<rect width="40.8333" height="40.8333" transform="matrix(-1 0 0 1 121.807 -0.833344)" fill="#D8D8D8"/>
<rect width="40.8333" height="40.8333" transform="matrix(-1 0 0 1 40.1406 -0.833344)" fill="#ECECEC"/>
<rect width="40.8333" height="40.8333" transform="matrix(-1 0 0 1 203.475 80.8334)" fill="#ECECEC"/>
<rect width="40.8333" height="40.8333" transform="matrix(-1 0 0 1 121.807 80.8334)" fill="#ECECEC"/>
<rect width="40.8333" height="40.8333" transform="matrix(-1 0 0 1 40.1406 80.8334)" fill="#ECECEC"/>
<rect width="40.8333" height="40.8333" transform="matrix(-1 0 0 1 203.475 39.9999)" fill="#717171"/>
<rect width="40.8333" height="40.8333" transform="matrix(-1 0 0 1 121.807 39.9999)" fill="#ECECEC"/>
<rect width="40.8333" height="40.8333" transform="matrix(-1 0 0 1 40.1406 39.9999)" fill="#C4C4C4"/>
<rect width="40.8333" height="40.8333" transform="matrix(-1 0 0 1 203.475 121.667)" fill="#B0B0B0"/>
<rect width="40.8333" height="40.8333" transform="matrix(-1 0 0 1 121.807 121.667)" fill="#C4C4C4"/>
<rect width="40.8333" height="40.8333" transform="matrix(-1 0 0 1 40.1406 121.667)" fill="#C4C4C4"/>
<defs>
<linearGradient id="paint0_linear_96_8919" x1="39.0256" y1="-1.87308e-05" x2="-3.94515" y2="2.03313" gradientUnits="userSpaceOnUse">
<stop stop-color="#E11F26"/>
<stop offset="1" stop-color="#DD408B"/>
</linearGradient>
</defs>
</svg>
